<?xml version="1.0" encoding="utf-8"?>
<!-- Generator: Adobe Illustrator 26.0.1, SVG Export Plug-In . SVG Version: 6.00 Build 0)  -->
<svg version="1.1" id="Layer_1" xmlns="http://www.w3.org/2000/svg" xmlns:xlink="http://www.w3.org/1999/xlink" x="0px" y="0px"
	 viewBox="0 0 2400 2080" style="enable-background:new 0 0 2400 2080;" xml:space="preserve">
<style type="text/css">
	.st0{display:none;}
	.st1{display:inline;}
	.st2{fill:none;}
	.st3{fill:#2C99E8;}
	.st4{fill:#0096FF;}
</style>
<g id="vector_shape" class="st0">
	<g class="st1">
		<polygon class="st2" points="1660.1,1197.7 1200,400.8 739.9,1197.7 		"/>
		<polygon class="st2" points="1775.6,1397.7 624.4,1397.7 346.4,1879.2 2053.6,1879.2 		"/>
		<path class="st3" d="M1200,0.8L0,2079.2h2400L1200,0.8z M1660.1,1197.7H739.9L1200,400.8L1660.1,1197.7z M624.4,1397.7h1151.1
			l278,481.6H346.4L624.4,1397.7z"/>
	</g>
</g>
<g id="Layer_2_00000062875964578924692220000008563539353122774204_">
	<path class="st4" d="M1200,0.8L0,2079.2h2400L1200,0.8z M1200,400.8l460.1,796.9H739.9L1200,400.8z M624.4,1397.7h1151.1l278,481.6
		H346.4L624.4,1397.7z"/>
</g>
</svg>
