<?xml version="1.0" encoding="utf-8"?>
<!-- Generator: Adobe Illustrator 26.0.1, SVG Export Plug-In . SVG Version: 6.00 Build 0)  -->
<svg version="1.1" id="Layer_1" xmlns="http://www.w3.org/2000/svg" xmlns:xlink="http://www.w3.org/1999/xlink" x="0px" y="0px"
	 viewBox="0 0 1286.1 265.3" style="enable-background:new 0 0 1286.1 265.3;" xml:space="preserve">
<style type="text/css">
	.st0{fill:#0096FF;}
</style>
<g>
	<path class="st0" d="M426.9,167h-85.1v72.2H441v22H315.9V57.4h123.8v22.1h-98V145h85.2L426.9,167z"/>
	<path class="st0" d="M536.2,178h-40.7v83.1h-25.7V57.4h59.8c9.5,0.2,18.5,1.5,26.9,4.1c8.4,2.5,15.7,6.3,22,11.3s11.2,11.4,14.8,19
		s5.4,16.5,5.4,26.8c0,6.6-1,12.7-2.9,18.2s-4.5,10.5-7.9,15s-7.4,8.4-12,11.9c-4.7,3.5-9.8,6.4-15.4,8.8l43.2,87l-0.1,1.7h-27.3
		L536.2,178z M495.4,156.8h34.7c5.8-0.1,11.2-1,16.4-2.7c5.1-1.7,9.6-4.2,13.5-7.5s6.9-7.3,9.2-12c2.2-4.7,3.4-10.1,3.4-16.3
		c0-6.5-1.1-12.2-3.2-17.1s-5.1-9-9-12.3c-3.8-3.3-8.4-5.8-13.6-7.5c-5.3-1.7-11-2.6-17.3-2.7h-34v78.1H495.4z"/>
	<path class="st0" d="M658.3,179.4v81.7h-25.9V57.4h66c9.1,0.2,17.8,1.6,26,4.3s15.3,6.6,21.5,11.8c6.2,5.1,11,11.5,14.6,19
		c3.6,7.6,5.4,16.2,5.4,26s-1.8,18.4-5.4,26c-3.6,7.5-8.5,13.8-14.6,19c-6.2,5.1-13.3,9-21.5,11.8c-8.2,2.7-16.8,4.1-26,4.2
		L658.3,179.4L658.3,179.4z M658.3,158.2h40.2c6-0.1,11.5-1,16.5-2.9c5-1.8,9.4-4.4,13.2-7.8c3.7-3.4,6.6-7.4,8.7-12.2
		s3.1-10.3,3.1-16.4c0-6.2-1-11.7-3.1-16.7c-2.1-4.9-5-9.1-8.7-12.6s-8.1-6.1-13.2-8s-10.6-2.8-16.6-2.9h-40.2L658.3,158.2z"/>
	<path class="st0" d="M1087.1,209.7c0-6.2-1.4-11.5-4.3-15.8c-2.8-4.3-6.5-7.9-11-10.8s-9.4-5.4-14.8-7.3c-5.4-2-10.5-3.7-15.5-5.3
		c-7.2-2.3-14.5-5.1-21.9-8.4s-14.2-7.3-20.3-12c-6.1-4.8-11.1-10.4-15-16.9s-5.8-14.1-5.8-22.9s1.9-16.6,5.8-23.5
		s8.9-12.7,15.2-17.5c6.2-4.8,13.3-8.4,21.3-10.8c7.9-2.5,15.9-3.7,23.9-3.7c8.9,0,17.4,1.5,25.6,4.4s15.5,7.1,21.8,12.4
		s11.4,11.8,15.3,19.3c3.8,7.6,5.8,16,6,25.3h-26.5c-0.7-5.9-2.2-11.2-4.3-16s-5-8.9-8.5-12.4s-7.8-6.1-12.7-8s-10.4-2.9-16.6-2.9
		c-4.9,0-9.8,0.7-14.5,2.1s-8.9,3.5-12.6,6.3s-6.6,6.3-8.8,10.4s-3.3,8.9-3.3,14.3c0.1,5.9,1.6,10.8,4.5,14.9s6.6,7.5,11,10.3
		s9.2,5.1,14.4,7s10.1,3.5,14.6,4.9c5,1.6,10.1,3.4,15.3,5.4c5.1,2,10.1,4.3,14.8,6.9c4.8,2.6,9.2,5.6,13.3,8.8
		c4.1,3.3,7.7,7,10.8,11.1c3.1,4.2,5.5,8.7,7.2,13.7s2.6,10.5,2.6,16.6c0,9.1-2,17.1-6.1,23.9s-9.3,12.5-15.7,17
		s-13.7,7.9-21.8,10.2s-16.2,3.4-24.3,3.4c-9,0-17.9-1.4-26.6-4.2s-16.4-6.8-23.3-12.1s-12.4-11.7-16.7-19.3s-6.6-16.3-6.9-26h26.4
		c0.8,6.3,2.6,12,5.2,16.9s6,9,10.1,12.5c4.1,3.4,8.8,6,14.2,7.7s11.2,2.6,17.6,2.6c5,0,10-0.6,14.9-1.9s9.3-3.2,13.1-5.9
		s6.9-6,9.4-10.1C1085.9,220.1,1087.1,215.3,1087.1,209.7L1087.1,209.7z"/>
	<path class="st0" d="M1257.7,209.7c0-6.2-1.4-11.5-4.3-15.8c-2.8-4.3-6.5-7.9-11-10.8s-9.4-5.4-14.8-7.3c-5.4-2-10.5-3.7-15.5-5.3
		c-7.2-2.3-14.5-5.1-21.9-8.4s-14.2-7.3-20.3-12c-6.1-4.8-11.1-10.4-15-16.9s-5.8-14.1-5.8-22.9s1.9-16.6,5.8-23.5
		s8.9-12.7,15.2-17.5c6.2-4.8,13.3-8.4,21.3-10.8c7.9-2.5,15.9-3.7,23.9-3.7c8.9,0,17.4,1.5,25.6,4.4s15.5,7.1,21.8,12.4
		s11.4,11.8,15.3,19.3c3.8,7.6,5.8,16,6,25.3h-26.6c-0.7-5.9-2.2-11.2-4.3-16s-5-8.9-8.5-12.4s-7.8-6.1-12.7-8s-10.4-2.9-16.6-2.9
		c-4.9,0-9.8,0.7-14.5,2.1s-8.9,3.5-12.6,6.3s-6.6,6.3-8.8,10.4s-3.3,8.9-3.3,14.3c0.1,5.9,1.6,10.8,4.5,14.9s6.6,7.5,11,10.3
		s9.2,5.1,14.4,7s10.1,3.5,14.6,4.9c5,1.6,10.1,3.4,15.3,5.4c5.1,2,10.1,4.3,14.8,6.9c4.8,2.6,9.2,5.6,13.3,8.8
		c4.1,3.3,7.7,7,10.8,11.1c3.1,4.2,5.5,8.7,7.2,13.7s2.6,10.5,2.6,16.6c0,9.1-2,17.1-6.1,23.9s-9.3,12.5-15.7,17
		s-13.7,7.9-21.8,10.2s-16.2,3.4-24.3,3.4c-9,0-17.9-1.4-26.6-4.2s-16.4-6.8-23.3-12.1s-12.4-11.7-16.7-19.3s-6.6-16.3-6.9-26h26.4
		c0.8,6.3,2.6,12,5.2,16.9s6,9,10.1,12.5c4.1,3.4,8.8,6,14.2,7.7s11.2,2.6,17.6,2.6c5,0,10-0.6,14.9-1.9s9.3-3.2,13.1-5.9
		s6.9-6,9.4-10.1C1256.5,220.1,1257.7,215.3,1257.7,209.7L1257.7,209.7z"/>
	<path class="st0" d="M151.8,1.7L1.9,261.3h299.8L151.8,1.7z M151.8,51.6l57.5,99.5h-115L151.8,51.6z M79.9,176.2h143.8l34.7,60.2
		H45.2L79.9,176.2z"/>
	<path class="st0" d="M855,57.4L737.4,261.2h28.7l17.4-30.1l14.4-24.9h114.4l14.4,24.9l17.4,30.1h28.7L855,57.4z M812.2,181.3
		l42.8-74.2l42.8,74.2H812.2z"/>
</g>
</svg>
