<svg enable-background="new 0.532 215.345 359.048 73.448" height="73.448" viewBox=".532 215.345 359.048 73.448" width="359.048" xmlns="http://www.w3.org/2000/svg"><g fill="#2c99e8"><path d="m119.496 261.616h-23.821v20.209h27.768v6.158h-35.018v-57.047h34.654v6.186h-27.432v18.334h23.849z"/><path d="m150.091 264.694h-11.393v23.262h-7.194v-57.02h16.739c2.659.057 5.178.42 7.53 1.146 2.351.701 4.395 1.765 6.158 3.164 1.763 1.398 3.135 3.19 4.143 5.317s1.512 4.619 1.512 7.502c0 1.847-.28 3.556-.812 5.095s-1.26 2.938-2.211 4.198c-.951 1.261-2.071 2.353-3.359 3.331-1.315.979-2.743 1.791-4.311 2.463l12.092 24.354-.028.477h-7.642zm-11.421-5.934h9.713c1.624-.027 3.135-.279 4.591-.756 1.428-.477 2.687-1.176 3.779-2.101 1.092-.924 1.932-2.043 2.575-3.358.616-1.314.952-2.826.952-4.562 0-1.819-.308-3.415-.896-4.787s-1.428-2.521-2.52-3.442c-1.063-.924-2.351-1.625-3.807-2.101-1.483-.476-3.079-.728-4.842-.756h-9.518v21.86h-.027z"/><path d="m184.269 265.086v22.869h-7.25v-57.02h18.474c2.549.057 4.983.447 7.278 1.204 2.295.755 4.282 1.847 6.019 3.303 1.735 1.429 3.08 3.22 4.086 5.317 1.008 2.128 1.513 4.535 1.513 7.279 0 2.742-.505 5.149-1.513 7.276-1.006 2.101-2.379 3.862-4.086 5.317-1.735 1.429-3.724 2.521-6.019 3.305-2.295.756-4.703 1.146-7.278 1.176h-11.225zm0-5.934h11.253c1.68-.028 3.219-.28 4.619-.812 1.398-.504 2.631-1.231 3.693-2.184 1.037-.951 1.848-2.07 2.436-3.414.588-1.345.868-2.885.868-4.592 0-1.736-.28-3.275-.868-4.675-.588-1.372-1.398-2.547-2.436-3.526-1.035-.98-2.268-1.709-3.693-2.24-1.428-.531-2.969-.783-4.646-.812h-11.254z"/><path d="m304.297 273.567c0-1.734-.394-3.219-1.203-4.423-.785-1.203-1.82-2.211-3.08-3.022s-2.631-1.512-4.143-2.043c-1.513-.561-2.939-1.035-4.338-1.484-2.017-.643-4.061-1.428-6.132-2.35-2.071-.925-3.976-2.045-5.683-3.359-1.707-1.344-3.106-2.911-4.198-4.731-1.093-1.819-1.623-3.946-1.623-6.409 0-2.464.531-4.646 1.623-6.578 1.092-1.933 2.491-3.556 4.254-4.898 1.735-1.344 3.724-2.352 5.963-3.023 2.212-.699 4.451-1.035 6.688-1.035 2.492 0 4.871.42 7.166 1.23 2.296.812 4.34 1.988 6.104 3.471s3.191 3.303 4.281 5.402c1.064 2.127 1.625 4.479 1.682 7.082h-7.419c-.194-1.652-.614-3.135-1.202-4.479-.589-1.344-1.399-2.492-2.379-3.472-.98-.979-2.185-1.708-3.556-2.239-1.372-.531-2.912-.812-4.647-.812-1.371 0-2.742.196-4.059.588-1.314.392-2.491.979-3.525 1.765-1.037.783-1.849 1.762-2.465 2.91-.615 1.146-.924 2.491-.924 4.004.027 1.65.448 3.022 1.26 4.17.812 1.147 1.848 2.1 3.079 2.883s2.575 1.428 4.031 1.959c1.455.531 2.826.979 4.086 1.371 1.399.447 2.828.951 4.283 1.513 1.428.56 2.827 1.202 4.144 1.932 1.344.728 2.574 1.565 3.723 2.464 1.148.924 2.154 1.959 3.023 3.106.867 1.176 1.539 2.435 2.016 3.834.475 1.399.729 2.938.729 4.646 0 2.549-.561 4.787-1.707 6.69-1.148 1.903-2.605 3.499-4.396 4.759s-3.834 2.211-6.103 2.855-4.534.951-6.803.951c-2.519 0-5.011-.393-7.445-1.176-2.437-.783-4.59-1.904-6.521-3.388-1.932-1.483-3.473-3.274-4.676-5.401s-1.848-4.562-1.932-7.277h7.391c.225 1.763.729 3.357 1.455 4.729.729 1.371 1.68 2.519 2.827 3.498 1.147.952 2.464 1.681 3.976 2.156s3.135.728 4.926.728c1.4 0 2.8-.168 4.172-.531 1.371-.363 2.604-.896 3.666-1.651 1.064-.756 1.932-1.681 2.631-2.827.644-1.176.98-2.52.98-4.088z"/><path d="m352.051 273.567c0-1.734-.393-3.219-1.205-4.423-.783-1.203-1.818-2.211-3.078-3.022s-2.631-1.512-4.143-2.043c-1.512-.561-2.939-1.035-4.34-1.484-2.016-.643-4.059-1.428-6.129-2.35-2.072-.925-3.977-2.045-5.684-3.359-1.707-1.344-3.107-2.911-4.197-4.731-1.094-1.819-1.625-3.946-1.625-6.409 0-2.464.531-4.646 1.625-6.578 1.09-1.933 2.49-3.556 4.254-4.898 1.734-1.344 3.723-2.352 5.963-3.023 2.211-.699 4.449-1.035 6.688-1.035 2.492 0 4.871.42 7.166 1.23 2.295.812 4.34 1.988 6.104 3.471s3.189 3.303 4.283 5.402c1.062 2.127 1.623 4.479 1.68 7.082h-7.445c-.197-1.652-.617-3.135-1.205-4.479s-1.398-2.492-2.379-3.472c-.979-.979-2.184-1.708-3.555-2.239s-2.912-.812-4.646-.812c-1.371 0-2.744.196-4.059.588-1.316.392-2.492.979-3.527 1.765-1.035.783-1.848 1.762-2.463 2.91-.615 1.146-.924 2.491-.924 4.004.027 1.65.447 3.022 1.26 4.17s1.848 2.1 3.078 2.883c1.232.783 2.576 1.428 4.031 1.959s2.828.979 4.086 1.371c1.4.447 2.828.951 4.283 1.513 1.428.56 2.828 1.202 4.143 1.932 1.344.728 2.576 1.565 3.725 2.464 1.146.924 2.154 1.959 3.021 3.106.869 1.176 1.541 2.435 2.016 3.834.477 1.399.729 2.938.729 4.646 0 2.549-.561 4.787-1.707 6.69-1.148 1.903-2.604 3.499-4.396 4.759-1.791 1.26-3.834 2.211-6.102 2.855s-4.535.951-6.801.951c-2.521 0-5.012-.393-7.447-1.176s-4.59-1.904-6.52-3.388c-1.934-1.483-3.473-3.274-4.676-5.401-1.205-2.127-1.848-4.562-1.932-7.277h7.389c.225 1.763.729 3.357 1.457 4.729.729 1.371 1.68 2.519 2.826 3.498 1.148.952 2.463 1.681 3.977 2.156 1.512.476 3.135.728 4.926.728 1.398 0 2.799-.168 4.17-.531 1.373-.363 2.604-.896 3.668-1.651 1.062-.755 1.932-1.681 2.631-2.827.67-1.176 1.006-2.52 1.006-4.088z"/><path d="m42.491 215.345-41.959 72.667h83.919zm0 13.968 16.095 27.852h-32.19zm-20.126 34.877h40.252l9.713 16.852h-59.678z"/><path d="m239.329 230.937-32.918 57.047h8.032l4.871-8.426 4.031-6.97h32.021l4.031 6.97 4.87 8.426h8.034zm-11.981 34.681 11.98-20.77 11.979 20.77z"/></g></svg>
