<?xml version="1.0" encoding="utf-8"?>
<!-- Generator: Adobe Illustrator 26.3.1, SVG Export Plug-In . SVG Version: 6.00 Build 0)  -->
<svg version="1.1" id="Layer_1" xmlns="http://www.w3.org/2000/svg" xmlns:xlink="http://www.w3.org/1999/xlink" x="0px" y="0px"
	 viewBox="0 0 359 73.4" style="enable-background:new 0 0 359 73.4;" xml:space="preserve">
<g>
	<path d="M119,46.3H95.1v20.2h27.8v6.2h-35v-57h34.7v6.2H95.1v18.3H119V46.3z"/>
	<path d="M149.6,49.3h-11.4v23.3H131v-57h16.7c2.7,0.1,5.2,0.4,7.5,1.1c2.4,0.7,4.4,1.8,6.2,3.2c1.8,1.4,3.1,3.2,4.1,5.3
		s1.5,4.6,1.5,7.5c0,1.8-0.3,3.6-0.8,5.1s-1.2,3-2.2,4.2c-1,1.3-2.1,2.4-3.4,3.3c-1.3,1-2.7,1.8-4.3,2.5l12.1,24.4v0.5h-7.6
		L149.6,49.3z M138.1,43.4h9.7c1.6,0,3.1-0.3,4.6-0.8c1.4-0.5,2.7-1.2,3.8-2.1c1.1-0.9,1.9-2,2.6-3.4c0.6-1.3,1-2.8,1-4.6
		s-0.3-3.4-0.9-4.8s-1.4-2.5-2.5-3.4s-2.4-1.6-3.8-2.1c-1.5-0.5-3.1-0.7-4.8-0.8h-9.5L138.1,43.4L138.1,43.4L138.1,43.4z"/>
	<path d="M183.7,49.7v22.9h-7.2v-57H195c2.5,0.1,5,0.4,7.3,1.2c2.3,0.8,4.3,1.8,6,3.3c1.7,1.4,3.1,3.2,4.1,5.3s1.5,4.5,1.5,7.3
		c0,2.7-0.5,5.1-1.5,7.3c-1,2.1-2.4,3.9-4.1,5.3c-1.7,1.4-3.7,2.5-6,3.3s-4.7,1.1-7.3,1.2L183.7,49.7L183.7,49.7z M183.7,43.8H195
		c1.7,0,3.2-0.3,4.6-0.8c1.4-0.5,2.6-1.2,3.7-2.2c1-1,1.8-2.1,2.4-3.4c0.6-1.3,0.9-2.9,0.9-4.6c0-1.7-0.3-3.3-0.9-4.7
		c-0.6-1.4-1.4-2.5-2.4-3.5s-2.3-1.7-3.7-2.2s-3-0.8-4.6-0.8h-11.3V43.8z"/>
	<path d="M303.8,58.2c0-1.7-0.4-3.2-1.2-4.4c-0.8-1.2-1.8-2.2-3.1-3s-2.6-1.5-4.1-2c-1.5-0.6-2.9-1-4.3-1.5c-2-0.6-4.1-1.4-6.1-2.4
		c-2.1-0.9-4-2-5.7-3.4c-1.7-1.3-3.1-2.9-4.2-4.7s-1.6-3.9-1.6-6.4s0.5-4.6,1.6-6.6c1.1-1.9,2.5-3.6,4.3-4.9c1.7-1.3,3.7-2.4,6-3
		c2.2-0.7,4.5-1,6.7-1c2.5,0,4.9,0.4,7.2,1.2c2.3,0.8,4.3,2,6.1,3.5s3.2,3.3,4.3,5.4c1.1,2.1,1.6,4.5,1.7,7.1H304
		c-0.2-1.7-0.6-3.1-1.2-4.5c-0.6-1.3-1.4-2.5-2.4-3.5s-2.2-1.7-3.6-2.2s-2.9-0.8-4.6-0.8c-1.4,0-2.7,0.2-4.1,0.6
		c-1.3,0.4-2.5,1-3.5,1.8s-1.8,1.8-2.5,2.9c-0.6,1.1-0.9,2.5-0.9,4c0,1.6,0.4,3,1.3,4.2c0.8,1.1,1.8,2.1,3.1,2.9s2.6,1.4,4,2
		c1.5,0.5,2.8,1,4.1,1.4c1.4,0.4,2.8,1,4.3,1.5c1.4,0.6,2.8,1.2,4.1,1.9c1.3,0.7,2.6,1.6,3.7,2.5s2.2,2,3,3.1c0.9,1.2,1.5,2.4,2,3.8
		c0.5,1.4,0.7,2.9,0.7,4.6c0,2.5-0.6,4.8-1.7,6.7c-1.1,1.9-2.6,3.5-4.4,4.8s-3.8,2.2-6.1,2.9s-4.5,1-6.8,1c-2.5,0-5-0.4-7.4-1.2
		c-2.4-0.8-4.6-1.9-6.5-3.4s-3.5-3.3-4.7-5.4s-1.8-4.6-1.9-7.3h7.4c0.2,1.8,0.7,3.4,1.5,4.7c0.7,1.4,1.7,2.5,2.8,3.5
		c1.1,1,2.5,1.7,4,2.2s3.1,0.7,4.9,0.7c1.4,0,2.8-0.2,4.2-0.5c1.4-0.4,2.6-0.9,3.7-1.7c1.1-0.8,1.9-1.7,2.6-2.8
		C303.4,61.1,303.8,59.8,303.8,58.2L303.8,58.2z"/>
	<path d="M351.5,58.2c0-1.7-0.4-3.2-1.2-4.4c-0.8-1.2-1.8-2.2-3.1-3s-2.6-1.5-4.1-2c-1.5-0.6-2.9-1-4.3-1.5c-2-0.6-4.1-1.4-6.1-2.4
		c-2.1-0.9-4-2-5.7-3.4c-1.7-1.3-3.1-2.9-4.2-4.7s-1.6-3.9-1.6-6.4s0.5-4.6,1.6-6.6c1.1-1.9,2.5-3.6,4.3-4.9c1.7-1.3,3.7-2.4,6-3
		c2.2-0.7,4.4-1,6.7-1c2.5,0,4.9,0.4,7.2,1.2c2.3,0.8,4.3,2,6.1,3.5s3.2,3.3,4.3,5.4c1.1,2.1,1.6,4.5,1.7,7.1h-7.4
		c-0.2-1.7-0.6-3.1-1.2-4.5s-1.4-2.5-2.4-3.5s-2.2-1.7-3.6-2.2s-2.9-0.8-4.6-0.8c-1.4,0-2.7,0.2-4.1,0.6c-1.3,0.4-2.5,1-3.5,1.8
		s-1.8,1.8-2.5,2.9c-0.6,1.1-0.9,2.5-0.9,4c0,1.6,0.4,3,1.3,4.2s1.8,2.1,3.1,2.9c1.2,0.8,2.6,1.4,4,2s2.8,1,4.1,1.4
		c1.4,0.4,2.8,1,4.3,1.5c1.4,0.6,2.8,1.2,4.1,1.9c1.3,0.7,2.6,1.6,3.7,2.5s2.2,2,3,3.1c0.9,1.2,1.5,2.4,2,3.8
		c0.5,1.4,0.7,2.9,0.7,4.6c0,2.5-0.6,4.8-1.7,6.7c-1.1,1.9-2.6,3.5-4.4,4.8s-3.8,2.2-6.1,2.9s-4.5,1-6.8,1c-2.5,0-5-0.4-7.4-1.2
		s-4.6-1.9-6.5-3.4s-3.5-3.3-4.7-5.4s-1.8-4.6-1.9-7.3h7.4c0.2,1.8,0.7,3.4,1.5,4.7c0.7,1.4,1.7,2.5,2.8,3.5c1.1,1,2.5,1.7,4,2.2
		s3.1,0.7,4.9,0.7c1.4,0,2.8-0.2,4.2-0.5c1.4-0.4,2.6-0.9,3.7-1.7c1.1-0.8,1.9-1.7,2.6-2.8C351.2,61.1,351.5,59.8,351.5,58.2
		L351.5,58.2z"/>
	<path d="M42,0L0,72.7h83.9L42,0z M42,14l16.1,27.9H25.9L42,14z M21.8,48.8h40.3l9.7,16.9H12.1L21.8,48.8z"/>
	<path d="M238.8,15.6l-32.9,57h8l4.9-8.4l4-7h32l4,7l4.9,8.4h8L238.8,15.6z M226.8,50.3l12-20.8l12,20.8H226.8z"/>
</g>
</svg>
