<?xml version="1.0" encoding="utf-8"?>
<!-- Generator: Adobe Illustrator 27.3.1, SVG Export Plug-In . SVG Version: 6.00 Build 0)  -->
<svg version="1.1" id="new" xmlns="http://www.w3.org/2000/svg" xmlns:xlink="http://www.w3.org/1999/xlink" x="0px" y="0px"
	 viewBox="0 0 1226.1 735.8" style="enable-background:new 0 0 1226.1 735.8;" xml:space="preserve">
<style type="text/css">
	.st0{fill:#00FF00;}
	.st1{fill:#FFF}
</style>
<path class="st0" d="M368.3,42.4c-170.5,0-308.7,138.2-308.7,308.7c0,69.5,23,133.6,61.7,185.2L94.1,658l136.7-30.4
	c41.4,20.7,88.1,32.3,137.6,32.3c170.5,0,308.7-138.2,308.7-308.7S538.8,42.4,368.3,42.4z"/>
<path class="st1" d="M366.9,6.3C172.2,6.3,14.3,162.4,14.3,354.9c0,67.6,19.5,130.8,53.2,184.2l-43,186.4l204-49.8
	c42.5,17.9,89.2,27.9,138.3,27.9c194.7,0,352.5-156.1,352.5-348.6S561.6,6.3,366.9,6.3z M366.9,634c-46.7,0-90.7-11-129.6-30.5
	l-120.7,29.6l24.8-107.7c-37.2-47.1-59.4-106.3-59.4-170.5c0-154.1,127.6-279.1,285-279.1s285,124.9,285,279.1S524.3,634,366.9,634z
	"/>
<g>
	<path class="st1" d="M779.3,585.8V148.2c0-37.4,21-59.2,56.6-59.2s56.6,21.8,56.6,59.2v187.5h3.4l203.6-222.3c15.7-17.2,30.1-24.4,48.7-24.4
		c30.1,0,53.3,22.9,53.3,52.1c0,15.7-5.7,28.2-19.9,43.1l-149.2,156.4l162.4,197.2c16.9,21,24.4,37.1,24.4,52.5
		c0,30.7-23.7,54.8-54.8,54.8c-23.2,0-39-8.6-56.6-31.1L946.4,415.5l-54,56.6v113.7c0,37.1-21,58.9-56.6,58.9
		C800,644.6,779.3,622.9,779.3,585.8z"/>
</g>
<g>
	<path d="M372.7,152.5c118.4,0,198.5,74.2,198.5,183.6c0,76.2-38.1,123.3-101.3,123.3c-32,0-54.7-12.9-63.2-35.9h-5.1
		c-9.8,24.2-27.3,36.6-55.2,36.6c-50.8,0-84.2-41.3-84.2-103c0-59.3,31.5-98.1,78.9-98.1c26.6,0,46.9,12,56.4,34.2h5.4v-1.3
		c0-21.2,11.5-33,32.2-33c21,0,32.5,11.7,32.5,33v87.9c0,17.8,6.8,28.1,19,28.1c18.6,0,29.8-25.1,29.8-63.2
		c0-87.6-55.9-143.6-143.6-143.6C281,201.1,217,263.8,217,357.6c0,93.5,65.2,154.5,168,154.5c12,0,19.8-0.5,26.6-1
		c4.6-0.2,8.8-0.5,13.7-0.5c17.6,0,25.1,8.8,25.1,22c0,11.7-4.9,17.8-15.1,22.2c-10.5,4.4-26.6,6.1-57.1,6.1
		c-129.4,0-216.3-81.3-216.3-204.3C161.8,236,248.2,152.5,372.7,152.5z M396.1,359.8c0-28.6-11.7-45.7-30.5-45.7
		c-19,0-30.5,17.1-30.5,45.7c0,28.3,11.2,44.9,30.5,44.9C384.7,404.7,396.1,388.1,396.1,359.8z"/>
</g>
</svg>
