<?xml version="1.0" encoding="utf-8"?>
<!-- Generator: Adobe Illustrator 27.9.6, SVG Export Plug-In . SVG Version: 9.03 Build 54986)  -->
<svg version="1.1" id="Layer_1" xmlns="http://www.w3.org/2000/svg" xmlns:xlink="http://www.w3.org/1999/xlink" x="0px" y="0px"
	 viewBox="0 0 1240 708" style="enable-background:new 0 0 1240 708;" xml:space="preserve">
<style type="text/css">
	.st0{fill:#FFFFFF;}
	.st1{fill:#00FF00;stroke:#FFFFFF;stroke-width:72;stroke-miterlimit:10;}
	.st2{fill:#111111;stroke:#111111;stroke-miterlimit:10;}
</style>
<g>
	<path class="st0" d="M794.7,573.7V136.1c0-37.4,21-59.2,56.6-59.2s56.6,21.8,56.6,59.2v187.5h3.4l203.6-222.3
		c15.7-17.2,30.1-24.4,48.7-24.4c30.1,0,53.3,22.9,53.3,52.1c0,15.7-5.7,28.2-19.9,43.1l-149.2,156.4l162.4,197.2
		c16.9,21,24.4,37.1,24.4,52.5c0,30.7-23.7,54.8-54.8,54.8c-23.2,0-39-8.6-56.6-31.1L961.8,403.4l-54,56.6v113.7
		c0,37.1-21,58.9-56.6,58.9C815.4,632.5,794.7,610.8,794.7,573.7z"/>
</g>
<circle class="st1" cx="356.4" cy="354.9" r="314.1"/>
<g>
	<path class="st2" d="M358.5,150.7c118.4,0,198.5,74.2,198.5,183.6c0,76.2-38.1,123.3-101.3,123.3c-32,0-54.7-12.9-63.2-35.9h-5.1
		c-9.8,24.2-27.3,36.6-55.2,36.6c-50.8,0-84.2-41.3-84.2-103c0-59.3,31.5-98.1,78.9-98.1c26.6,0,46.9,12,56.4,34.2h5.4v-1.3
		c0-21.2,11.5-33,32.2-33c21,0,32.5,11.7,32.5,33V378c0,17.8,6.8,28.1,19,28.1c18.6,0,29.8-25.1,29.8-63.2
		c0-87.6-55.9-143.6-143.6-143.6c-91.8,0-155.8,62.7-155.8,156.5c0,93.5,65.2,154.5,168,154.5c12,0,19.8-0.5,26.6-1
		c4.6-0.2,8.8-0.5,13.7-0.5c17.6,0,25.1,8.8,25.1,22c0,11.7-4.9,17.8-15.1,22.2c-10.5,4.4-26.6,6.1-57.1,6.1
		c-129.4,0-216.3-81.3-216.3-204.3C147.6,234.2,234,150.7,358.5,150.7z M381.9,358c0-28.6-11.7-45.7-30.5-45.7
		c-19,0-30.5,17.1-30.5,45.7c0,28.3,11.2,44.9,30.5,44.9C370.5,402.9,381.9,386.3,381.9,358z"/>
</g>
</svg>
