<?xml version="1.0" encoding="utf-8"?>
<!-- Generator: Adobe Illustrator 27.9.5, SVG Export Plug-In . SVG Version: 9.03 Build 54986)  -->
<svg version="1.1" id="Layer_1" xmlns="http://www.w3.org/2000/svg" xmlns:xlink="http://www.w3.org/1999/xlink" x="0px" y="0px"
	 viewBox="0 0 512 512" style="enable-background:new 0 0 512 512;" xml:space="preserve">
<style type="text/css">
	.st0{fill:#00FF00;stroke:#000000;stroke-width:32;stroke-miterlimit:10;}
	.st1{fill:none;stroke:#000000;stroke-width:28;stroke-linecap:round;stroke-miterlimit:10;}
</style>
<path class="st0" d="M448.1,256.1c0-106-86-192-192-192s-192,86-192,192s86,192,192,192S448.1,362.1,448.1,256.1z"/>
<path class="st1" d="M300.8,358.3c-20.8,7.4-34,9.6-54.2,9.6c-61.2,0-106.4-50.1-101-111.8S205,144.2,266.1,144.2
	c68.9,0,106.8,45.6,101.5,106.6c-4,45.5-32.8,58.7-47.9,56c-14.2-2.5-25.9-15.5-23.8-40.4l5.6-44.7c-7.6-9.2-28.1-18-49.9-14.5
	c-19.9,3.1-42.7,20.8-45.1,48.8s14.5,50.8,39.9,50.8s47.9-18.4,50.7-50.8"/>
</svg>
