<?xml version="1.0" encoding="utf-8"?>
<!-- Generator: Adobe Illustrator 27.9.6, SVG Export Plug-In . SVG Version: 9.03 Build 54986)  -->
<svg version="1.1" id="Layer_1" xmlns="http://www.w3.org/2000/svg" xmlns:xlink="http://www.w3.org/1999/xlink" x="0px" y="0px"
	 viewBox="0 0 512 512" style="enable-background:new 0 0 512 512;" xml:space="preserve">
<path d="M256.4,480.8c-30.2,0-59.5-5.9-87.2-17.7c-26.7-11.3-50.6-27.4-71.2-48s-36.7-44.5-48-71.2c-11.7-27.7-17.7-56.9-17.7-87.2
	s5.9-59.5,17.7-87.2c11.3-26.7,27.4-50.6,48-71.2s44.5-36.7,71.2-48c27.7-11.7,56.9-17.7,87.2-17.7s59.5,5.9,87.2,17.7
	c26.7,11.3,50.6,27.4,71.2,48s36.7,44.5,48,71.2c11.7,27.7,17.7,56.9,17.7,87.2s-5.9,59.5-17.7,87.2c-11.3,26.7-27.4,50.6-48,71.2
	s-44.5,36.7-71.2,48C315.9,474.9,286.6,480.8,256.4,480.8z M256.4,79.1c-47.5,0-92.1,18.5-125.7,52.1s-52.1,78.3-52.1,125.7
	s18.5,92.1,52.1,125.7s78.3,52.1,125.7,52.1s92.1-18.5,125.7-52.1s52.1-78.3,52.1-125.7s-18.5-92.1-52.1-125.7
	S303.9,79.1,256.4,79.1z"/>
<g>
	<path d="M257.7,126.3c75.7,0,126.9,47.5,126.9,117.4c0,48.8-24.3,78.9-64.8,78.9c-20.5,0-35-8.3-40.4-22.9h-3.2
		c-6.2,15.5-17.4,23.4-35.3,23.4c-32.5,0-53.8-26.4-53.8-65.9c0-37.9,20.1-62.8,50.5-62.8c17,0,30,7.6,36.1,21.9h3.4v-0.9
		c0-13.6,7.3-21.1,20.6-21.1c13.5,0,20.8,7.5,20.8,21.1v56.2c0,11.4,4.3,18,12.2,18c11.9,0,19.1-16,19.1-40.4
		c0-56-35.7-91.8-91.8-91.8c-58.7,0-99.7,40.1-99.7,100.1c0,59.7,41.7,98.8,107.4,98.8c7.6,0,12.7-0.3,17-0.6
		c2.9-0.1,5.6-0.3,8.7-0.3c11.3,0,16,5.6,16,14.1c0,7.5-3.1,11.4-9.7,14.2c-6.7,2.8-17,3.9-36.5,3.9c-82.8,0-138.3-52-138.3-130.7
		C122.8,179.7,178.1,126.3,257.7,126.3z M272.7,258.8c0-18.3-7.5-29.3-19.5-29.3c-12.2,0-19.5,11-19.5,29.3
		c0,18.1,7.2,28.7,19.5,28.7C265.4,287.6,272.7,277,272.7,258.8z"/>
</g>
</svg>
