<?xml version="1.0" encoding="utf-8"?>
<!-- Generator: Adobe Illustrator 27.9.6, SVG Export Plug-In . SVG Version: 9.03 Build 54986)  -->
<svg version="1.1" id="Layer_1" xmlns="http://www.w3.org/2000/svg" xmlns:xlink="http://www.w3.org/1999/xlink" x="0px" y="0px"
	 viewBox="0 0 512 512" style="enable-background:new 0 0 512 512;" xml:space="preserve">
<style type="text/css">
	.st0{fill:#00FF00;}
	.st1{fill:#111111;}
</style>
<g>
	<circle class="st0" cx="256.4" cy="256.9" r="186.6"/>
	<path class="st1" d="M256.4,464.9c-28.1,0-55.3-5.5-81-16.4c-24.8-10.5-47-25.5-66.1-44.6c-19.1-19.1-34.1-41.3-44.6-66.1
		c-10.9-25.7-16.4-52.9-16.4-81s5.5-55.3,16.4-81c10.5-24.8,25.5-47,44.6-66.1s41.3-34.1,66.1-44.6c25.7-10.9,52.9-16.4,81-16.4
		s55.3,5.5,81,16.4c24.8,10.5,47,25.5,66.1,44.6c19.1,19.1,34.1,41.3,44.6,66.1c10.9,25.7,16.4,52.9,16.4,81s-5.5,55.3-16.4,81
		c-10.5,24.8-25.5,47-44.6,66.1c-19.1,19.1-41.3,34.1-66.1,44.6C311.7,459.4,284.5,464.9,256.4,464.9z M256.4,91.7
		c-44.1,0-85.6,17.2-116.8,48.4s-48.4,72.7-48.4,116.8c0,44.1,17.2,85.6,48.4,116.8c31.2,31.2,72.7,48.4,116.8,48.4
		c44.1,0,85.6-17.2,116.8-48.4c31.2-31.2,48.4-72.7,48.4-116.8c0-44.1-17.2-85.6-48.4-116.8C342,108.9,300.5,91.7,256.4,91.7z"/>
</g>
<g>
	<path class="st1" d="M257.6,135.6c70.3,0,117.9,44.1,117.9,109.1c0,45.3-22.6,73.3-60.2,73.3c-19,0-32.5-7.7-37.5-21.3h-3
		c-5.8,14.4-16.2,21.7-32.8,21.7c-30.2,0-50-24.5-50-61.2c0-35.2,18.7-58.3,46.9-58.3c15.8,0,27.9,7.1,33.5,20.3h3.2v-0.8
		c0-12.6,6.8-19.6,19.1-19.6c12.5,0,19.3,7,19.3,19.6v52.2c0,10.6,4,16.7,11.3,16.7c11.1,0,17.7-14.9,17.7-37.5
		c0-52-33.2-85.3-85.3-85.3c-54.5,0-92.6,37.3-92.6,93c0,55.5,38.7,91.8,99.8,91.8c7.1,0,11.8-0.3,15.8-0.6c2.7-0.1,5.2-0.3,8.1-0.3
		c10.5,0,14.9,5.2,14.9,13.1c0,7-2.9,10.6-9,13.2c-6.2,2.6-15.8,3.6-33.9,3.6c-76.9,0-128.5-48.3-128.5-121.4
		C132.3,185.2,183.7,135.6,257.6,135.6z M271.5,258.7c0-17-7-27.2-18.1-27.2c-11.3,0-18.1,10.2-18.1,27.2c0,16.8,6.7,26.7,18.1,26.7
		C264.8,285.4,271.5,275.6,271.5,258.7z"/>
</g>
</svg>
