<?xml version="1.0" encoding="utf-8"?>
<!-- Generator: Adobe Illustrator 27.9.6, SVG Export Plug-In . SVG Version: 9.03 Build 54986)  -->
<svg version="1.1" id="Layer_1" xmlns="http://www.w3.org/2000/svg" xmlns:xlink="http://www.w3.org/1999/xlink" x="0px" y="0px"
	 viewBox="0 0 512 512" style="enable-background:new 0 0 512 512;" xml:space="preserve">
<style type="text/css">
	.st0{fill:#80ffff;}
</style>
<g>
	<path class="st0" d="M454,207.4c-9.3-43.9-34.1-83.9-69.7-112.6c-36.4-29.2-81.7-45-128.4-45c-55,0-106.4,21.2-144.8,59.7
		c-37.1,37.2-57.5,86.4-57.3,138.4c0,38.1,11.2,75.4,32.2,107.3l3.9,5.5l-21.7,93.8l103.7-25.8c0,0,2.1,0.7,3.6,1.3
		c1.5,0.6,14.7,5.7,28.8,9.6c11.7,3.3,35.9,8.1,54.9,8.1c53.9,0,104.2-20.9,141.7-58.8c37.1-37.6,57.6-87.6,57.6-140.8
		C458.3,234.3,456.9,220.7,454,207.4z"/>
	<path d="M39,483.9l27.5-118.8C43.9,330.1,32,289.6,32,247.9c-0.2-57.8,22.4-112.4,63.6-153.8c42.5-42.6,99.4-66.1,160.2-66.1
		c0,0,0.1,0,0.1,0c51.4,0,101.7,17.7,141.9,49.8c39.6,31.8,67,76.2,77.4,125c3.2,14.8,4.8,30,4.8,45.2c0,58.9-22.7,114.4-63.8,156
		c-41.6,42.1-97.4,65.2-157.1,65.2c-22.7,0-49.7-5.8-60.7-8.9c-11.2-3.1-21.8-6.9-27.7-9.1L39,483.9z M172.7,406l6,2
		c0.3,0.1,2.6,0.9,4.5,1.6c3.3,1.3,14.9,5.6,26.9,8.9c10.1,2.8,32.4,7.3,49.1,7.3c48,0,92.9-18.6,126.2-52.3
		c33.1-33.5,51.3-78.1,51.3-125.6c0-12.1-1.3-24.2-3.8-36.1l0-0.1c-8.3-39.1-30.4-74.7-62.1-100.2c-32.4-25.9-73.2-40.2-114.7-40.2
		c0,0-0.1,0-0.1,0c-49.2,0-95.2,18.9-129.5,53.3c-33,33.1-51.1,76.8-51,123.1c0,33.9,9.8,66.8,28.4,95l9.4,13.1l-15.9,68.9
		L172.7,406z"/>
</g>
</svg>
