<?xml version="1.0" encoding="utf-8"?>
<!DOCTYPE svg PUBLIC "-//W3C//DTD SVG 1.1//EN" "http://www.w3.org/Graphics/SVG/1.1/DTD/svg11.dtd">
<svg version="1.1" id="Layer_1" xmlns="http://www.w3.org/2000/svg" x="0px" y="0px"
     width="780px" height="500px" viewBox="210 350 780 500" enable-background="new 210 350 780 500" xml:space="preserve">
<g>
	<path d="M830.479,490.605H798.67l-67.523,124.99h83.041v9.434h-88.139l-1.094,2.025l-0.902-2.025h-1.309l-51.328,35.183
		l1.148-35.183H385.811v-9.434h287.062l0.59-18.112l-2.064-0.108l2.201-4.073l0.057-1.714l0.846,0.045l16.992-31.457H476.313
		v-37.733h235.565l17.199-31.837H369.521c-4.978,0-9.05,3.979-9.05,8.844v233.474c0,4.864,4.073,8.844,9.05,8.844h460.958
		c4.979,0,9.051-3.979,9.051-8.844V499.449C839.529,494.584,835.457,490.605,830.479,490.605L830.479,490.605z M812.982,726.437
		H627.15v-9.434h185.832V726.437z M672.188,695.819c3.688-5.424,8.48-9.232,14.684-11.76c2.844-1.159,5.047,3.033,2.936,4.927
		c-4.225,3.784-8.592,7.39-13.086,10.835c-0.947,1.694-2.205,3.748-2.158,5.698c0.076,3.14,6.051,1.44,7.416,1.054
		c7.977-2.259,14.578-6.448,19.971-12.613c1.959-2.239,5.984,0.13,5.041,2.868c-0.365,1.065-0.732,2.13-1.1,3.196
		c0.697-0.447,1.266-1.121,1.691-2.053c1.182-2.105,5.061-1.859,5.514,0.704c0.896,5.077,7.08,9.317,12.131,6.167
		c3.234-2.018,5.922-2.521,9.082-0.16c6.369,4.756,11.533-1.826,17.027-4.445c3.789-1.805,7.047-2.611,11.207-1.74
		c3.803,0.796,2.189,6.479-1.604,5.686c-6.889-1.441-13.469,6.434-20.049,8.032c-5.607,1.363-9.154-3.212-14.541-1.36
		c-6.49,2.232-13.791-0.486-17.246-5.949c-2.348,1.477-5.23,1.924-8.346,1.307c-0.76-0.149-1.398-0.679-1.795-1.349
		c-3.1,2.327-6.492,4.269-10.164,5.666c-5.498,2.094-13.383,4.999-18.445,0.751c-1.566-1.314-2.062-3.27-1.961-5.378
		c-3.564,2.479-7.197,4.866-10.918,7.142c-2.693,1.647-5.455-1.523-4.127-4.033c5.68-10.738,9.607-22.138,13.457-33.594
		c1.207-3.594,7.035-2.055,5.818,1.568c-2.871,8.543-5.818,17.051-9.426,25.302C666.256,700.21,669.248,698.05,672.188,695.819
		L672.188,695.819z M812.982,669.837H384.604v-9.434h428.378V669.837z"/>
	<path d="M808.322,459.053l11.549-21.376c6.352-11.758,1.705-26.455-10.326-32.662c-12.033-6.207-27.074-1.666-33.426,10.092
		l-11.549,21.376L808.322,459.053z"/>
	<path d="M697.893,594.094l3.879,12.267l17.6-2.736l4.902,11.01l80.67-149.324l-43.754-22.57l-81.26,150.417L697.893,594.094z"/>
	<path d="M715.703,610.165l-18.15,2.821l-4.182-13.226l-15.088-0.786l-1.658,50.816l43.459-29.79L715.703,610.165z"/>
	<path d="M701.146,591.772l-6.404-3.304l73.799-136.604l6.402,3.303L701.146,591.772z"/>
	<path d="M719.287,601.13l-6.402-3.303l73.797-136.604l6.404,3.303L719.287,601.13z"/>
</g>
</svg>
