<?xml version="1.0" encoding="utf-8"?>
<!-- Generator: Adobe Illustrator 27.9.6, SVG Export Plug-In . SVG Version: 9.03 Build 54986)  -->
<svg version="1.1" id="Layer_1" xmlns="http://www.w3.org/2000/svg" xmlns:xlink="http://www.w3.org/1999/xlink" x="0px" y="0px"
	 viewBox="0 0 262 262" style="enable-background:new 0 0 262 262;" xml:space="preserve">
<style type="text/css">
	.st0{fill:#000033;}
	.st1{fill:#00FF00;}
</style>
<path class="st0" d="M240.9,126V21h-110v0C70.2,21.1,21,70.3,21,131c0,60.8,49.2,110,110,110s110-49.2,110-110
	C241,129.3,241,127.7,240.9,126z"/>
<path class="st1" d="M126.8,179.7c0,0-42-75-42.9-76.8c-0.1-0.2,0-0.5,0.2-0.6c0.1,0,0.1,0,0.2,0c3.4,0,23.4,0,25.6,0.3l21.1,46.5
	L201.6,36c0,0,2.8-5.5,5.4-5.5c4.6,0,18.9,0.3,23.3,0.3c4.6,0-1.9,9.6-1.9,9.6l-88.6,134.2c-0.5,0.9-5.7,7.9-7.9,7.9
	C129.4,182.6,126.9,179.9,126.8,179.7z"/>
<path class="st1" d="M131.2,220.9c-49.6,0-90-40.4-90-90c0-49.6,40.4-90,90-90c13,0,25.8,2.8,37.9,8.3c5,2.3,7.2,8.2,4.9,13.2
	s-8.2,7.2-13.2,4.9c-9.5-4.3-19.4-6.5-29.5-6.5c-38.6,0-70,31.4-70,70s31.4,70,70,70c38.6,0,70-31.4,70-70c0-7.4-1.1-14.5-3.3-21.3
	c-1.7-5.3,1.2-10.9,6.4-12.6c5.2-1.7,10.9,1.2,12.6,6.4c2.8,8.8,4.3,18,4.3,27.5C221.2,180.5,180.8,220.9,131.2,220.9z"/>
</svg>
