<?xml version="1.0" encoding="utf-8"?>
<!-- Generator: Adobe Illustrator 27.9.6, SVG Export Plug-In . SVG Version: 9.03 Build 54986)  -->
<svg version="1.1" id="Layer_1" xmlns="http://www.w3.org/2000/svg" xmlns:xlink="http://www.w3.org/1999/xlink" x="0px" y="0px"
	 viewBox="0 0 512 512" style="enable-background:new 0 0 512 512;" xml:space="preserve">
<style type="text/css">
	.st0{fill:#112233;}
	.st1{fill:#80ffff;}
</style>
<path class="st0" d="M463.8,246.5V48h-208l0,0C141,48.2,48,141.2,48,256c0,115,93,208,208,208s208-93,208-208
	C464,252.8,464,249.8,463.8,246.5z"/>
<path class="st1" d="M248.1,348.1c0,0-79.4-141.8-81.1-145.2c-0.2-0.4,0-0.9,0.4-1.1c0.2,0,0.2,0,0.4,0c6.4,0,44.2,0,48.4,0.6
	l39.9,87.9L389.5,76.4c0,0,5.3-10.4,10.2-10.4c8.7,0,35.7,0.6,44.1,0.6c8.7,0-3.6,18.2-3.6,18.2L272.6,338.4
	c-0.9,1.7-10.8,14.9-14.9,14.9C253,353.6,248.2,348.5,248.1,348.1z"/>
<path class="st1" d="M256.4,426c-93.8,0-170.2-76.4-170.2-170.2S162.6,85.6,256.4,85.6c24.6,0,48.8,5.3,71.7,15.7
	c9.5,4.3,13.6,15.5,9.3,25s-15.5,13.6-25,9.3c-18-8.1-36.7-12.3-55.8-12.3c-73,0-132.4,59.4-132.4,132.4S183.6,388,256.6,388
	s132.4-59.4,132.4-132.4c0-14-2.1-27.4-6.2-40.3c-3.2-10,2.3-20.6,12.1-23.8c9.8-3.2,20.6,2.3,23.8,12.1c5.3,16.6,8.1,34,8.1,52
	C426.6,349.6,350.2,426,256.4,426z"/>
</svg>
