<?xml version="1.0" encoding="utf-8"?>
<!-- Generator: Adobe Illustrator 26.2.1, SVG Export Plug-In . SVG Version: 6.00 Build 0)  -->
<svg version="1.1" id="Layer_1" xmlns="http://www.w3.org/2000/svg" xmlns:xlink="http://www.w3.org/1999/xlink" x="0px" y="0px"
	 viewBox="0 0 931.2 280" style="enable-background:new 0 0 931.2 280;" xml:space="preserve">
<style type="text/css">
	.st0{fill:#FFFFFF;}
	.st1{fill:#005DAA;}
	.st2{fill:#E31837;}
</style>
<path class="st0" d="M912.7,65.9c-15.8-19.1-43.6-30.1-76.3-30.1c-34.6,0-65.8,11.8-87.4,30.9l3.5-22.1l-9.4-2.8
	c-13.2-3.9-28-6-42.5-6c-25.1,0-49,7.7-68.4,20.5l5.6-18.4H487.9l-1.8,5.9c-13.3-5.4-28-8-44.5-8c-30.9,0-64.3,12-81.6,35
	c-1.1-1.7-2.3-3.4-3.6-5c-15.8-19.1-43.6-30.1-76.3-30.1c-33.6,0-64,11.1-85.5,29.2l8.4-50.9l-9.5-2.7c-16.2-4.7-34.3-7.2-52.2-7.2
	C75.7,4.2,15.9,46,5.2,99.3c-4.5,22.7,0.8,44.6,14.9,61.8c12,14.7,29.8,25.1,50.9,30.5H5.9v83.2h331.5l0.5-1l0.1,1h39.9l5.4-8.8
	l-1.7,8.8h90.2l1.3-7c7.9,5.1,18.2,7.9,30.1,7.9c10.6,0,20.4-2.2,28.9-6.1l-1,5.1h126.5l0.2-1.1c5.9,1.3,12,2.1,17.9,2.1
	c3.6,0,7.3-0.3,10.9-1h48.2l3.6-7.6h3.2l1,7.6h148.7l7.4-38.9H896l1-5.4h1.9l7.4-38.9h-4.1c3.4-3,5.8-6.9,6.6-11.4
	c1-5.3-0.4-10.6-3.8-14.7c-0.9-1.1-1.9-2-3-2.8c11.8-12.1,20-26.8,23.2-43.3C929.3,99.2,924.9,80.7,912.7,65.9L912.7,65.9z
	 M826.6,232.9h-4.6l6.9-36.2c1.6-0.2,3.1-0.4,4.7-0.7L826.6,232.9z M720.2,115.2c-0.5,2.4-0.8,4.8-1,7.2c-10,6.7-19.4,9.9-29.5,9.9
	c-6.8,0-12.7-2.2-15.8-5.9c-1.7-2.1-2.3-4.5-1.8-7.2c1.8-9.3,14.4-17.4,26.9-17.4c7.8,0,15.2,2.8,22.5,8.5
	C721,111.8,720.5,113.4,720.2,115.2z M730.4,191.6l-4.9,8.1l-4.1-2.3c-2.7-1.5-5.6-2.7-8.5-3.7c2.2-0.5,4.2-1.1,6-1.7l5.7-2.1
	l5.6-24.6c0.8,1.1,1.5,2.1,2.3,3.2c8.5,10.3,20.7,18.1,35.4,23.1L730.4,191.6z M780,195l-1.9,10.2l-2.7-11.4
	C776.9,194.2,778.4,194.6,780,195z M827.8,102.7c6.1,0,10.8,1.6,13.3,4.6c2.2,2.7,2.2,6.2,1.7,8.6c-1.9,10-12.2,17-25.1,17
	c-6.2,0-11.2-1.6-13.5-4.5c-1.6-2-2.1-4.8-1.4-8.3C804.3,111.5,813.4,102.7,827.8,102.7z M545.5,199c-1.8-1.2-3.7-2.2-5.7-3.2h6.3
	L545.5,199z M511,232.9c-0.8,0.7-2.1,1.2-3.7,1.3C508.1,233.6,509.3,233,511,232.9z M501.2,103.6l-7.4,24.5
	c-0.5-6.5-2.5-12.5-6.1-17.8c-1.5-2.2-3.2-4.1-5.2-6L501.2,103.6z M286.4,115.9c-1.9,10-12.3,17-25.1,17c-6.2,0-11.2-1.6-13.5-4.5
	c-1.6-2-2.1-4.8-1.4-8.3c1.7-8.7,10.8-17.4,25.2-17.4c6.1,0,10.8,1.6,13.3,4.6C287,110,286.9,113.5,286.4,115.9L286.4,115.9z
	 M372.4,195.5l-0.2,0.5l0-0.6C372.2,195.5,372.3,195.5,372.4,195.5L372.4,195.5z M483.2,162.9l-8.7,28.6h-33.4
	C458.2,185.9,473.5,176.5,483.2,162.9z M486.8,195.9h1.9c-0.7,0.3-1.4,0.6-2,0.9L486.8,195.9z M127.7,120.7
	c-9.5,0-17.8-3.1-22.1-8.4c-2.5-3-3.3-6.4-2.6-10.3c2.5-12.5,19.1-23,36.3-23c11.6,0,22.3,4.4,32.8,13.2c-2.8,5.2-5,10.6-6.6,16.3
	C152.8,116.8,140.7,120.7,127.7,120.7z M324,179.7l10.8,4.9c6,2.7,12.7,5,19.6,6.9h-20.2l-2.2,4.3l-0.3-4.3H297
	C306.8,188.6,315.8,184.6,324,179.7L324,179.7z M588.3,232.9l7.9-41.4H558l26.8-88.2l8.2,0.3c-1.5,4-2.8,8.1-3.6,12.4
	c-3.8,19.7,0.8,38.7,13,53.5c8.1,9.8,19.1,17.2,32,22h-33.6l-7.9,41.4L588.3,232.9z M163,188.5l5.8-2l5-21.4
	c0.8,1.1,1.6,2.3,2.4,3.3c8.5,10.3,20.7,18.1,35.4,23.1h-60.9C155.3,190.7,159.6,189.7,163,188.5z M853.3,191.6
	c4.9-1.5,9.7-3.3,14.3-5.3c0.7,1.6,1.5,3.2,2.6,4.5c0.2,0.3,0.6,0.5,0.8,0.8L853.3,191.6z"/>
<path class="st1" d="M321.4,202.7l2.3,36.4h0.6c1.2-3.7,2.5-7.6,4.4-11.2l12.5-25.1h20.4l3.1,36.4h0.6c1.1-3.6,2.3-7.3,3.9-10.8
	l12.2-25.6H409l-37.4,60.9h-23.2l-2-33.1h-0.9c-0.9,3.2-1.7,6.2-3.1,9.2l-11.9,23.9h-22.6l-14-60.9H321.4z"/>
<path class="st1" d="M407.1,202.7h25.6l-3.9,20.5h16.3l3.9-20.5h25.6L463,263.7h-25.6l4-21.2h-16.3l-4,21.2h-25.6L407.1,202.7z"/>
<path class="st1" d="M549.6,233.3c-3.7,19.6-24.1,31.3-46.4,31.3c-22.3,0-38.2-11.7-34.5-31.3c3.6-19.2,24.2-31.6,46.5-31.6
	C537.4,201.7,553.2,214.2,549.6,233.3z M495.4,233.7c-1.3,6.9,3.4,11.7,11.4,11.7c8.1,0,14.6-4.8,15.9-11.7
	c1.2-6.5-3-11.9-11.4-11.9C502.9,221.8,496.6,227.2,495.4,233.7z M555.4,202.7H582l-7.9,41.4h22.3l-3.7,19.6h-48.9L555.4,202.7z
	 M659.3,241.8l1.2,0.9c4.2,3.1,9.4,5.6,15.5,5.6c2.6,0,7-0.9,7.5-3.6c0.5-2.7-2.9-3-5.3-3.4l-5.2-0.8c-10.1-1.5-17.8-6.6-16-16.2
	c2.8-14.5,20.1-22.6,36-22.6c8.3,0,15.7,1.7,22.2,5.3l-10.1,15.6c-4.1-2.6-8.8-4.6-14.6-4.6c-2.3,0-5.9,0.7-6.3,3.2
	c-0.4,2.3,2.8,2.6,4.8,3l5.8,1.1c10.8,2.1,18,7.1,16.1,17.5c-2.8,14.6-20,21.7-35.9,21.7c-9.2,0-19.5-2.1-27.1-5.6L659.3,241.8z"/>
<path class="st1" d="M750.6,241.6l-1.1-10.8c-0.3-2.6-0.3-5.3-0.3-7.8h-1l-8.4,18.6L750.6,241.6z M727.5,263.7h-28.1l37-60.9h29.4
	l14.5,60.9h-28.1l-1-7.6h-20.1L727.5,263.7z"/>
<path class="st1" d="M789.6,202.7h26.6l-7.9,41.4h22.3l-3.7,19.6h-48.9L789.6,202.7z M843.5,202.7h49.2l-3.2,16.7h-22.4l-1.1,5.8
	h20.5l-3,15.8h-20.5l-1.1,6H885l-3.2,16.6h-50L843.5,202.7z"/>
<g>
	<path class="st2" d="M482.8,93.2l33.6-1.3l-28.2,92.8h60.2l28.1-92.8l32.8,1.3l13.4-44.1H496.2L482.8,93.2z M358.2,117.3
		c-8.4,43.5-54.6,69.6-105.1,69.6c-50.5,0-86.6-26.1-78.2-69.6C183.1,74.6,229.8,47,280.1,47C330.4,47,366.4,74.7,358.2,117.3z
		 M235.4,118c-3,15.5,7.7,26.1,25.9,26.1c18.2,0,33-10.6,36-26.1c2.8-14.4-6.8-26.4-25.9-26.4C252.4,91.6,238.2,103.6,235.4,118z"/>
	<path class="st2" d="M339.4,174.5c17.2,7.7,40.5,12.4,61.3,12.4c35.8,0,75-16,81.2-48.4c4.5-23-11.8-34.2-36.4-38.8l-13.1-2.5
		c-4.4-0.9-11.8-1.6-10.8-6.7c1.1-5.6,9.1-7.2,14.4-7.2c13,0,23.7,4.5,33,10.3l23-34.7C477.2,50.7,460.6,47,441.7,47
		c-36,0-75.3,18-81.6,50.2c-4.1,21.2,13.5,32.5,36.3,36l11.7,1.8c5.3,0.9,13.1,1.4,11.9,7.6c-1.2,6.1-11,8.1-17,8.1
		c-13.8,0-25.7-5.6-35.2-12.4l-2.7-2L339.4,174.5z M740,52.5c-12-3.6-25.7-5.6-39.4-5.6c-48.6,0-92.7,31.6-100.4,71.2
		c-7.5,38.7,23.6,68.7,70.9,68.7c10.8,0,33.5-1.6,43.9-5.4l11.6-50.7c-11.2,7.7-23.1,12.6-36.9,12.6c-18,0-31.4-11.5-28.5-26.4
		C664,102.2,681,90.5,699,90.5c13.6,0,24.5,6.3,32.7,13.7L740,52.5z M836.4,47c-50.3,0-97,27.7-105.2,70.3
		c-8.4,43.5,27.6,69.6,78.2,69.6c50.5,0,96.7-26.1,105.1-69.6C922.6,74.7,886.7,47,836.4,47L836.4,47z M827.8,91.6
		c19.1,0,28.7,12,25.9,26.4c-3,15.5-17.8,26.1-36,26.1c-18.2,0-28.9-10.6-25.9-26.1C794.4,103.6,808.6,91.6,827.8,91.6z M190.4,22.1
		c-15-4.3-32.1-6.7-49.1-6.7c-60.6,0-115.6,38.3-125.2,86.1c-9.3,46.7,29.5,83,88.4,83c13.4,0,41.8-2,54.7-6.5l14.4-61.3
		c-13.9,9.3-28.8,15.2-46.1,15.2c-22.5,0-39.2-13.9-35.6-32c3.6-17.8,24.7-32,47.2-32c17,0,30.5,7.6,40.8,16.5L190.4,22.1z"/>
	<path class="st2" d="M877.4,178.1c0.9-4.7,6.2-8.5,11.9-8.5c5.7,0,9.6,3.8,8.7,8.5c-0.9,4.8-6.2,8.6-11.9,8.6
		C880.3,186.7,876.5,182.9,877.4,178.1z M895.3,178.1c0.7-3.8-2-6.3-6.4-6.3c-4.5,0-8.1,2.5-8.8,6.3c-0.7,3.8,1.9,6.3,6.4,6.3
		C890.9,184.5,894.5,181.9,895.3,178.1z M891.6,182.6h-2.7l-1.7-3.8h-1.7l-0.7,3.8h-2.3l1.7-9h5.2c2.3,0,3.5,0.6,3.1,2.7
		c-0.3,1.5-1.5,2.3-2.9,2.4L891.6,182.6z M888.3,177.1c1.1,0,2.1,0,2.3-1c0.1-0.8-0.8-0.8-2-0.8h-2.4l-0.3,1.7H888.3z"/>
</g>
<path class="st1" d="M20.4,263.8h281.8l0-0.1h-0.2l-3.6-15.5h-278L20.4,263.8z M20.4,241.6h276.5l-3.6-15.6H20.4V241.6z M20.4,219.4
	h271.3l-1.2-5.7l-2.5-10.8H20.4V219.4z M609.2,202.7h49.2l-3.2,16.7h-22.4l-1.1,5.8h20.5l-3,15.8h-20.5l-1.1,6h23.2l-3.2,16.6h-50
	L609.2,202.7z"/>
</svg>
