<?xml version="1.0" encoding="utf-8"?>
<!-- Generator: Adobe Illustrator 27.9.6, SVG Export Plug-In . SVG Version: 9.03 Build 54986)  -->
<svg version="1.1" id="Layer_1" xmlns="http://www.w3.org/2000/svg" xmlns:xlink="http://www.w3.org/1999/xlink" x="0px" y="0px"
	 viewBox="0 0 262 262" style="enable-background:new 0 0 262 262;" xml:space="preserve">
<style type="text/css">
	.st0{fill:#000033;}
	.st1{fill:#00FF00;}
</style>
<path class="st0" d="M240.9,126V21h-110l0,0C70.2,21.1,21,70.3,21,131c0,60.8,49.2,110,110,110s110-49.2,110-110
	C241,129.3,241,127.7,240.9,126z"/>
<path class="st1" d="M126.8,179.7c0,0-42-75-42.9-76.8c-0.1-0.2,0-0.5,0.2-0.6c0.1,0,0.1,0,0.2,0c3.4,0,23.4,0,25.6,0.3l21.1,46.5
	L201.6,36c0,0,2.8-5.5,5.4-5.5c4.6,0,18.9,0.3,23.3,0.3c4.6,0-1.9,9.6-1.9,9.6l-88.6,134.2c-0.5,0.9-5.7,7.9-7.9,7.9
	C129.4,182.6,126.9,179.9,126.8,179.7z"/>
</svg>
