<?xml version="1.0" encoding="utf-8"?>
<!-- Generator: Adobe Illustrator 27.9.6, SVG Export Plug-In . SVG Version: 9.03 Build 54986)  -->
<svg version="1.1" id="Layer_1" xmlns="http://www.w3.org/2000/svg" xmlns:xlink="http://www.w3.org/1999/xlink" x="0px" y="0px"
	 viewBox="0 0 512 512" style="enable-background:new 0 0 512 512;" xml:space="preserve">
<style type="text/css">
	.st0{fill:#757575;}
</style>
<path class="st0" d="M414.4,97.7c-87-87.9-228.9-88.6-316.8-1.6S9,325.1,96.1,413c0.5,0.5,1,1,1.6,1.6c87,87.9,228.9,88.6,316.8,1.6
	s88.6-228.9,1.6-316.8C415.4,98.8,414.9,98.3,414.4,97.7z M64,256.1c0-17,2.2-33.9,6.7-50.3c7.3,15.8,18,29.4,25.2,45.7
	c9.4,20.8,34.5,15.1,45.6,33.3c9.9,16.2-0.7,36.7,6.7,53.7c5.4,12.3,18,15,26.7,24c8.9,9.1,8.7,21.5,10.1,33.4
	c1.5,13.9,4,27.7,7.4,41.3c0,0.1,0,0.2,0.1,0.3C117.8,411.1,64,339.8,64,256.1z M256,448.1c-10.7,0-21.4-0.9-32-2.7
	c0.1-2.7,0.2-5.2,0.4-7c2.4-15.9,10.4-31.5,21.1-43.4c10.6-11.7,25.1-19.7,34.1-33c8.8-13,11.4-30.5,7.8-45.7
	c-5.3-22.4-35.8-29.9-52.3-42.1c-9.4-7-17.9-17.8-30.3-18.7c-5.7-0.4-10.5,0.8-16.2-0.6c-5.2-1.4-9.3-4.1-14.8-3.4
	c-10.4,1.4-16.9,12.4-28,10.9c-10.6-1.4-21.4-13.8-23.8-23.8c-3.1-12.9,7.1-17.1,18.1-18.3c4.6-0.5,9.7-1,14.1,0.7
	c5.8,2.1,8.5,7.8,13.7,10.7c9.7,5.3,11.7-3.2,10.2-11.8c-2.2-12.9-4.8-18.2,6.7-27.1c8-6.1,14.8-10.6,13.6-21.6
	c-0.8-6.5-4.3-9.4-1-15.9c2.5-4.9,9.4-9.3,13.9-12.3c11.6-7.6,49.7-7,34.1-28.2c-4.6-6.2-13-17.3-21-18.8
	c-10-1.9-14.4,9.3-21.4,14.2c-7.2,5.1-21.2,10.9-28.4,3c-9.7-10.6,6.4-14.1,10-21.5c1.6-3.4,0-8.2-2.8-12.8c3.6-1.5,7.3-2.9,11-4.2
	c2.3,1.7,5.1,2.8,8,3c6.7,0.4,13-3.2,18.8,1.4c6.5,5,11.1,11.3,19.8,12.9c8.3,1.5,17.1-3.3,19.2-11.9c1.2-5.2,0-10.7-1.2-16
	c37.4,0.2,73.9,11.4,105,32.2c-2-0.8-4.4-0.7-7.3,0.7c-6.1,2.8-14.7,10-15.4,17.1c-0.8,8.1,11.1,9.2,16.8,9.2
	c8.5,0,17.1-3.8,14.4-13.6c-1.2-4.3-2.8-8.7-5.4-11.4c6.3,4.4,12.3,9.1,18,14.1c-0.1,0.1-0.2,0.2-0.3,0.3c-5.8,6-12.5,10.8-16.4,18
	c-2.8,5.1-5.9,7.6-11.5,8.9c-3.1,0.7-6.6,1-9.2,3.1c-7.2,5.7-3.1,19.4,3.7,23.5c8.7,5.2,21.5,2.8,28.1-4.7
	c5.1-5.8,8.1-15.9,17.3-15.9c4,0,7.9,1.6,10.8,4.4c3.8,3.9,3,7.6,3.9,12.5c1.4,8.7,9.1,4,13.8-0.4c3.4,6.1,6.5,12.4,9.2,18.8
	c-5.2,7.4-9.3,15.5-21.7,6.9c-7.4-5.2-12-12.7-21.3-15.1c-8.1-2-16.5,0.1-24.5,1.5c-9.1,1.6-20,2.3-26.9,9.2
	c-6.7,6.7-10.3,15.6-17.4,22.3c-13.8,13-19.6,27.2-10.7,45.6c8.6,17.7,26.6,27.3,46,26c19.1-1.3,38.9-12.3,38.3,15.4
	c-0.2,9.8,1.9,16.6,4.9,25.7c2.8,8.4,2.6,16.5,3.2,25.2c0.6,10.2,2.2,20.2,4.7,30.1C371.1,420.8,315.2,448.1,256,448.1z"/>
</svg>
