<?xml version="1.0" encoding="utf-8"?>
<!-- Generator: Adobe Illustrator 27.9.6, SVG Export Plug-In . SVG Version: 9.03 Build 54986)  -->
<svg version="1.1" id="Layer_1" xmlns="http://www.w3.org/2000/svg" xmlns:xlink="http://www.w3.org/1999/xlink" x="0px" y="0px"
	 viewBox="0 0 1646 708.6" style="enable-background:new 0 0 1646 708.6;" xml:space="preserve">
<style type="text/css">
	.st0{fill:#00FF00;stroke:#111111;stroke-width:72;stroke-miterlimit:10;}
	.st1{fill:#111111;stroke:#111111;stroke-miterlimit:10;}
	.st2{fill:#111111;}
</style>
<circle class="st0" cx="1292" cy="355.6" r="314.1"/>
<g>
	<path class="st1" d="M1159.8,492.6c-4.2-8.1-6.6-16.6-6.6-25.1c0-24.9,15.1-39.6,41-39.6c18.6,0,31,5.6,43.7,19.5
		c14.6,16.4,28.6,27.8,53.7,27.8c29.3,0,51.3-21.5,51.3-49.8c0-28.1-20.8-47.6-50.3-47.6c-17.8,0-30.8,8.8-41,17.1
		c-12.9,10.5-23.9,15.6-45.9,15.6c-34.4,0-49.8-23.7-47.9-50.8l8.3-118.9c2.4-34.7,22-49.1,53.2-49.1h161.9
		c24.2,0,39.6,15.1,39.6,39.1s-15.1,39.1-39.6,39.1h-130.9l-5.4,80.1h2c12.9-23.7,41.5-40,78.9-40c66.4,0,114,46.6,114,113
		c0,79.6-60.1,130.9-147,130.9C1232.6,553.9,1178.1,527.3,1159.8,492.6z"/>
</g>
<g>
	<path class="st2" d="M4.9,587.2V168.1c0-52,28.1-81.2,78.1-81.2s78.1,29.3,78.1,81.6v145.3h3.1c21.5-60.5,68.8-93.4,134.4-93.4
		c96.9,0,149.2,60.2,149.2,163.7v203.1c0,56.6-33.2,82.8-80.1,82.8s-80.1-26.2-80.1-82.8V419.6c0-43.4-21.1-69.9-61.3-69.9
		c-39.8,0-61.3,29.3-61.3,69.5v168c0,56.6-33.2,82.8-80.1,82.8S4.9,643.9,4.9,587.2z"/>
	<path class="st2" d="M506.4,587.2V302.1c0-52.7,29.3-82.8,80.1-82.8s80.1,30.5,80.1,83.2v284.8c0,52.7-29.3,82.8-80.1,82.8
		S506.4,639.9,506.4,587.2z M506.8,117.7c0-43,34.4-75.8,79.7-75.8s79.7,32.8,79.7,75.8s-34.4,75.8-79.7,75.8
		S506.8,160.7,506.8,117.7z"/>
	<path class="st2" d="M726.8,587.2V302.1c0-52.7,29.3-82.8,80.1-82.8s80.1,30.5,80.1,83.2v284.8c0,52.7-29.3,82.8-80.1,82.8
		S726.8,639.9,726.8,587.2z M727.1,117.7c0-43,34.4-75.8,79.7-75.8s79.7,32.8,79.7,75.8s-34.4,75.8-79.7,75.8
		S727.1,160.7,727.1,117.7z"/>
</g>
</svg>
