<?xml version="1.0" encoding="utf-8"?>
<!-- Generator: Adobe Illustrator 27.9.6, SVG Export Plug-In . SVG Version: 9.03 Build 54986)  -->
<svg version="1.1" id="Layer_1" xmlns="http://www.w3.org/2000/svg" xmlns:xlink="http://www.w3.org/1999/xlink" x="0px" y="0px"
	 viewBox="0 0 512 512" style="enable-background:new 0 0 512 512;" xml:space="preserve">
<style type="text/css">
	.st0{fill:#00FF00;}
</style>
<path class="st0" d="M261.6,101.3c-3.1-3-8-3-11.1,0L66.4,277.1c-1.6,1.5-2.5,3.6-2.5,5.8l0,165.1c0,17.7,14.3,32,32,32H192
	c8.8,0,16-7.2,16-16V328c0-4.4,3.6-8,8-8h80c4.4,0,8,3.6,8,8v136c0,8.8,7.2,16,16,16h96.1c17.7,0,32-14.3,32-32V282.9
	c0-2.2-0.9-4.3-2.5-5.8L261.6,101.3z"/>
<path class="st0" d="M490.9,244.1l-74.8-71.6V64c0-8.8-7.2-16-16-16h-48c-8.8,0-16,7.2-16,16v32l-57.9-55.4
	c-5.4-5.5-13.5-8.6-22.2-8.6l0,0c-8.7,0-16.7,3.1-22.1,8.6L21.2,244.1c-6.2,6-7,15.9-1.3,22.4c5.8,6.7,15.9,7.4,22.6,1.6
	c0.2-0.2,0.4-0.4,0.6-0.6L250.5,69.3c3.1-3,8-3,11.1,0l207.5,198.3c6.4,6.1,16.5,5.9,22.6-0.4C497.8,260.8,497.3,250.3,490.9,244.1z
	"/>
</svg>
