<svg xmlns="http://www.w3.org/2000/svg" width="32" height="32" viewBox="0 0 32 32">
  <g fill="none" fill-rule="evenodd">
    <rect width="32" height="32"/>
    <path fill="#FF2457" d="M18.1481672,10.6899204 C19.6790568,9.10335985 22.1611192,9.10335985 23.6920088,10.6899204 C23.7962622,10.797965 23.8934159,10.9105811 23.98347,11.0271461 L24,11.0091118 L24.0170803,11.026434 C24.1069799,10.9101224 24.2039502,10.7977449 24.3079912,10.6899204 C25.8388808,9.10335985 28.3209432,9.10335985 29.8518328,10.6899204 C31.3827224,12.276481 31.3827224,14.848804 29.8518328,16.4353645 L24,22.5 L18.1481672,16.4353645 C16.6172776,14.848804 16.6172776,12.276481 18.1481672,10.6899204 Z" transform="rotate(90 24 16)"/>
    <path fill="#10BFFF" d="M2.14816719,10.6899204 C3.67905678,9.10335985 6.16111921,9.10335985 7.6920088,10.6899204 C7.79626217,10.797965 7.8934159,10.9105811 7.98346999,11.0271461 L8,11.0091118 L8.01708033,11.026434 C8.10697987,10.9101224 8.20395016,10.7977449 8.3079912,10.6899204 C9.83888079,9.10335985 12.3209432,9.10335985 13.8518328,10.6899204 C15.3827224,12.276481 15.3827224,14.848804 13.8518328,16.4353645 L8,22.5 L2.14816719,16.4353645 C0.617277603,14.848804 0.617277603,12.276481 2.14816719,10.6899204 Z" transform="rotate(-90 8 16)"/>
    <path fill="#FFD300" d="M10.1481672,18.6899204 C11.6790568,17.1033599 14.1611192,17.1033599 15.6920088,18.6899204 C15.7962622,18.797965 15.8934159,18.9105811 15.98347,19.0271461 L16,19.0091118 L16.0170803,19.026434 C16.1069799,18.9101224 16.2039502,18.7977449 16.3079912,18.6899204 C17.8388808,17.1033599 20.3209432,17.1033599 21.8518328,18.6899204 C23.3827224,20.276481 23.3827224,22.848804 21.8518328,24.4353645 L16,30.5 L10.1481672,24.4353645 C8.6172776,22.848804 8.6172776,20.276481 10.1481672,18.6899204 Z" transform="rotate(-180 16 24)"/>
    <path fill="#00E38E" d="M10.1481672,2.68992044 C11.6790568,1.10335985 14.1611192,1.10335985 15.6920088,2.68992044 C15.7962622,2.79796499 15.8934159,2.91058111 15.98347,3.02714615 L16,3.00911178 L16.0170803,3.02643399 C16.1069799,2.91012241 16.2039502,2.79774494 16.3079912,2.68992044 C17.8388808,1.10335985 20.3209432,1.10335985 21.8518328,2.68992044 C23.3827224,4.27648102 23.3827224,6.84880397 21.8518328,8.43536455 L16,14.5 L10.1481672,8.43536455 C8.6172776,6.84880397 8.6172776,4.27648102 10.1481672,2.68992044 Z"/>
  </g>
</svg>
