<?xml version="1.0" encoding="utf-8"?>
<!-- Generator: Adobe Illustrator 26.0.3, SVG Export Plug-In . SVG Version: 6.00 Build 0)  -->
<svg version="1.1" id="Layer_1" xmlns="http://www.w3.org/2000/svg" xmlns:xlink="http://www.w3.org/1999/xlink" x="0px" y="0px"
	 viewBox="0 0 556 356" style="enable-background:new 0 0 556 356;" xml:space="preserve">
<g>
	<g>
		<path d="M416.3,346.2c-21.5,0-39.8-6.9-52.8-19.8L232.8,195.8c-24.6-24.6-26.7-67.9-5.5-108.1c5.6,2.7,13.5,7.4,21.7,15.6
			c7.4,7.4,13.2,15.8,16.7,24.2c-4,14.2-2.9,26.6,3,32.5l130.7,130.8c3.5,3.5,9.4,5.4,16.8,5.4c14,0,36.2-7.1,56.2-27.2
			c12.6-12.6,21.6-27.7,25.3-42.4c3.4-13.3,2-25-3.5-30.6L363.5,65.2c-3.5-3.5-9.4-5.4-16.8-5.4c-2.4,0-5,0.2-7.6,0.6
			c-6.2-9.1-13.4-17.8-21.4-25.7c-5.5-5.5-11.3-10.6-17.4-15.3c15.4-6.8,31.4-10.3,46.4-10.3c21.3,0,39.5,7,52.8,20.2L530.2,160
			c16.3,16.3,23.1,40.3,19.1,67.5c-4.1,27.4-18.6,54.7-40.9,77C482.4,330.6,447.9,346.2,416.3,346.2L416.3,346.2z"/>
		<path d="M139.6,346.9c-31.4,0-65.8-15.7-92.1-42c-22.5-22.5-37-50.1-41-77.7c-3.9-27.1,2.9-50.9,19.2-67.2L156.4,29.3
			c13.2-13.2,31.5-20.2,52.8-20.2c31.4,0,65.8,15.7,92.1,42C344.2,94,356,152.6,329.5,188.6l-37.7-37.7c3.4-14.9-3.3-40.7-26.4-63.8
			c-20-20-42.2-27.2-56.2-27.2c-7.4,0-13.4,1.9-16.8,5.4L61.6,196c-5.5,5.5-6.9,17-3.6,30.2c3.7,14.9,12.7,30.1,25.4,42.8
			c20,20,42.2,27.2,56.2,27.2c7.4,0,13.4-1.9,16.8-5.4l69.3-69.3l36,35.9l-69.3,69.3C179.1,339.9,160.9,346.9,139.6,346.9z"/>
	</g>
	<polygon points="166.8,186.2 157,215 175.2,239.4 144.7,239.1 127.2,263.9 118.1,234.8 89,225.8 113.9,208.2 113.5,177.8 
		137.9,196 	"/>
	<polygon points="385.9,186.2 395.7,215 377.5,239.4 407.9,239.1 425.5,263.9 434.5,234.8 463.6,225.8 438.8,208.2 439.2,177.8 
		414.8,196 	"/>
</g>
</svg>
