<?xml version="1.0" encoding="utf-8"?>
<!-- Generator: Adobe Illustrator 27.4.0, SVG Export Plug-In . SVG Version: 6.00 Build 0)  -->
<svg version="1.1" id="Layer_1" xmlns="http://www.w3.org/2000/svg" xmlns:xlink="http://www.w3.org/1999/xlink" x="0px" y="0px"
	 viewBox="0 0 829 196" style="enable-background:new 0 0 829 196;" xml:space="preserve">
<style type="text/css">
	.st0{fill-rule:evenodd;clip-rule:evenodd;fill:#FFFFFF;fill-opacity:0;}
	.st1{fill-rule:evenodd;clip-rule:evenodd;fill:#FFFFFF;}
	.st2{filter:url(#Adobe_OpacityMaskFilter);}
	.st3{mask:url(#mask-2_00000001657298577329113020000003032098408056969097_);fill-rule:evenodd;clip-rule:evenodd;fill:#FFFFFF;}
</style>
<g id="squarespace-logo-horizontal-black">
	<rect id="clear-space" class="st0" width="828" height="196"/>
	<g id="squarespace-logo" transform="translate(62.000000, 47.000000)">
		<g>
			<path id="Fill-1" class="st1" d="M26.2,54l39.5-40c2.7-2.7,6.3-4.2,10.1-4.2c3.8,0,7.4,1.5,10.1,4.2l3.1,3.1l6.2-6.2l-3.1-3.1
				C87.6,3.4,81.8,1,75.7,1c-6.1,0-11.9,2.4-16.2,6.8L20,47.8L26.2,54z"/>
			<path id="Fill-3" class="st1" d="M79,27.3l-6.2-6.2L33.1,61c-5.6,5.6-14.6,5.6-20.2,0c-5.6-5.6-5.6-14.7,0-20.3L47.2,6.2L41,0
				L6.7,34.4c-9,9-9,23.7,0,32.8C11.1,71.6,16.9,74,23,74c6.2,0,11.9-2.4,16.3-6.8L79,27.3z"/>
			<path id="Fill-5" class="st1" d="M118.3,34.8c-4.3-4.4-10.1-6.8-16.3-6.8c-6.2,0-11.9,2.4-16.3,6.8L46,74.7l6.2,6.2L91.9,41
				c5.6-5.6,14.6-5.6,20.2,0c2.7,2.7,4.2,6.3,4.2,10.2c0,3.8-1.5,7.5-4.2,10.2L77.8,95.8L84,102l34.2-34.4
				C127.2,58.5,127.2,43.8,118.3,34.8"/>
			<path id="Fill-7" class="st1" d="M98.8,48L59.3,88c-5.5,5.6-14.6,5.6-20.1,0l-3.1-3.1L30,91.1l3.1,3.1c4.3,4.4,10.1,6.8,16.2,6.8
				c6.1,0,11.9-2.4,16.2-6.8l39.5-40L98.8,48z"/>
			<path id="Fill-9" class="st1" d="M161.5,61.4c0.5,2.6,1.7,4.5,3.6,6c1.9,1.4,4.3,2.2,7.4,2.2c3,0,5.3-0.7,7-2.1
				c1.6-1.4,2.5-3.3,2.5-5.6c0-1.1-0.2-2.1-0.7-2.9c-0.4-0.8-1.1-1.4-1.8-2c-0.8-0.5-1.8-1-2.9-1.4c-1.2-0.4-2.5-0.8-3.9-1.2
				l-3.7-1.1c-2.2-0.6-4.2-1.4-6-2.2c-1.8-0.9-3.3-1.9-4.5-3.1c-1.2-1.2-2.2-2.5-2.8-4.1c-0.6-1.5-1-3.3-1-5.3
				c0-2.1,0.4-4.1,1.3-5.9c0.8-1.8,2-3.3,3.5-4.6s3.4-2.3,5.6-3c2.2-0.7,4.6-1.1,7.4-1.1c5.1,0,9.2,1.2,12.2,3.7
				c3,2.5,4.8,5.8,5.3,10l-8.3,0.7c-0.5-2.1-1.5-3.8-3.1-5s-3.7-1.8-6.4-1.8c-2.5,0-4.5,0.6-6,1.8c-1.4,1.2-2.2,2.8-2.2,4.6
				c0,1.1,0.2,2,0.6,2.7c0.4,0.7,1,1.4,1.8,1.9c0.8,0.5,1.7,1,2.9,1.5c1.1,0.4,2.4,0.9,3.9,1.3l3.5,1.1c2.2,0.7,4.2,1.5,6,2.2
				c1.8,0.8,3.3,1.7,4.6,2.8c1.3,1.1,2.2,2.4,2.9,3.9c0.7,1.5,1,3.4,1,5.6c0,2.4-0.5,4.5-1.4,6.5c-0.9,2-2.2,3.6-3.9,5
				c-1.7,1.4-3.6,2.4-5.9,3.2c-2.3,0.8-4.8,1.1-7.6,1.1c-5.1,0-9.4-1.2-12.9-3.7c-3.4-2.5-5.5-6.2-6.3-11.1L161.5,61.4z"/>
			<path id="Fill-11" class="st1" d="M226.9,32.6c-2.5,0-4.7,0.5-6.7,1.4c-2,0.9-3.6,2.2-5,3.9c-1.4,1.7-2.4,3.6-3.1,5.9
				c-0.7,2.3-1.1,4.8-1.1,7.4c0,2.7,0.4,5.2,1.1,7.5c0.7,2.3,1.8,4.3,3.2,6c1.4,1.7,3,3,5,4c2,1,4.2,1.4,6.7,1.4s4.7-0.5,6.7-1.4
				c2-0.9,3.6-2.2,5-3.8c1.4-1.6,2.4-3.6,3.2-5.9c0.7-2.3,1.1-4.9,1.1-7.6c0-2.7-0.4-5.2-1.1-7.5c-0.7-2.3-1.8-4.3-3.2-5.9
				c-1.4-1.6-3-2.9-5-3.9C231.6,33.1,229.4,32.6,226.9,32.6 M226.9,25c3.7,0,7.2,0.6,10.3,1.9c3.1,1.3,5.7,3.1,7.9,5.4
				c2.2,2.3,3.9,5.1,5.1,8.4c1.2,3.2,1.8,6.8,1.8,10.6c0,4-0.6,7.6-1.9,10.8c-1.3,3.2-3.1,6-5.5,8.4l6.7,8V81h-8.5l-4.7-5.8
				c-1.6,0.8-3.4,1.3-5.2,1.8c-1.9,0.4-3.8,0.6-6,0.6c-3.8,0-7.3-0.6-10.4-1.9c-3.1-1.3-5.7-3.1-7.8-5.4c-2.2-2.3-3.8-5.1-5-8.3
				c-1.2-3.2-1.8-6.7-1.8-10.5c0-3.9,0.6-7.4,1.8-10.6c1.2-3.2,2.9-6,5-8.3c2.2-2.3,4.8-4.1,7.9-5.5C219.8,25.7,223.2,25,226.9,25"
				/>
			<path id="Fill-13" class="st1" d="M286,69.7c3.6,0,6.3-1.1,8.3-3.4c2-2.2,3-5.7,3-10.3V25h8.7v31.2c0,3.7-0.5,6.8-1.4,9.5
				c-0.9,2.6-2.2,4.8-3.9,6.4c-1.7,1.7-3.8,2.9-6.3,3.7c-2.5,0.8-5.3,1.2-8.4,1.2c-3.1,0-5.9-0.4-8.4-1.2c-2.5-0.8-4.6-2-6.3-3.7
				c-1.7-1.7-3-3.8-3.9-6.4c-0.9-2.6-1.4-5.8-1.4-9.5V25h8.7v31c0,4.6,1,8.1,3,10.3C279.7,68.6,282.4,69.7,286,69.7"/>
			<path id="Fill-15" class="st1" d="M331,54.2h16.7l-2.7-7.9c-1.1-3.1-1.9-5.6-2.6-7.6c-0.7-2-1.2-3.7-1.8-5.2h-2.2
				c-0.3,0.8-0.6,1.6-0.8,2.4c-0.3,0.8-0.6,1.7-1,2.6c-0.4,1-0.7,2.1-1.2,3.3c-0.4,1.3-0.9,2.7-1.5,4.4L331,54.2z M315,73.6L333,26
				h13.3L364,73.6V76h-8.7l-5.1-14.3h-21.9L323.2,76H315V73.6z"/>
			<path id="Fill-17" class="st1" d="M383.6,48.8h7.6c3.3,0,6-0.6,7.9-1.8c1.9-1.2,2.9-3.2,2.9-6c0-2.8-1-4.8-2.9-5.9
				c-2-1.1-4.6-1.7-7.9-1.7h-7.6V48.8z M413,76h-8.4l-15.3-19.6h-5.6V76H375V26h16.2c2.6,0,5,0.2,7.3,0.5c2.3,0.3,4.4,1.1,6.2,2.4
				c3.9,2.6,5.9,6.5,5.9,11.8c0,2.3-0.3,4.3-1,6c-0.7,1.7-1.6,3.1-2.7,4.3c-1.1,1.2-2.4,2.1-3.9,2.9c-1.5,0.7-3,1.3-4.6,1.7l14.4,18
				V76z"/>
			<polygon id="Fill-19" class="st1" points="424,26 456.5,26 456.5,33.7 432.6,33.7 432.6,46.8 454.8,46.8 454.8,54.3 432.6,54.3 
				432.6,68.3 457,68.3 457,76 424,76 			"/>
			<path id="Fill-21" class="st1" d="M476.5,61.4c0.5,2.6,1.7,4.5,3.6,6c1.9,1.4,4.3,2.2,7.4,2.2c3,0,5.3-0.7,7-2.1
				c1.6-1.4,2.5-3.3,2.5-5.6c0-1.1-0.2-2.1-0.7-2.9c-0.4-0.8-1.1-1.4-1.8-2c-0.8-0.5-1.8-1-2.9-1.4c-1.2-0.4-2.5-0.8-3.9-1.2
				l-3.7-1.1c-2.2-0.6-4.2-1.4-6-2.2c-1.8-0.9-3.3-1.9-4.5-3.1c-1.3-1.2-2.2-2.5-2.8-4.1c-0.6-1.5-1-3.3-1-5.3
				c0-2.1,0.4-4.1,1.3-5.9c0.8-1.8,2-3.3,3.5-4.6c1.5-1.3,3.4-2.3,5.6-3c2.2-0.7,4.6-1.1,7.4-1.1c5.1,0,9.2,1.2,12.2,3.7
				c3,2.5,4.8,5.8,5.3,10l-8.3,0.7c-0.5-2.1-1.5-3.8-3.1-5c-1.5-1.2-3.7-1.8-6.4-1.8c-2.5,0-4.5,0.6-6,1.8c-1.4,1.2-2.2,2.8-2.2,4.6
				c0,1.1,0.2,2,0.6,2.7c0.4,0.7,1,1.4,1.8,1.9c0.8,0.5,1.7,1,2.9,1.5c1.1,0.4,2.4,0.9,3.9,1.3l3.5,1.1c2.2,0.7,4.2,1.5,6,2.2
				c1.8,0.8,3.3,1.7,4.5,2.8c1.3,1.1,2.2,2.4,2.9,3.9c0.7,1.5,1,3.4,1,5.6c0,2.4-0.5,4.5-1.4,6.5c-0.9,2-2.2,3.6-3.9,5
				c-1.7,1.4-3.6,2.4-5.9,3.2c-2.3,0.8-4.8,1.1-7.6,1.1c-5.1,0-9.4-1.2-12.9-3.7c-3.4-2.5-5.5-6.2-6.3-11.1L476.5,61.4z"/>
			<path id="Fill-23" class="st1" d="M527.9,49.3h8.5c1.6,0,3-0.1,4.3-0.4c1.3-0.3,2.4-0.7,3.4-1.3c1-0.6,1.7-1.4,2.3-2.4
				c0.5-1,0.8-2.3,0.8-3.7c0-1.5-0.3-2.8-0.8-3.8c-0.5-1-1.3-1.9-2.2-2.5c-0.9-0.6-2.1-1-3.4-1.3c-1.3-0.3-2.7-0.4-4.2-0.4h-8.6
				V49.3z M519,26h18.6c3.4,0,6.3,0.4,8.7,1.2c2.3,0.8,4.2,1.9,5.7,3.3c1.4,1.4,2.5,3,3.1,4.9c0.6,1.9,1,3.9,1,6.1
				c0,2.6-0.4,4.9-1.3,6.8s-2.1,3.5-3.8,4.8c-1.7,1.3-3.7,2.2-6,2.8c-2.4,0.6-5,0.9-8,0.9h-9V76H519V26z"/>
			<path id="Fill-25" class="st1" d="M574,54.2h16.7l-2.7-7.9c-1.1-3.1-1.9-5.6-2.6-7.6c-0.7-2-1.2-3.7-1.8-5.2h-2.2
				c-0.3,0.8-0.6,1.6-0.8,2.4c-0.3,0.8-0.6,1.7-1,2.6c-0.4,1-0.7,2.1-1.2,3.3c-0.4,1.3-0.9,2.7-1.5,4.4L574,54.2z M558,73.6L576,26
				h13.3L607,73.6V76h-8.7l-5.1-14.3h-21.9L566.2,76H558V73.6z"/>
			<path id="Fill-27" class="st1" d="M660,62.8c-0.8,2-1.8,3.8-3.1,5.5c-1.3,1.7-2.8,3.2-4.7,4.5c-1.8,1.3-3.9,2.3-6.3,3.1
				s-5.1,1.1-8,1.1c-3.7,0-7.1-0.7-10.2-2c-3.1-1.3-5.7-3.1-7.8-5.4c-2.2-2.3-3.8-5-5-8.2c-1.2-3.2-1.8-6.6-1.8-10.4
				c0-3.7,0.6-7.2,1.8-10.4c1.2-3.2,2.9-5.9,5.1-8.3c2.2-2.3,4.8-4.1,7.9-5.5c3.1-1.3,6.5-2,10.3-2c5.5,0,10.1,1.3,13.9,3.8
				c3.7,2.6,6.3,5.9,7.9,10.2l-8.9,1.7c-1.2-2.6-2.9-4.6-5.1-6c-2.2-1.5-4.8-2.2-7.9-2.2c-2.5,0-4.7,0.5-6.6,1.4s-3.6,2.3-4.9,3.9
				c-1.3,1.7-2.4,3.6-3.1,5.9c-0.7,2.3-1.1,4.7-1.1,7.3c0,2.6,0.4,5.1,1.1,7.3c0.7,2.2,1.8,4.2,3.2,5.8c1.4,1.6,3.1,2.9,5,3.9
				c2,0.9,4.2,1.4,6.7,1.4c3.3,0,6-0.8,8.1-2.4c2.1-1.6,3.8-3.5,4.9-5.8L660,62.8z"/>
			<g id="Group-31" transform="translate(671.000000, 25.000000)">
				<g id="Clip-30">
				</g>
				<defs>
					<filter id="Adobe_OpacityMaskFilter" filterUnits="userSpaceOnUse" x="0.4" y="0.4" width="33.2" height="50.5">
						<feColorMatrix  type="matrix" values="1 0 0 0 0  0 1 0 0 0  0 0 1 0 0  0 0 0 1 0"/>
					</filter>
				</defs>
				
					<mask maskUnits="userSpaceOnUse" x="0.4" y="0.4" width="33.2" height="50.5" id="mask-2_00000001657298577329113020000003032098408056969097_">
					<g class="st2">
						<polygon id="path-1_00000160903662006622695180000014204711503205617328_" class="st1" points="0.4,0.4 33.6,0.4 33.6,50.9 
							0.4,50.9 						"/>
					</g>
				</mask>
				<polygon id="Fill-29" class="st3" points="0.4,0.4 33.1,0.4 33.1,8.1 9.1,8.1 9.1,21.3 31.4,21.3 31.4,28.9 9.1,28.9 9.1,43.1 
					33.6,43.1 33.6,50.9 0.4,50.9 				"/>
			</g>
		</g>
	</g>
</g>
</svg>
