<?xml version="1.0" encoding="utf-8"?>
<!-- Generator: Adobe Illustrator 26.5.0, SVG Export Plug-In . SVG Version: 6.00 Build 0)  -->
<svg version="1.1" id="Layer_1" xmlns="http://www.w3.org/2000/svg" xmlns:xlink="http://www.w3.org/1999/xlink" x="0px" y="0px"
	 viewBox="0 0 512 512" style="enable-background:new 0 0 512 512;" xml:space="preserve">
<style type="text/css">
	.st0{fill:#4285F4;}
	.st1{fill:#34A853;}
	.st2{fill:#FBBC05;}
	.st3{fill:#EA4335;}
</style>
<g transform="matrix(1, 0, 0, 1, 27.009001, -39.238998)">
	<path class="st0" d="M448.7,299.8c0-14.8-1.3-28.8-3.6-42.5H233.8v84.4h121.1c-5.4,27.7-21.3,51.1-44.9,67v56.1h72.2
		C424.4,425.7,448.7,368.1,448.7,299.8z"/>
	<path class="st1" d="M233.8,519.2c60.6,0,111.3-20.2,148.4-54.4l-72.2-56.1c-20.2,13.5-45.8,21.7-76.1,21.7
		c-58.6,0-108.1-39.5-125.9-92.8H33.4v57.8C70.2,468.7,146,519.2,233.8,519.2z"/>
	<path class="st2" d="M107.8,337.6c-4.7-13.5-7.1-27.9-7.1-42.8c0-15,2.6-29.4,7.1-42.8v-57.8H33.4C18,224.4,9.2,258.4,9.2,294.7
		c0,36.3,8.8,70.3,24.1,100.7L107.8,337.6z"/>
	<path class="st3" d="M233.8,159.1c33.1,0,62.7,11.4,86.1,33.7l64-64c-38.7-36.3-89.4-58.6-150.1-58.6
		c-87.7,0-163.5,50.5-200.4,123.9l74.5,57.8C125.6,198.6,175.2,159.1,233.8,159.1z"/>
</g>
</svg>
