<svg xmlns="http://www.w3.org/2000/svg" width="208" height="32" viewBox="0 0 208 32">
  <g fill="none" fill-rule="evenodd">
    <rect width="32" height="32"/>
    <path fill="#FF2457" d="M18.1481672,10.6899204 C19.6790568,9.10335985 22.1611192,9.10335985 23.6920088,10.6899204 C23.7962622,10.797965 23.8934159,10.9105811 23.98347,11.0271461 L24,11.0091118 L24.0170803,11.026434 C24.1069799,10.9101224 24.2039502,10.7977449 24.3079912,10.6899204 C25.8388808,9.10335985 28.3209432,9.10335985 29.8518328,10.6899204 C31.3827224,12.276481 31.3827224,14.848804 29.8518328,16.4353645 L24,22.5 L18.1481672,16.4353645 C16.6172776,14.848804 16.6172776,12.276481 18.1481672,10.6899204 Z" transform="rotate(90 24 16)"/>
    <path fill="#10BFFF" d="M2.14816719,10.6899204 C3.67905678,9.10335985 6.16111921,9.10335985 7.6920088,10.6899204 C7.79626217,10.797965 7.8934159,10.9105811 7.98346999,11.0271461 L8,11.0091118 L8.01708033,11.026434 C8.10697987,10.9101224 8.20395016,10.7977449 8.3079912,10.6899204 C9.83888079,9.10335985 12.3209432,9.10335985 13.8518328,10.6899204 C15.3827224,12.276481 15.3827224,14.848804 13.8518328,16.4353645 L8,22.5 L2.14816719,16.4353645 C0.617277603,14.848804 0.617277603,12.276481 2.14816719,10.6899204 Z" transform="rotate(-90 8 16)"/>
    <path fill="#FFD300" d="M10.1481672,18.6899204 C11.6790568,17.1033599 14.1611192,17.1033599 15.6920088,18.6899204 C15.7962622,18.797965 15.8934159,18.9105811 15.98347,19.0271461 L16,19.0091118 L16.0170803,19.026434 C16.1069799,18.9101224 16.2039502,18.7977449 16.3079912,18.6899204 C17.8388808,17.1033599 20.3209432,17.1033599 21.8518328,18.6899204 C23.3827224,20.276481 23.3827224,22.848804 21.8518328,24.4353645 L16,30.5 L10.1481672,24.4353645 C8.6172776,22.848804 8.6172776,20.276481 10.1481672,18.6899204 Z" transform="rotate(-180 16 24)"/>
    <path fill="#00E38E" d="M10.1481672,2.68992044 C11.6790568,1.10335985 14.1611192,1.10335985 15.6920088,2.68992044 C15.7962622,2.79796499 15.8934159,2.91058111 15.98347,3.02714615 L16,3.00911178 L16.0170803,3.02643399 C16.1069799,2.91012241 16.2039502,2.79774494 16.3079912,2.68992044 C17.8388808,1.10335985 20.3209432,1.10335985 21.8518328,2.68992044 C23.3827224,4.27648102 23.3827224,6.84880397 21.8518328,8.43536455 L16,14.5 L10.1481672,8.43536455 C8.6172776,6.84880397 8.6172776,4.27648102 10.1481672,2.68992044 Z"/>
    <path fill="#ffffff" d="M85.9998056,15.5 C87.38051,15.5 88.5,16.6191013 88.5,17.9998056 C88.5,19.3808987 87.38051,20.5 85.9998056,20.5 C84.61949,20.5 83.5,19.3808987 83.5,17.9998056 C83.5,16.6191013 84.61949,15.5 85.9998056,15.5 Z M5.5,5.86197757e-14 L5.5,15 L14,15 L14,20 L6.66133815e-14,20 L6.66133815e-14,5.86197757e-14 L5.5,5.86197757e-14 Z M23.4998433,6.03961325e-14 C25.2600254,6.03961325e-14 26.8823015,0.432227958 28.322479,1.28459141 C29.764537,2.13788506 30.9176193,3.33875944 31.7497567,4.85341767 C32.5790733,6.36435515 33,8.09171666 33,9.98682232 C33,11.881928 32.5746853,13.6136304 31.7365929,15.1341798 C30.8972468,16.6559695 29.7400901,17.8611848 28.2974052,18.7150985 C26.8575411,19.567462 25.243414,20 23.4998433,20 C21.7559592,20 20.141832,19.567462 18.7022814,18.7150985 C17.2592831,17.8611848 16.1024397,16.6565896 15.2630936,15.1341798 C14.4250012,13.6145606 14,11.8825481 14,9.98682232 C14,8.09047641 14.4250012,6.36249477 15.2640339,4.85124723 C16.1036934,3.33751919 17.2605368,2.137575 18.7025948,1.28459141 C20.141832,0.432227958 21.7559592,6.03961325e-14 23.4998433,6.03961325e-14 Z M48,5.86197757e-14 L48,5 L43.5,5 L43.5,20 L38,20 L38,5 L33,5 L33,5.86197757e-14 L48,5.86197757e-14 Z M64,5.86197757e-14 L64,5 L59,5 L59,20 L53.5,20 L53.5,5 L49,5 L49,5.86197757e-14 L64,5.86197757e-14 Z M73.4998433,5.86197757e-14 C75.2600254,5.86197757e-14 76.8823015,0.432227958 78.322479,1.28459141 C79.764537,2.13788506 80.9176193,3.33875944 81.7497567,4.85341767 C82.5790733,6.36435515 83,8.09171666 83,9.98682232 C83,11.881928 82.5746853,13.6136304 81.7365929,15.1341798 C80.8972468,16.6559695 79.7400901,17.8611848 78.2974052,18.7150985 C76.8575411,19.567462 75.243414,20 73.4998433,20 C71.7559592,20 70.141832,19.567462 68.7022814,18.7150985 C67.2592831,17.8611848 66.1024397,16.6565896 65.2630936,15.1341798 C64.4250012,13.6145606 64,11.8825481 64,9.98682232 C64,8.09047641 64.4250012,6.36249477 65.2640339,4.85124723 C66.1036934,3.33751919 67.2605368,2.137575 68.7025948,1.28459141 C70.141832,0.432227958 71.7559592,5.86197757e-14 73.4998433,5.86197757e-14 Z M98.6579836,3.55271368e-15 C100.447467,3.55271368e-15 102.096748,0.432227958 103.5609,1.28459141 C104.734381,1.96759334 105.719637,2.87328619 106.5,3.98433805 L102.080483,7.18649343 C101.958846,6.99552283 101.821847,6.81732966 101.669575,6.65218268 C100.926778,5.84633532 99.9415531,5.45454545 98.6579813,5.45454545 C97.3731165,5.45454545 96.3875686,5.84302527 95.6447713,6.64134978 C94.8977719,7.44478983 94.5189388,8.57472143 94.5189388,10.0001505 C94.5189388,11.4102329 94.8984184,12.5371553 95.6463875,13.3487201 C96.3891848,14.1542665 97.3744094,14.5454545 98.6579813,14.5454545 C99.9253913,14.5454545 100.906737,14.1533638 101.658908,13.3463128 C101.813264,13.1804715 101.952087,13.0014894 102.075276,12.8096314 L106.48387,16.0054009 C105.698467,17.1220569 104.710027,18.0312353 103.535409,18.7150985 C102.071576,19.567462 100.430579,20 98.6579836,20 C96.8850697,20 95.2440728,19.567462 93.7805585,18.7150985 C92.3135391,17.8611848 91.1374383,16.6565896 90.2841199,15.1341798 C89.4320761,13.6145606 89,11.8825481 89,9.98682232 C89,8.09047641 89.4320761,6.36249477 90.2850758,4.85124723 C91.1387128,3.33751919 92.3148137,2.137575 93.7808771,1.28459141 C95.2440728,0.432227958 96.8850697,3.55271368e-15 98.6579836,3.55271368e-15 Z M115.999843,3.55271368e-15 C117.760025,3.55271368e-15 119.382302,0.432227958 120.822479,1.28459141 C122.264537,2.13788506 123.417619,3.33875944 124.249757,4.85341767 C125.079073,6.36435515 125.5,8.09171666 125.5,9.98682232 C125.5,11.881928 125.074685,13.6136304 124.236593,15.1341798 C123.397247,16.6559695 122.24009,17.8611848 120.797405,18.7150985 C119.357541,19.567462 117.743414,20 115.999843,20 C114.255959,20 112.641832,19.567462 111.202281,18.7150985 C109.759283,17.8611848 108.60244,16.6565896 107.763094,15.1341798 C106.925001,13.6145606 106.5,11.8825481 106.5,9.98682232 C106.5,8.09047641 106.925001,6.36249477 107.764034,4.85124723 C108.603693,3.33751919 109.760537,2.137575 111.202595,1.28459141 C112.641832,0.432227958 114.255959,3.55271368e-15 115.999843,3.55271368e-15 Z M132,3.55271368e-15 L132.5,2.01180826 C134.126849,0.51986595 135.591581,3.55271368e-15 137.5,3.55271368e-15 C139.75256,3.55271368e-15 141.311433,0.826113503 142.25,2.5 C143.814278,1.00805769 145.55937,3.55271368e-15 148,3.55271368e-15 C152.75,3.55271368e-15 154.5,4 154.5,6.75 L154.5,20 L149,20 L149,8.25 C149,6.78746816 147.858295,5.59159572 146.417522,5.50501879 L146.25,5.5 C144.787468,5.5 143.591596,6.6417046 143.505019,8.08247767 L143.5,8.25 L143.5,20 L138,20 L138,8.25 C138,6.78746816 136.858295,5.59159572 135.417522,5.50501879 L135.25,5.5 C133.787468,5.5 132.591596,6.6417046 132.505019,8.08247767 L132.5,8.25 L132.5,20 L127,20 L127,3.55271368e-15 L132,3.55271368e-15 Z M23.4998438,5.5 C22.2581898,5.5 21.3057866,5.88459502 20.58797,6.67493628 C19.8660927,7.47034193 19.5,8.58897421 19.5,10.000149 C19.5,11.3961305 19.8667174,12.5117838 20.5895318,13.3152329 C21.3073484,14.1127238 22.2594393,14.5 23.4998438,14.5 C24.72463,14.5 25.6729726,14.1118301 26.3998477,13.3128496 C27.1295342,12.5096985 27.5,11.3952368 27.5,10.000149 C27.5,8.60446526 27.1332826,7.48910993 26.4101558,6.68566085 C25.6923392,5.88787197 24.7402483,5.5 23.4998438,5.5 Z M73.4998438,5.5 C72.2581898,5.5 71.3057866,5.88459502 70.58797,6.67493628 C69.8660927,7.47034193 69.5,8.58897421 69.5,10.000149 C69.5,11.3961305 69.8667174,12.5117838 70.5895318,13.3152329 C71.3073484,14.1127238 72.2594393,14.5 73.4998438,14.5 C74.72463,14.5 75.6729726,14.1118301 76.3998477,13.3128496 C77.1295342,12.5096985 77.5,11.3952368 77.5,10.000149 C77.5,8.60446526 77.1332826,7.48910993 76.4101558,6.68566085 C75.6923392,5.88787197 74.7402483,5.5 73.4998438,5.5 Z M115.999844,5.5 C114.75819,5.5 113.805787,5.88459502 113.08797,6.67493628 C112.366093,7.47034193 112,8.58897421 112,10.000149 C112,11.3961305 112.366717,12.5117838 113.089532,13.3152329 C113.807348,14.1127238 114.759439,14.5 115.999844,14.5 C117.22463,14.5 118.172973,14.1118301 118.899848,13.3128496 C119.629534,12.5096985 120,11.3952368 120,10.000149 C120,8.60446526 119.633283,7.48910993 118.910156,6.68566085 C118.192339,5.88787197 117.240248,5.5 115.999844,5.5 Z" transform="translate(37 6)"/>
    <path fill="#ffffff" d="M199.211268,13 L199.211268,7.90756303 L201.408451,7.90756303 L201.408451,7 L196,7 L196,7.90756303 L198.197183,7.90756303 L198.197183,13 L199.211268,13 Z M203.017814,13 L203.017814,8.3697479 L203.03382,8.3697479 L204.618354,12.2997199 L205.442632,12.2997199 L207.027166,8.3697479 L207.043172,8.3697479 L207.043172,13 L207.995493,13 L207.995493,7 L206.603023,7 L205.066505,10.9971989 L205.0505,10.9971989 L203.473968,7 L202.065493,7 L202.065493,13 L203.017814,13 Z"/>
  </g>
</svg>
