<?xml version="1.0" encoding="utf-8"?>
<!-- Generator: Adobe Illustrator 26.5.0, SVG Export Plug-In . SVG Version: 6.00 Build 0)  -->
<svg version="1.1" id="Layer_1" xmlns="http://www.w3.org/2000/svg" xmlns:xlink="http://www.w3.org/1999/xlink" x="0px" y="0px"
	 viewBox="0 0 394 50.6" style="enable-background:new 0 0 394 50.6;" xml:space="preserve">
<g>
	<g>
		<g>
			<path d="M61.5,50.4c-3.2,0-6-1-7.9-3L34,27.9c-3.7-3.7-4-10.2-0.8-16.2c0.8,0.4,2,1.1,3.3,2.3c1.1,1.1,2,2.4,2.5,3.6
				c-0.6,2.1-0.4,4,0.4,4.9L59,42.2c0.5,0.5,1.4,0.8,2.5,0.8c2.1,0,5.4-1.1,8.4-4.1c1.9-1.9,3.2-4.1,3.8-6.4c0.5-2,0.3-3.7-0.5-4.6
				L53.6,8.4c-0.5-0.5-1.4-0.8-2.5-0.8c-0.4,0-0.7,0-1.1,0.1c-0.9-1.4-2-2.7-3.2-3.9C45.9,3,45,2.3,44.1,1.5C46.4,0.5,48.8,0,51,0
				c3.3,0,6,1,8,3l19.6,19.6c2.4,2.4,3.5,6,2.9,10.1s-2.8,8.2-6.1,11.5C71.4,48.1,66.2,50.4,61.5,50.4L61.5,50.4z"/>
			<path d="M20.1,50.6c-4.7,0-9.9-2.3-13.8-6.3c-3.4-3.4-5.5-7.5-6.1-11.6C-0.4,28.6,0.6,25,3,22.6L22.6,3c2-2,4.7-3,7.9-3
				c4.7,0,9.9,2.3,13.8,6.3c6.4,6.4,8.2,15.2,4.2,20.6l-5.6-5.6c0.5-2.2-0.5-6.1-4-9.5c-3-3-6.3-4.1-8.4-4.1c-1.1,0-2,0.3-2.5,0.8
				L8.4,28c-0.8,0.8-1,2.5-0.5,4.5c0.6,2.2,1.9,4.5,3.8,6.4c3,3,6.3,4.1,8.4,4.1c1.1,0,2-0.3,2.5-0.8L33,31.8l5.4,5.4L28,47.5
				C26,49.5,23.3,50.6,20.1,50.6z"/>
		</g>
		<polygon points="24.1,26.5 22.7,30.8 25.4,34.5 20.8,34.4 18.2,38.1 16.9,33.8 12.5,32.4 16.2,29.8 16.2,25.2 19.8,28 		"/>
		<polygon points="56.9,26.5 58.4,30.8 55.7,34.5 60.2,34.4 62.9,38.1 64.2,33.8 68.6,32.4 64.8,29.8 64.9,25.2 61.2,28 		"/>
	</g>
	<g>
		<path d="M121.8,11.8l-4.1,24.6h-6.9l2.2-13.1c0.2-1.3,0.5-2.8,0.9-4.2c0.3-1.2,0.5-2.1,0.6-2.7c-0.1,0.4-0.4,0.9-0.6,1.7
			c-0.6,1.6-1.1,2.9-1.6,4l-6.4,14.3h-4.4l-1.7-14.3c-0.2-1.3-0.3-2.6-0.3-4c0-0.9-0.1-1.5-0.1-2c-0.3,3.4-0.7,6.3-1.1,8.8
			l-1.9,11.5h-5.6l4.1-24.6h9.9l1.3,10.9c0.1,0.9,0.2,1.5,0.3,1.9c0.2-0.6,0.4-1.2,0.7-1.9l4.9-10.9C112,11.8,121.8,11.8,121.8,11.8
			z"/>
		<path d="M131.2,11.8l-4.1,24.6h-7l4.1-24.6C124.2,11.8,131.2,11.8,131.2,11.8z"/>
		<path d="M147.3,30.5l-1,5.9h-16.8l4.1-24.6h7.5L138,30.5H147.3z"/>
		<path d="M158.2,11.8l-4.1,24.6h-7l4.1-24.6C151.2,11.8,158.2,11.8,158.2,11.8z"/>
		<path d="M170.4,17.4l-3.2,19h-7.1l3.2-19H158l1-5.7h17.8l-0.9,5.7C175.9,17.4,170.4,17.4,170.4,17.4z"/>
		<path d="M184.6,31.4H178l-2.3,5h-6.1L181,11.8h7.7l3.8,24.6h-7.3L184.6,31.4z M184.2,26.3l-1-7.1l-3.2,7.1H184.2z"/>
		<path d="M211.1,26.1l2.7,10.3h-7.3l-2.2-9.3h-2.9l-1.6,9.3h-7l4.1-24.6h10.7c2.9,0,5.1,0.6,6.5,1.9s2.1,3,2.1,5.2
			C216.3,22.5,214.6,24.9,211.1,26.1z M202.3,22h2.8c2.7,0,4-0.9,4-2.7c0-1.5-1.1-2.3-3.3-2.3h-2.6L202.3,22z"/>
		<path d="M238.5,11.8l-10.2,13.9l-1.8,10.7h-7.3l1.8-11l-5.8-13.6h7.8l2.6,6.8c0.2,0.5,0.4,1,0.6,1.6l1.2-1.9l4.4-6.5
			C231.8,11.8,238.5,11.8,238.5,11.8z"/>
		<path d="M256.9,26.9l6.6,0.8c-0.8,2.7-2.1,4.9-4,6.6s-4.2,2.6-7.1,2.6c-3.1,0-5.5-1-7.4-3.1s-2.7-4.8-2.7-8.1
			c0-3.8,1.1-7.2,3.4-10.1c2.2-2.9,5.3-4.4,9.3-4.4c2.9,0,5.2,0.9,6.9,2.6c1.8,1.8,2.7,4.1,2.7,7l-6.9,0.5c0-1.5-0.3-2.6-0.7-3.4
			c-0.4-0.7-1.2-1.1-2.3-1.1c-1.8,0-3.1,1.4-3.7,4.1c-0.7,2.7-1,4.8-1,6.4c0,2.5,1,3.8,3,3.8c1,0,1.8-0.3,2.4-1
			C255.9,29.4,256.4,28.4,256.9,26.9z"/>
		<path d="M274.5,37.1c-2.9,0-5.4-1-7.6-2.9c-2.1-1.9-3.2-4.6-3.2-8.2c0-4.1,1.2-7.6,3.6-10.5s5.5-4.3,9.4-4.3c3.1,0,5.6,1,7.6,3
			s3,4.6,3,7.9c0,4.2-1.2,7.7-3.5,10.6C281.4,35.6,278.3,37.1,274.5,37.1z M274.6,31.3c1.3,0,2.2-0.5,2.9-1.6
			c0.7-1.1,1.2-2.7,1.6-4.7c0.4-2.1,0.6-3.5,0.6-4.2c0-1.3-0.3-2.2-0.9-2.9c-0.6-0.6-1.4-1-2.3-1c-1.8,0-3.1,1.3-3.9,3.8
			c-0.7,2.6-1.1,4.8-1.1,6.8C271.5,30.1,272.5,31.3,274.6,31.3z"/>
		<path d="M311.4,11.8l-4.1,24.6h-5.5l-4.7-9.4c-1.3-2.6-2.1-4.6-2.4-6.1c0,0.4,0,0.6,0,0.8c0,0.7-0.1,1.6-0.3,2.7l-2,12.1h-6
			l4.1-24.6h6.6l2.7,5.7c1.9,3.9,3.1,6.9,3.7,8.7c0-0.5-0.1-0.9-0.1-1.1c0-0.7,0.2-2,0.5-4l1.6-9.3L311.4,11.8L311.4,11.8z"/>
		<path d="M334.7,11.8l-4.1,24.6h-5.5l-4.7-9.4c-1.3-2.6-2.1-4.6-2.4-6.1c0,0.4,0,0.6,0,0.8c0,0.7-0.1,1.6-0.3,2.7l-2,12.1h-6
			l4.1-24.6h6.6l2.7,5.7c1.9,3.9,3.1,6.9,3.7,8.7c0-0.5-0.1-0.9-0.1-1.1c0-0.7,0.2-2,0.5-4l1.6-9.3L334.7,11.8L334.7,11.8z"/>
		<path d="M352.1,30.8l-1,5.7H333l4.1-24.6h17.7l-0.9,5.4h-10.5l-0.6,3.9h8.9l-0.9,5.3H342l-0.7,4.4h10.8L352.1,30.8L352.1,30.8z"/>
		<path d="M367.7,26.9l6.6,0.8c-0.8,2.7-2.1,4.9-4,6.6s-4.2,2.6-7.1,2.6c-3.1,0-5.5-1-7.4-3.1s-2.7-4.8-2.7-8.1
			c0-3.8,1.1-7.2,3.4-10.1c2.2-2.9,5.3-4.4,9.3-4.4c2.9,0,5.2,0.9,6.9,2.6c1.8,1.8,2.7,4.1,2.7,7l-6.9,0.5c0-1.5-0.3-2.6-0.7-3.4
			c-0.4-0.7-1.2-1.1-2.3-1.1c-1.8,0-3.1,1.4-3.7,4.1c-0.7,2.7-1,4.8-1,6.4c0,2.5,1,3.8,3,3.8c1,0,1.8-0.3,2.4-1
			S367.3,28.4,367.7,26.9z"/>
		<path d="M387.6,17.4l-3.2,19h-7.1l3.2-19h-5.3l1-5.7H394l-0.9,5.7C393.1,17.4,387.6,17.4,387.6,17.4z"/>
	</g>
</g>
</svg>
