<?xml version="1.0" encoding="utf-8"?>
<!-- Generator: Adobe Illustrator 26.0.3, SVG Export Plug-In . SVG Version: 6.00 Build 0)  -->
<svg version="1.1" id="Layer_1" xmlns="http://www.w3.org/2000/svg" xmlns:xlink="http://www.w3.org/1999/xlink" x="0px" y="0px"
	 viewBox="0 0 3060.8 451.4" style="enable-background:new 0 0 3060.8 451.4;" xml:space="preserve">
<style type="text/css">
	.st0{fill:#FFFFFF;}
</style>
<g>
	<g>
		<path class="st0" d="M416.3,346.2c-21.5,0-39.8-6.9-52.8-19.8L232.8,195.8c-24.6-24.6-26.7-67.9-5.5-108.1
			c5.6,2.7,13.5,7.4,21.7,15.6c7.4,7.4,13.2,15.8,16.7,24.2c-4,14.2-2.9,26.6,3,32.5l130.7,130.8c3.5,3.5,9.4,5.4,16.8,5.4
			c14,0,36.2-7.1,56.2-27.2c12.6-12.6,21.6-27.7,25.3-42.4c3.4-13.3,2-25-3.5-30.6L363.5,65.2c-3.5-3.5-9.4-5.4-16.8-5.4
			c-2.4,0-5,0.2-7.6,0.6c-6.2-9.1-13.4-17.8-21.4-25.7c-5.5-5.5-11.3-10.6-17.4-15.3c15.4-6.8,31.4-10.3,46.4-10.3
			c21.3,0,39.5,7,52.8,20.2L530.2,160c16.3,16.3,23.1,40.3,19.1,67.5c-4.1,27.4-18.6,54.7-40.9,77
			C482.4,330.6,447.9,346.2,416.3,346.2L416.3,346.2z"/>
		<path class="st0" d="M139.6,346.9c-31.4,0-65.8-15.7-92.1-42c-22.5-22.5-37-50.1-41-77.7c-3.9-27.1,2.9-50.9,19.2-67.2L156.4,29.3
			c13.2-13.2,31.5-20.2,52.8-20.2c31.4,0,65.8,15.7,92.1,42C344.2,94,356,152.6,329.5,188.6l-37.7-37.7c3.4-14.9-3.3-40.7-26.4-63.8
			c-20-20-42.2-27.2-56.2-27.2c-7.4,0-13.4,1.9-16.8,5.4L61.6,196c-5.5,5.5-6.9,17-3.6,30.2c3.7,14.9,12.7,30.1,25.4,42.8
			c20,20,42.2,27.2,56.2,27.2c7.4,0,13.4-1.9,16.8-5.4l69.3-69.3l36,35.9l-69.3,69.3C179.1,339.9,160.9,346.9,139.6,346.9z"/>
	</g>
	<polygon class="st0" points="166.8,186.2 157,215 175.2,239.4 144.7,239.1 127.2,263.9 118.1,234.8 89,225.8 113.9,208.2 
		113.5,177.8 137.9,196 	"/>
	<polygon class="st0" points="385.9,186.2 395.7,215 377.5,239.4 407.9,239.1 425.5,263.9 434.5,234.8 463.6,225.8 438.8,208.2 
		439.2,177.8 414.8,196 	"/>
</g>
<g>
	<g>
		<path class="st0" d="M793.3,230.6c11.3-53.1,25.4-115.4,33.6-150.8h-1.3c-22.4,58.6-71.7,177.5-110.5,266.5h-48.6
			c2-77.3,4.8-209.1,8-267.4h-1.7c-5.9,36.3-18.2,102.6-29.7,156.4l-23.7,111h-49.6l66.3-311.2h80.8c1.7,74,0,174.6-3.9,218.3h0.5
			c14.5-42,63-148.1,95.7-218.3h77.6l-66.3,311.2h-51.7L793.3,230.6z"/>
		<path class="st0" d="M909.8,108.2h53.6l-50.8,238.1H859L909.8,108.2z M928.9,19.6h53.6l-11.7,54.3h-53.6L928.9,19.6z"/>
		<path class="st0" d="M948.7,346.3l69.5-326.8h53.6l-69.5,326.8H948.7z"/>
		<path class="st0" d="M1089.2,108.2h53.6L1092,346.3h-53.6L1089.2,108.2z M1108.3,19.6h53.6l-11.7,54.3h-53.6L1108.3,19.6z"/>
		<path class="st0" d="M1154.4,108.2h30.2l13-59.1h53.2l-13,59.1h35l-8.9,42.9h-35.4l-29.6,135c-2.9,14.1-1.8,22.5,15.3,22.5
			c6.1,0,13.3-0.6,17.9-1.5l-7.7,38.8c-10.8,3.5-26.3,3.7-35.1,3.7c-37.4,0-54.4-14.5-45.4-57.4l31.4-140.9h-30.2L1154.4,108.2z"/>
		<path class="st0" d="M1408.7,288.1c-4.3,21.2-9.9,44.7-11.7,58.2h-51.6c0.5-4.5,1.5-13.8,3.1-20.6c-11.9,16.2-26.1,24.4-51.6,24.4
			c-47.5,0-58.7-40.7-51.3-77.9c9.3-45.5,40.9-60.6,81.8-67.9c15.2-2.8,31-4.1,47.7-5.5l4-17.6c3.9-18.6,3.8-37.6-21.8-37.6
			c-17.8,0-25,11.9-29.6,29.2h-50.4c8.6-37.3,29.2-68.2,84.7-68.2c53.2,0,80.3,25.7,68.2,81.7L1408.7,288.1z M1367.1,237.6
			c-11.1,1-21.9,1.9-31.2,4.2c-19,4.7-33.3,12.9-37.4,31.9c-3.8,17.8,0.5,33.8,21.2,33.8c24.2,0,37.3-18.8,44.4-54.8L1367.1,237.6z"
			/>
		<path class="st0" d="M1457.8,188.8c8.2-39.1,13.6-63.9,16.5-80.6h50.7c-1.3,10.1-2.4,17.8-6.6,38.7c15.4-29.6,38.4-42.3,69.9-42.4
			l-12.8,58.1c-39.7-2.6-61.4,14.5-72.2,64.4L1478,346.3h-53.6L1457.8,188.8z"/>
		<path class="st0" d="M1644.8,108.2c2.3,44.8-1.9,161.4-2.7,185.1h0.5c12.7-34.4,48.5-118.5,78.2-185.1h53.8L1656.4,360
			c-34.8,74.6-58.3,75.6-93.7,75.6c-6.4,0-18.1-1.4-25.4-3.1l9.8-44.8c4.4,0.9,12.2,1.9,17.7,1.9c17.2,0,28.1-5.8,38.4-30.6
			l-12.5-250.7h54.1V108.2z"/>
		<path class="st0" d="M1933.9,259.5c-9.7,35-33.1,92.2-102.4,92.2c-67,0-96.4-52-70.5-170.6c19-86.6,54.9-151.4,124.6-151.4
			c69.6,0,79.4,52.9,75.5,89.2h-52.9c0.4-15.4,2.6-44.2-28-44.2c-30.5,0-50.9,42.9-64.6,109.3c-16.2,77.5-14.5,122.2,20.6,122.2
			c26.9,0,40.1-32.4,44-46.7H1933.9z"/>
		<path class="st0" d="M2124,232c-12.4,61.9-42.1,118.1-107.7,118.1c-62,0-85.2-46.7-68.8-126.8c14.7-73.6,54.9-118.7,106.7-118.7
			C2122.8,104.6,2138.3,160.3,2124,232z M2000,229.4c-11,54.1-3.4,76.9,20.9,76.9c22.9,0,39.4-29.5,50.1-78.3
			c9.3-42.9,11.4-79.1-20.3-79.1C2025.2,148.8,2007.8,190.8,2000,229.4z"/>
		<path class="st0" d="M2153.7,182.3c10.5-48.9,13.3-64.5,15.1-74.1h52.4c-0.5,5.3-2.5,17.2-4,25.2c11.5-17.1,29-28.9,56.2-28.9
			c37.1,0,58.4,24.6,46.9,79.3l-34.8,162.5h-53.2l33.6-158.5c5.3-24.8,0.5-38.5-20.1-38.5c-21.1,0-33.8,12.5-41.8,49.9l-31.3,147.1
			H2119L2153.7,182.3z"/>
		<path class="st0" d="M2348.8,182.3c10.5-48.9,13.3-64.5,15.1-74.1h52.4c-0.5,5.3-2.5,17.2-4,25.2c11.5-17.1,29-28.9,56.2-28.9
			c37.1,0,58.4,24.6,46.9,79.3l-34.8,162.5h-53.2l33.6-158.5c5.3-24.8,0.5-38.5-20.1-38.5c-21.1,0-33.8,12.5-41.8,49.9l-31.3,147.1
			h-53.7L2348.8,182.3z"/>
		<path class="st0" d="M2571.4,240.5c-2.1,10.8-3.1,20.9-3.1,29.5c0,22.6,7.3,36.6,25.2,36.6c20.8,0,29.2-13.7,34.8-27.8h52
			c-9.3,31.1-35.5,71.2-91.5,71.2c-75.1,0-78.3-67.6-67.2-125.5c11.8-58.8,43.9-120,108.3-120c71.3,0,79.6,62.2,64.9,118.6
			l-4.5,17.4H2571.4z M2646.3,201.7c1.6-7.7,3.1-15.5,3.1-22.6c0-18-5.4-31.3-25.2-31.3c-23.4,0-37.3,26.3-44.3,53.8h66.4V201.7z"/>
		<path class="st0" d="M2860.6,278.7c-10.1,30.6-31.3,71.3-91.8,71.3c-74.9,0-77-67.3-63.7-129.3c12.8-59.7,43.9-116.2,104.3-116.2
			c63.3,0,72.6,44.5,68.4,77.6h-52.5c2-21.1-2.2-34.2-20.7-34.2c-23.1,0-38.2,34.9-47.2,78.7c-7.7,38.5-13.2,79.9,16.7,79.9
			c18.9,0,28.6-15.3,33.6-27.9h52.9V278.7z"/>
		<path class="st0" d="M2902.8,108.2h30.2l13-59.1h53.2l-13,59.1h35l-8.9,42.9h-35.4l-29.6,135c-2.9,14.1-1.8,22.5,15.3,22.5
			c6.1,0,13.3-0.6,17.9-1.5l-7.7,38.8c-10.8,3.5-26.3,3.7-35.1,3.7c-37.4,0-54.4-14.5-45.4-57.4l31.4-140.9h-30.2L2902.8,108.2z"/>
	</g>
</g>
</svg>
