<?xml version="1.0" encoding="utf-8"?>
<!-- Generator: Adobe Illustrator 26.0.3, SVG Export Plug-In . SVG Version: 6.00 Build 0)  -->
<svg version="1.1" id="Layer_1" xmlns="http://www.w3.org/2000/svg" xmlns:xlink="http://www.w3.org/1999/xlink" x="0px" y="0px"
	 viewBox="0 0 1855.2 356.3" style="enable-background:new 0 0 1855.2 356.3;" xml:space="preserve">
<style type="text/css">
	.st0{fill:#FFFFFF;}
</style>
<g>
	<g>
		<path class="st0" d="M416.3,346.2c-21.5,0-39.8-6.9-52.8-19.8L232.8,195.8c-24.6-24.6-26.7-67.9-5.5-108.1
			c5.6,2.7,13.5,7.4,21.7,15.6c7.4,7.4,13.2,15.8,16.7,24.2c-4,14.2-2.9,26.6,3,32.5l130.7,130.8c3.5,3.5,9.4,5.4,16.8,5.4
			c14,0,36.2-7.1,56.2-27.2c12.6-12.6,21.6-27.7,25.3-42.4c3.4-13.3,2-25-3.5-30.6L363.5,65.2c-3.5-3.5-9.4-5.4-16.8-5.4
			c-2.4,0-5,0.2-7.6,0.6c-6.2-9.1-13.4-17.8-21.4-25.7c-5.5-5.5-11.3-10.6-17.4-15.3c15.4-6.8,31.4-10.3,46.4-10.3
			c21.3,0,39.5,7,52.8,20.2L530.2,160c16.3,16.3,23.1,40.3,19.1,67.5c-4.1,27.4-18.6,54.7-40.9,77
			C482.4,330.6,447.9,346.2,416.3,346.2L416.3,346.2z"/>
		<path class="st0" d="M139.6,346.9c-31.4,0-65.8-15.7-92.1-42c-22.5-22.5-37-50.1-41-77.7c-3.9-27.1,2.9-50.9,19.2-67.2L156.4,29.3
			c13.2-13.2,31.5-20.2,52.8-20.2c31.4,0,65.8,15.7,92.1,42C344.2,94,356,152.6,329.5,188.6l-37.7-37.7c3.4-14.9-3.3-40.7-26.4-63.8
			c-20-20-42.2-27.2-56.2-27.2c-7.4,0-13.4,1.9-16.8,5.4L61.6,196c-5.5,5.5-6.9,17-3.6,30.2c3.7,14.9,12.7,30.1,25.4,42.8
			c20,20,42.2,27.2,56.2,27.2c7.4,0,13.4-1.9,16.8-5.4l69.3-69.3l36,35.9l-69.3,69.3C179.1,339.9,160.9,346.9,139.6,346.9z"/>
	</g>
	<polygon class="st0" points="166.8,186.2 157,215 175.2,239.4 144.7,239.1 127.2,263.9 118.1,234.8 89,225.8 113.9,208.2 
		113.5,177.8 137.9,196 	"/>
	<polygon class="st0" points="385.9,186.2 395.7,215 377.5,239.4 407.9,239.1 425.5,263.9 434.5,234.8 463.6,225.8 438.8,208.2 
		439.2,177.8 414.8,196 	"/>
</g>
<g>
	<g>
		<path class="st0" d="M757.1,246.8c-9.7,35-33.1,92.2-102.4,92.2c-67,0-96.4-52-70.5-170.6C603.2,81.8,639.1,17,708.8,17
			c69.6,0,79.4,52.9,75.5,89.2h-52.9c0.4-15.4,2.6-44.2-28-44.2c-30.5,0-50.9,42.9-64.6,109.3c-16.2,77.5-14.5,122.2,20.6,122.2
			c26.9,0,40.1-32.4,44-46.7H757.1z"/>
		<path class="st0" d="M947.2,219.3c-12.4,61.9-42.1,118.1-107.7,118.1c-62,0-85.2-46.7-68.8-126.8C785.4,137,825.6,91.9,877.4,91.9
			C946,91.9,961.5,147.6,947.2,219.3z M823.2,216.7c-11,54.1-3.4,76.9,20.9,76.9c22.9,0,39.4-29.5,50.1-78.3
			c9.3-42.9,11.4-79.1-20.3-79.1C848.4,136.1,831,178.1,823.2,216.7z"/>
		<path class="st0" d="M976.9,169.6c10.5-48.9,13.3-64.5,15.1-74.1h52.4c-0.5,5.3-2.5,17.2-4,25.2c11.5-17.1,29-28.9,56.2-28.9
			c37.1,0,58.4,24.6,46.9,79.3l-34.8,162.5h-53.2l33.6-158.5c5.3-24.8,0.5-38.5-20.1-38.5c-21.1,0-33.8,12.5-41.8,49.9l-31.3,147.1
			h-53.7L976.9,169.6z"/>
		<path class="st0" d="M1172,169.6c10.5-48.9,13.3-64.5,15.1-74.1h52.4c-0.5,5.3-2.5,17.2-4,25.2c11.5-17.1,29-28.9,56.2-28.9
			c37.1,0,58.4,24.6,46.9,79.3l-34.8,162.5h-53.2l33.6-158.5c5.3-24.8,0.5-38.5-20.1-38.5c-21.1,0-33.8,12.5-41.8,49.9L1191,333.6
			h-53.7L1172,169.6z"/>
		<path class="st0" d="M1394.6,227.8c-2.1,10.8-3.1,20.9-3.1,29.5c0,22.6,7.3,36.6,25.2,36.6c20.8,0,29.2-13.7,34.8-27.8h52
			c-9.3,31.1-35.5,71.2-91.5,71.2c-75.1,0-78.3-67.6-67.2-125.5c11.8-58.8,43.9-120,108.3-120c71.3,0,79.6,62.2,64.9,118.6
			l-4.5,17.4H1394.6z M1469.5,189c1.6-7.7,3.1-15.5,3.1-22.6c0-18-5.4-31.3-25.2-31.3c-23.4,0-37.3,26.3-44.3,53.8h66.4V189z"/>
		<path class="st0" d="M1683.8,266c-10.1,30.6-31.3,71.3-91.8,71.3c-74.9,0-77-67.3-63.7-129.3c12.8-59.7,43.9-116.2,104.3-116.2
			c63.3,0,72.6,44.5,68.4,77.6h-52.5c2-21.1-2.2-34.2-20.7-34.2c-23.1,0-38.2,34.9-47.2,78.7c-7.7,38.5-13.2,79.9,16.7,79.9
			c18.9,0,28.6-15.3,33.6-27.9h52.9V266z"/>
		<path class="st0" d="M1726,95.5h30.2l13-59.1h53.2l-13,59.1h35l-8.9,42.9h-35.4l-29.6,135c-2.9,14.1-1.8,22.5,15.3,22.5
			c6.1,0,13.3-0.6,17.9-1.5l-7.7,38.8c-10.8,3.5-26.3,3.7-35.1,3.7c-37.4,0-54.4-14.5-45.4-57.4l31.4-140.9h-30.2L1726,95.5z"/>
	</g>
</g>
</svg>
