<?xml version="1.0" encoding="utf-8"?>
<!-- Generator: Adobe Illustrator 27.9.6, SVG Export Plug-In . SVG Version: 9.03 Build 54986)  -->
<svg version="1.1" id="Layer_1" xmlns="http://www.w3.org/2000/svg" xmlns:xlink="http://www.w3.org/1999/xlink" x="0px" y="0px"
	 viewBox="0 0 262 262" style="enable-background:new 0 0 262 262;" xml:space="preserve">
<style type="text/css">
	.st0{fill:none;stroke:#000000;stroke-width:20;stroke-linecap:round;stroke-miterlimit:10;}
</style>
<path d="M126.8,179.7c0,0-42-75-42.9-76.8c-0.1-0.2,0-0.5,0.2-0.6c0.1,0,0.1,0,0.2,0c3.4,0,23.4,0,25.6,0.3l21.1,46.5L201.6,36
	c0,0,2.8-5.5,5.4-5.5c4.6,0,18.9,0.3,23.3,0.3c4.6,0-1.9,9.6-1.9,9.6l-88.6,134.2c-0.5,0.9-5.7,7.9-7.9,7.9
	C129.4,182.6,126.9,179.9,126.8,179.7z"/>
<path class="st0" d="M207.4,106.5c2.5,7.7,3.8,15.9,3.8,24.4c0,44.2-35.8,80-80,80s-80-35.8-80-80s35.8-80,80-80
	c12,0,23.4,2.7,33.7,7.4"/>
</svg>
