<?xml version="1.0" encoding="utf-8"?>
<!-- Generator: Adobe Illustrator 27.9.4, SVG Export Plug-In . SVG Version: 9.03 Build 54784)  -->
<svg version="1.1" id="Layer_1" xmlns="http://www.w3.org/2000/svg" xmlns:xlink="http://www.w3.org/1999/xlink" x="0px" y="0px"
	 viewBox="0 0 1240 753" style="enable-background:new 0 0 1240 753;" xml:space="preserve">
<style type="text/css">
	.st0{fill:#FFFFFF;}
	.st1{fill:#00FF00;}
	.st2{fill:none;stroke:#00FF00;stroke-width:77.7594;stroke-linecap:round;stroke-miterlimit:10;}
</style>
<g>
	<path class="st0" d="M795.1,616.3V178.8c0-37.4,21-59.2,56.6-59.2s56.6,21.8,56.6,59.2v187.5h3.4L1115.3,144
		c15.7-17.2,30.1-24.4,48.7-24.4c30.1,0,53.3,22.9,53.3,52.1c0,15.7-5.7,28.2-19.9,43.1l-149.2,156.4l162.4,197.2
		c16.9,21,24.4,37.1,24.4,52.5c0,30.7-23.7,54.8-54.8,54.8c-23.2,0-39-8.6-56.6-31.1L962.3,446.1l-54,56.6v113.7
		c0,37.1-21,58.9-56.6,58.9C815.9,675.2,795.1,653.5,795.1,616.3z"/>
</g>
<path class="st1" d="M338.2,587.3c0,0-163.3-291.6-166.8-298.6c-0.4-0.8,0-1.9,0.8-2.3c0.4,0,0.4,0,0.8,0c13.2,0,91,0,99.5,1.2
	l82,180.8L629,28.6c0,0,10.9-21.4,21-21.4c17.9,0,73.5,1.2,90.6,1.2c17.9,0-7.4,37.3-7.4,37.3L388.7,567.5
	c-1.9,3.5-22.2,30.7-30.7,30.7C348.3,598.6,338.6,588.1,338.2,587.3z"/>
<path class="st2" d="M651.6,302.7c9.7,29.9,14.8,61.8,14.8,94.9c0,171.8-139.2,311-311,311s-311-139.2-311-311s139.2-311,311-311
	c46.7,0,91,10.5,131,28.8"/>
</svg>
