<?xml version="1.0" encoding="utf-8"?>
<!-- Generator: Adobe Illustrator 27.9.2, SVG Export Plug-In . SVG Version: 6.00 Build 0)  -->
<svg version="1.1" id="Layer_1" xmlns="http://www.w3.org/2000/svg" xmlns:xlink="http://www.w3.org/1999/xlink" x="0px" y="0px"
	 viewBox="0 0 896 200" style="enable-background:new 0 0 896 200;" xml:space="preserve">
<style type="text/css">
	.st0{fill:#00FF00;}
	.st1{fill:none;stroke:#00FF00;stroke-width:20;stroke-linecap:round;stroke-miterlimit:10;}
	.st2{fill:#FFFFFF;}
</style>
<path class="st0" d="M87.4,153.7c0,0-42-75-42.9-76.8c-0.1-0.2,0-0.5,0.2-0.6c0.1,0,0.1,0,0.2,0c3.4,0,23.4,0,25.6,0.3l21.1,46.5
	L162.2,10c0,0,2.8-5.5,5.4-5.5c4.6,0,18.9,0.3,23.3,0.3c4.6,0-1.9,9.6-1.9,9.6l-88.6,134.2c-0.5,0.9-5.7,7.9-7.9,7.9
	C90,156.6,87.5,153.9,87.4,153.7z"/>
<path class="st1" d="M168,80.5c2.5,7.7,3.8,15.9,3.8,24.4c0,44.2-35.8,80-80,80s-80-35.8-80-80s35.8-80,80-80
	c12,0,23.4,2.7,33.7,7.4"/>
<g>
	<path class="st2" d="M196.5,158.2V84.1c0-6.8,4-11.1,10.5-11.1c6.4,0,10.8,4.3,10.8,11.1v6.5h0.4c5-11.1,14.7-17.5,29-17.5
		c20.6,0,32.3,13.2,32.3,34.7v50.4c0,7.4-4.5,11.5-10.9,11.5s-11-4.1-11-11.5v-46.1c0-13.2-6.2-20.6-18.6-20.6
		c-12.6,0-20.6,9.1-20.6,22.4v44.2c0,7.4-4.6,11.5-11,11.5S196.5,165.6,196.5,158.2z"/>
	<path class="st2" d="M293.1,121.8c0-29.7,17.1-48.9,44-48.9c25.5,0,42.9,18.1,42.9,43.4c0,6.5-3.7,10.4-10.2,10.4h-54.9v0.7
		c0,15.6,9.1,25.6,23.3,25.6c9.8,0,16.3-3.4,23.3-12.4c2.3-2.5,4.3-3.5,7.4-3.5c4.9,0,8.8,3.2,8.8,8.4c0,1.7-0.5,3.6-1.5,5.5
		c-6.2,11.9-20,18.8-37.8,18.8C309.9,169.8,293.1,152,293.1,121.8z M358.6,112.3c-0.4-13.5-9.1-22.4-21.4-22.4s-21.3,9.1-22.1,22.4
		H358.6z"/>
	<path class="st2" d="M392,104.5c0-40.4,22.9-65.5,58.8-65.5c23.5,0,42,11,50.4,29.5c1.4,2.9,2.1,5.9,2.1,8.5c0,6.1-4,9.9-10,9.9
		c-5.2,0-8.6-2.5-11.1-8c-5.9-13.6-17.4-20.7-31.2-20.7c-21.8,0-35.8,17.9-35.8,46.2c0,28.5,13.9,46.3,35.9,46.3
		c14.5,0,25.7-6.3,31.5-19.7c2.3-5.2,5.2-7.3,10.1-7.3c6.2,0,10.5,4.1,10.5,10.1c0,2.9-0.7,5.5-2.1,8.5
		c-8.1,17.2-26.1,27.6-49.8,27.6C414.6,170.1,392,145.2,392,104.5z"/>
	<path class="st2" d="M521.2,158.2V50.7c0-6.9,4.1-11.2,10.8-11.2c6.8,0,10.8,4.3,10.8,11.2v40.2h0.4c5-11.3,15.3-17.8,29.4-17.8
		c20.6,0,32.6,13.5,32.6,34.9v50.3c0,7.4-4.6,11.5-11,11.5s-10.9-4.1-10.9-11.5v-45.8c0-13-6.5-20.8-19.2-20.8
		c-13.2,0-21.2,9.1-21.2,22.9v43.8c0,7.4-4.5,11.5-10.9,11.5S521.2,165.6,521.2,158.2z"/>
	<path class="st2" d="M618.9,121.8c0-29.7,17.1-48.9,44-48.9c25.5,0,42.9,18.1,42.9,43.4c0,6.5-3.7,10.4-10.2,10.4h-54.9v0.7
		c0,15.6,9.1,25.6,23.3,25.6c9.8,0,16.3-3.4,23.3-12.4c2.3-2.5,4.3-3.5,7.4-3.5c4.9,0,8.8,3.2,8.8,8.4c0,1.7-0.5,3.6-1.5,5.5
		c-6.2,11.9-20,18.8-37.8,18.8C635.7,169.8,618.9,152,618.9,121.8z M684.4,112.3c-0.4-13.5-9.1-22.4-21.4-22.4s-21.3,9.1-22.1,22.4
		H684.4z"/>
	<path class="st2" d="M716.1,121.5c0-29.7,17.5-48.6,44.6-48.6c18.3,0,33.8,9.4,38.3,22.5c0.7,1.8,1.1,3.7,1.1,5.3
		c0,5.4-4.1,8.8-9.4,8.8c-4.4,0-7-1.8-9.6-6.2c-4.7-8.5-10.8-12.6-19.9-12.6c-14.1,0-23,11.7-23,30.8c0,19.3,9.1,30.8,22.9,30.8
		c9.7,0,15.6-4.5,19.9-12c3-4.9,5.4-6.8,10.1-6.8c5.2,0,9.2,3.5,9.2,9c0,1.7-0.4,3.5-1.3,5.6c-5.2,12.7-20.7,21.8-38.2,21.8
		C733.6,169.8,716.1,151.4,716.1,121.5z"/>
	<path class="st2" d="M815.7,158.2V50.9c0-7.4,4.6-11.5,11-11.5s10.9,4.1,10.9,11.5v62.4h0.3l36.6-36.1c2.8-3,5.2-4.2,8.5-4.2
		c5.4,0,9.6,4.1,9.6,9.4c0,3.3-1,5.3-4,8.1l-26.5,25.1l29.2,36.5c2.3,3.2,3,5.1,3,7.9c0,5.7-4.3,9.8-10.4,9.8c-4.3,0-6.9-1.5-10-6.1
		l-27.9-35.4l-8.3,7.7v22.2c0,7.4-4.5,11.5-10.9,11.5S815.7,165.6,815.7,158.2z"/>
</g>
</svg>
