<?xml version="1.0" encoding="utf-8"?>
<!-- Generator: Adobe Illustrator 27.9.6, SVG Export Plug-In . SVG Version: 9.03 Build 54986)  -->
<svg version="1.1" id="Layer_1" xmlns="http://www.w3.org/2000/svg" xmlns:xlink="http://www.w3.org/1999/xlink" x="0px" y="0px"
	 viewBox="0 0 512 512" style="enable-background:new 0 0 512 512;" xml:space="preserve">
<style type="text/css">
	.st0{fill:#80ffff;}
	.st1{fill:#000000;}
</style>
<circle class="st0" cx="256" cy="256" r="200"/>
<path class="st1" d="M256,464c-114.7,0-208-93.3-208-208S141.3,48,256,48s208,93.3,208,208S370.7,464,256,464z M256,80
	c-97,0-176,79-176,176s79,176,176,176s176-79,176-176S353,80,256,80z"/>
<path class="st1" d="M323.7,292c-17.4,0-34.2-7.7-47.3-21.7c-13-14.1-20.8-32.2-22-51.3c-1.5-20.7,4.9-39.8,17.9-53.6
	s31.2-21.3,51.5-21.3c20.1,0,38.4,7.6,51.3,21.5s19.5,33,18,53.5l0,0c-1.3,19.1-9,37.2-22,51.3C357.9,284.3,341.1,292,323.7,292z
	 M379.5,218L379.5,218z"/>
<path class="st1" d="M163.8,295.4c-29.8,0-55.9-27.5-58.3-61.3c-1.2-17.3,4.2-33.3,15.2-45.1s26.2-18,43.1-18s32.1,6.4,43.1,18.1
	s16.5,27.8,15.2,45C219.7,267.9,193.5,295.4,163.8,295.4z"/>
<path class="st1" d="M420.4,355.3c-1.6-4.7-5.5-9.7-13.2-14.5c-23.5-14.3-52.3-21.9-83.5-21.9c-30.6,0-60.2,7.9-83.5,22.2
	c-26.2,16.2-43.9,39.8-51,68.2c-1.7,6.7-4.1,19.1-1.5,26.1C274.4,468.4,372.3,434.7,420.4,355.3L420.4,355.3z"/>
<path class="st1" d="M163.6,401.4c7.1-28.2,22.1-51.7,45.5-70.8c3.4-2.8,3.9-7.9,1.1-11.3c-1-1.2-2.2-2-3.7-2.5
	c-12-3.8-25.7-5.9-42.7-5.9c-23.8,0-49.1,6.5-68.1,18.2c-5.4,3.3-10.7,4.6-14.8,5.8c16.4,36.2,43.5,66.5,77.8,86.6l1.8-0.1
	C160.9,414.6,161.9,407.9,163.6,401.4z"/>
</svg>
