<?xml version="1.0" encoding="utf-8"?>
<!-- Generator: Adobe Illustrator 24.1.2, SVG Export Plug-In . SVG Version: 6.00 Build 0)  -->
<svg version="1.1" id="Layer_1" xmlns="http://www.w3.org/2000/svg" xmlns:xlink="http://www.w3.org/1999/xlink" x="0px" y="0px"
	 viewBox="0 0 416.1 416" style="enable-background:new 0 0 416.1 416;" xml:space="preserve">
<style type="text/css">
	.st0{fill:#92949C;}
</style>
<path class="st0" d="M211,0C94-1.5-1.5,94,0.1,210.9C1.7,323.1,93,414.5,205.2,416c117,1.6,212.5-93.9,210.9-210.9
	C414.5,92.9,323.2,1.6,211,0z M337.4,327.3c-1.5,1.6-4,1.7-5.7,0.2c-0.2-0.2-0.3-0.3-0.5-0.5c-8.9-11.7-19.9-21.7-32.4-29.6
	C273.5,281,241.2,272,208.1,272s-65.4,9-90.8,25.3c-12.5,7.9-23.4,17.9-32.3,29.6c-1.3,1.8-3.8,2.1-5.6,0.8
	c-0.2-0.1-0.4-0.3-0.5-0.5c-29.3-31.7-46-73.1-46.7-116.2c-1.6-97.3,78.2-178.8,175.6-179s176.4,78.8,176.4,176
	C384.1,252.2,367.5,294.8,337.4,327.3z"/>
<path class="st0" d="M208.1,96c-19.7,0-37.6,7.4-50.2,20.8s-19,32-17.6,51.9c2.9,39.2,33.3,71.2,67.8,71.2s64.8-32,67.8-71.2
	c1.5-19.7-4.8-38.1-17.7-51.8C245.5,103.5,227.7,96,208.1,96z"/>
</svg>
