<?xml version="1.0" encoding="utf-8"?>
<!-- Generator: Adobe Illustrator 25.2.0, SVG Export Plug-In . SVG Version: 6.00 Build 0)  -->
<svg version="1.1" id="Layer_1" xmlns="http://www.w3.org/2000/svg" xmlns:xlink="http://www.w3.org/1999/xlink" x="0px" y="0px"
	 viewBox="0 0 534.9 392.5" style="enable-background:new 0 0 534.9 392.5;" xml:space="preserve">
<g id="text_final_copy">
	<g>
		<g>
			<g id="Layer_2_3_">
				<path d="M170,248.9L90.8,386h158.3L170,248.9z M170,275.3l30.4,52.6h-60.7L170,275.3z M132,341.1h75.9l18.3,31.8H113.7
					L132,341.1z"/>
			</g>
			<g>
				<polygon points="415.3,248.9 328.4,248.9 264.4,359.3 200.5,248.9 185.4,248.9 264.4,386 335.9,262 407.7,262 				"/>
				<polygon points="328.4,386 407.7,386 415.4,372.8 336.1,372.8 				"/>
				<polygon points="328.5,323.3 407.7,323.3 415.3,310.2 336.2,310.2 				"/>
			</g>
		</g>
		<path d="M510.4,248.8v114.4l-66.1-114.4h-1.8h-13.2V386h13.2V271.8L508.2,386h2.2h13.2V248.8C523.6,248.8,511.5,248.8,510.4,248.8
			z"/>
		<path d="M51.1,330.4H18.5V386H4.1V248.7h40.5c6.4,0.1,12.5,1,18.2,2.8c5.7,1.7,10.6,4.3,14.9,7.7c4.3,3.4,7.6,7.7,10,12.9
			c2.4,5.1,3.7,11.2,3.7,18.2c0,4.5-0.7,8.6-2,12.3s-3,7.1-5.4,10.2c-2.3,3-5,5.7-8.1,8.1c-3.2,2.4-6.6,4.3-10.4,6l33.8,58.2
			l-0.1,1.2H82.8L51.1,330.4z M18.4,316.1h28.5c3.9-0.1,7.6-0.7,11.1-1.8c3.5-1.2,6.5-2.8,9.1-5.1c2.6-2.2,4.7-4.9,6.2-8.1
			s2.3-6.8,2.3-11c0-4.4-0.7-8.3-2.2-11.6c-1.4-3.3-3.5-6.1-6.1-8.3c-2.6-2.2-5.7-3.9-9.2-5.1c-3.6-1.2-7.5-1.8-11.7-1.8h-28
			L18.4,316.1z"/>
	</g>
</g>
<g id="SILOHETTE">
	<path d="M369.1,68.8L369.1,68.8L369.1,68.8L369.1,68.8z M369.1,68.8L369.1,68.8L369.1,68.8L369.1,68.8z M435.1,169L435.1,169
		L435.1,169L435.1,169z M382.1,193.6C382.1,193.6,382.1,193.7,382.1,193.6L382.1,193.6z M325.7,121.5L325.7,121.5L325.7,121.5
		L325.7,121.5z M325.7,121.5L325.7,121.5L325.7,121.5L325.7,121.5z M513.2,190.3c-2,3-12.1,8.1-13.1,8.5c-12,5.6-18.4,6.1-20,6.1
		c-0.4,0.1-0.9,0.2-1.8,0.2c-2.9-0.1-5.3,1-7.2,0.6c-0.7,0.1-2.4,0.4-2.5,0.4c-0.3,0.2-0.7,0.3-1.1,0.3c-1.2,0-1.4,0-2.9,0.1
		c0,0-2.4,0.2-3.4,0.2l0,0c-0.1,0-3.9,0-4.7-0.2c-0.7-0.2,0.9,0.6,1.3,0.7c0.7,0.2,2.7,1.3,4.2,1.9c1.5,0.7,3.4,1.8,4.7,2.5
		c1.3,0.7,6.6,3.2,8.8,4.1c2.2,0.9,6.6,4.8,7.5,5.4c0.9,0.6,0.3,1.1,1,1.4c1.9,0.8-0.2,1.1-2.1,0.8c-0.9-0.1-3.8-2.4-5.4-2.7
		s-2.7-1.5-3.2-1.5c-0.5-0.1-2-0.1-3.2-0.6s-3.2-2.3-3.5-2.6c-0.3-0.2-2.7-1.5-3.7-1.5s-1.3-1.3-1.9-1.4c-0.6-0.1,0.1,1.2-0.5,1.3
		s-1.5-1.3-2.2-1.3s-2.6-1-3.1-1.2s-1.6-0.1-2.7-0.7s-0.7-0.9-1-1s-0.1,0.5-0.9,0.5s-2.8-1-3.4-1.2c-0.3-0.1-0.7-0.3-1.2-0.6
		c-0.4,0-0.9-0.1-1.5-0.2c0,0-5.6-3.4-7.2-3.9c-1.5-0.5-4.6-2.5-4.9-2.7c-0.9-0.5-1.9-1.1-2.6-1.6c-0.5,0-0.7-0.4-0.8-0.5l0,0
		c-0.3,0-1.9-0.3-2-0.4c-0.3-0.1-0.6-0.2-0.9-0.2c0.2,0.5,1.7,1.2,1.9,1.4c0.2,0.2,2.2,2,2.9,2.4c0.7,0.4,3.6,3.2,4.5,3.8
		c0.9,0.7,5.3,4.5,6.6,5.5c1.2,1,7.2,6.1,8.6,7.8s5.6,8.1,6.1,9.4s0.4,0.8,0,0.9s-2.2-0.1-3.8-0.3s-2.7-1.4-4.9-2.6
		c-2.2-1.2-9-6.3-10.4-7c-1.3-0.7-7-5.6-7.8-6.4s-1.8-1.5-2.5-1.8s-2.8-3.3-3.2-3.5c-0.4-0.2,0.7,2.4,1.4,3c0.7,0.6,1.3,1.7,1.5,2.2
		s3.5,5.4,4.3,6.1s-0.5,1-0.1,1.6s0.6,1.5,0.3,1.2s-0.9-0.9-1.5-0.9s-1.2-0.9-1.6-1.3c-0.5-0.4-2.3-3-2.3-3s-3.6-4.1-4.3-4.6
		c-0.7-0.5-2.8-3.6-3.2-3.8c-0.4-0.2,0.5,2.2,0.5,2.9c0.1,0.7,1.5,3,1.6,3.6c0.2,0.6,1,2.6,1,3s-0.9-0.8-0.9-1
		c-0.1-0.2-0.9-1.1-1.6-1.7c-0.7-0.6-2.3-3.8-2.7-4.6c-0.4-0.8,0-1.8,0-2.6s-1.6-2.9-1.9-3.6c0-0.1-0.8-1.7-0.9-2c0,0-0.5-1.1-1-1.8
		c0,0-3.5-2.8-4.3-2.8c-0.7,0,0.5,1.2,1,1.6c0.4,0.4,4.1,5.7,5.1,7s1.5,2.4,1.3,3c-0.1,0.5-3.6-3.8-4.1-4.4
		c-0.4-0.5-1.7-1.9-2.4-1.9c-0.7,0,1.2,2,1.8,3s3.9,5.8,4.6,7.3s3.4,6,3.4,6.6c0,0.7-0.9-0.2-1.2-0.9c-0.3-0.7-2.7-4.1-3.5-4.6
		s-2.1-3.9-3-4.7c-1-0.8-3.5-4.2-3.7-4.6c-0.2-0.4-1.3-0.8-1.8-1.2c-0.4-0.4-0.4-1-1.2-2.1c-0.8-1.1-1-0.7-0.6,0.2s0.7,2,2.7,6.2
		c1.9,4.2,4.7,14.9,5.1,16.5s0.8,2.8,0,3.9c-0.8,1.1-0.5-1.4-0.7-2s-1.9-2.3-1.9-2.9s-0.3-2.2-0.8-2.5c-0.4-0.4-0.9-2-0.9-2.7
		s-1.4-0.4-1.5-0.8s0,1.2,0,1.4c0,0.1,0,0.2-0.1,0.2c0.4,0.9,1.3,3.1,0.8,2.7c-0.7-0.5-2.9-6-3.1-6.4c-0.6-1.4-2-4.2-2.4-5.7
		c-0.3-0.7-2.2-4.1-2.4-4.8c-0.3-1.3-0.9-1-1.5-1.3c-0.5-0.3-0.8-2.2-1.1-2.5s0.4,2.4,0.4,3.2s1.1,4.6,1.4,6.1
		c0.3,1.6,1.3,6.3,1.5,10.1c0.2,3.9-0.3,7.7-0.7,8.6c-0.4,0.9-1.3,3-1.3,3.3s-0.7,1.1-1.2,0.9c-0.5-0.2-1.5-2.3-1.3-2.8
		s0-0.1,0.7-2.1c0-0.1,0-0.1,0.1-0.2c-0.1,0.2-0.5,1-0.9-1c0,0-0.7-2.5-0.6-4.8c0-0.7-1-2.2-1.7-3.3s-1.1-4.3-2.4-6.6
		c-0.3-0.5-0.4-2.2-0.8-2.7s-0.1-2.9-0.6-3s-0.2,2.9-0.2,3.5c0,0.7,0.5,1.5,0.5,1.5s-1.8,14.8-1.8,15.9s-1,1.2-2.2,1.7
		s-0.2-3.5-0.3-3.8c-0.6,0.3-1.5-3.1-1.8-3.5c-0.9-1.6-1.1-10.9-1.3-13.1c-0.2-2.2,0.1-10.3,0.2-11.8c0-0.5,0.1-6.4-0.1-6.6
		c0,0,0,0-0.1,0c-0.1,0.1-2.5,3-2.6,3c0,0-2.7,8.7-3.2,10.1s-3.2,9.5-3.5,10.9s-1.8,1.9-2.4,2.7c-0.5,0.8-1.7,5-0.7,6.6
		s-0.7,0.4-1.6-0.4c-0.9-0.7-1.3-3.9-1.2-4.1c0-1.6,1.5-6.1,1.5-6.3c0.1-1-0.5-0.8-0.5-2.3c0.1-1.5,1.6-7.7,2.1-9.3s3.2-7.1,3.3-7.3
		c0.1-0.2,0.6-0.7,0.2-0.8c0,0-13.7,14.3-14.7,14.3s0,0,0.6-1.2s6.3-10,5.7-9.4c-0.1,0.1-2.6,3.8-2.6,3.8s-8.2,12.5-8.4,12.8
		c-1,1.5-2.8,2.9-3.3,3c-0.3,0.1-2.3,0.9-3.5,0.6s-0.1-1.3,0-1.4c0.1-0.5,1.8-3.9,2.1-4.5c0.2-0.5,0.8-1.5,1.3-2.4
		c0.2-0.3-0.5-0.6-0.5-1.7c0-1.2,5.1-6.6,5.6-7.2s-0.1-1,0.2-1.5c0.1-0.2,0.4-0.5,0.7-0.9c0.1-0.5,0.5-1.5,0.5-1.5l-1.2,0.4
		c-0.3,0.4-2.2,3.1-2.4,3.4l-0.1,0.1c0,0.1-8.5,9.8-8.9,10.4c-0.4,0.6-1.1-0.3-1-1.1c0.1-0.4,0.5-1.3,0.6-1.6
		c0.1-0.6-0.3,0.1-0.8,0.5c-1.6,1.3-2.2,0.2-2.8,0.8l0,0c-0.2,0.4-2.6,3.2-3.4,3.6c-0.8,0.4-1.8-0.1-1.8-0.3c-0.1-0.2,1.1-1.8,1-1.8
		c-0.5,0.2-1.1,1.2-1.2,1.5c-0.1,0.1-1.8,2.4-3.2,2.4c-0.3,0-0.6,0-0.7-0.1c-0.5-0.3,0-1.1,0.9-2.2c0.1-0.2,0.1-0.2-0.1-0.1
		c-0.5,0.5-2,1.2-3,1.1c-1-0.1,0.3-2,0.6-2.7c0.3-0.6,1.9-2.6,2.3-3c-0.3,0.2-1.2,0.8-1.7,0.7c-0.6,0,3.1-4.8,3.2-4.9
		c0.1-0.3,0.9-1.5,0.2-1.7s-2.9,2.3-3.4,2.3s0.2-1.6,0.5-2.2c0.3-0.6,2-2,2.6-3.7c0.6-1.6-8.8,7-9.4,6.7c-0.8,0.4-0.6-0.3-0.5-0.9
		c-0.4-1.2,0.7-4.6,2.6-6c0.3-0.5,2.5-3.7,2.6-4.3s0,0-1.1,0.4s-0.7-0.6-1.2-0.5s-3.2,3.4-4.2,4.4c-1,0.9-0.8-1.4-0.5-2.4
		s2.4-4.1,2.8-5.4c0.5-1.3-1-0.2-1.9,0l0,0c-1.4,1.1-2.8,2.3-4.9,3.1s-1.6-1.8-2.6-1.2s-0.3,0.5-1.5,1.4c-0.6,0.5-1.5,0.4-2-0.2
		c-0.4-0.6-0.4-1.7-1-1.1c-1.4,1.3-7.5,8.1-8.2,9c-0.8,1-2,2.1-3.1,2.1s-21,28.2-21.8,28.3c-0.5,0.1-0.8-0.2-1.1,0
		c-0.4,0.6-2.9,5.6-3,5.7c-0.5,0.4-1,0.2-1.5,0.8c-0.6,0.7-0.6,0.4-0.8,0.6c-1.1,1.4-3.7,4.7-3.7,4.7c-1.9,2.9-2,1.9-2.1,1.8
		c-0.4,0.2,0.5-2.6,0.6-2.9c0.1-0.3,0.3-1.2,0.7-1.8c0.2-0.2,0.5-1.2,0.8-1.7c0.1-0.2-0.9-0.1-0.6-0.4c0.6-0.8-0.3-0.8,0-1.3
		c0.2-0.3,0.7-2,0.9-2.4c0.4-0.7,2.9-4.6,2.4-4.4c-0.5,0.2-1.5,2-1.9,2.4c-1.2,1.3-3.4,3.7-4.5,5.3c-0.9,1.2-3.5,4.4-3.8,4.8
		c-0.2,0.5-1.6,1.7-1.7,1.8c-0.1,0.3-0.3,0.5-0.3,0.4c-0.1,0.2-0.6,0.8-0.8,1.1c-0.9,1.1-1.2,1.8-1.5,2h-0.1l0,0
		c-0.2,0.1-0.4-0.1-0.7,0.3c-0.3,0.3-0.6,0.5-0.8,0.8s-1,0.8-0.8-0.2c0.1-1,0.1-0.6,0-0.6s0.4-1.9,0.4-1.9s0-1.1-0.2-0.7
		c-0.2,0.4,0.4-1.5,0.6-2.2c0.3-0.7,1.9-3.4,2.1-3.5c0.1-0.1,1.8-2.3,2.3-2.8c1.2-1.3,4.9-6.5,4.5-6.2s-1.3,0.9-1.3,0.9
		c-0.9,0.8-6.1,5.7-6.4,5.8c-0.7,0.4-1.7,0.6-1.9,0.5s-0.4-0.9-0.3-1.4s0.3-0.6,0.5-1.3c0,0,0.4-0.9,1.3-2.1
		c1.1-1.6,5.7-6.9,5.8-7.5c0-0.1-0.3,0-0.5,0.1c-0.7,0.5-1.7,1.6-2.3,1.3c-0.4-0.1-0.1-0.6-0.1-1.1c0-0.7,0.8-1.4,1.5-2.3
		c0.4-0.5,4.3-5.6,3.3-5.1s-1.6,1.7-2.1,2.3c-0.5,0.7-1,1.2-1.3,1.1l0,0c-0.2,0.3-0.4,0.5-0.5,0.6c-0.3,0.3-2.4,2.5-4.2,4.3l0,0
		c0,0-3.9,3.7-5,4.7l0,0l0,0c-1.9,1.7-4.2,3.8-5.2,4.4c-1.3,0.8-2.5,0.6-3,0.4c-0.3-0.1-0.2-1.4-0.1-2s1.6-3.4,2.1-4.1
		c0.8-1.1,7.1-8.6,7.4-9.1c1.4-2.1,2.8-4.1,3.1-4.7c0.1-0.1,4.4-7.3,4.4-7.3h-0.1c-0.8,0.9-1.9,1.3-1.9,1.3s-0.4,0-0.5,0.1
		c-0.7,0.1-1-0.4-0.5-1.4c0.3-0.6,1.1-1.9,1.1-2l0,0c-0.4,0.4-1.9,1.6-1.9,1.6c-3,2.6-7.3,6.4-9.1,8.2c-2.8,2.8-15.9,9.1-11.5,3.9
		c4.4-5.2,9.9-10.5,12.5-12.9c1.8-2,4.3-4.7,4.8-5.4c1.2-1.8,6.6-8.9,8-10.7c1.6-2.5,4.3-6.6,5.9-8.4c0.4-0.7,6.1-6.9,6.3-7.7
		c0.2-0.9,3.4-4,3.5-4.5c0,0-5.5,2.1-7.1,2.3c-0.3,0-0.7,0.1-0.9,0.2c-0.6,0.3-3.2,1.4-3.2,1.4c-0.1,0,0.4-0.1-1.2,1
		c-2.1,1.5-10.5,4-6.6,0.7c0.6-0.5,1.7-1.1,2.4-1.6c1.3-0.8,2.1-1.3,3.2-1.9c-0.1,0-0.5,0-0.5,0.1c-0.2,0.1-2.7,0.9-3.9,0.7
		c-0.2,0.2-0.9,0.2-1.7,0.1c-5.6,0.4-12.1-0.2-8-2.6c2.8-1.6,5.4-2.9,7.7-3.9c1.1-0.4,10.8-6.2,15.8-8.8c0.4-0.2,0.7-0.4,1-0.5
		c2.5-1.2,4.9-2.3,6.9-3.1c6.5-3.1,15.5-7.5,16.9-7.9c1.9-0.6,8.5-2.2,8.1-2.1c-0.2,0,4.8-1.6,8.3-3.2c2.7-1.3,5.1-2.8,6.1-3.4
		c0.2-0.1,0.5-0.4,0.1-0.3c-1.4,0.4-4,1.2-5,1.3c-0.8,0.1-1.9-0.3-1.1-1c1-1,1.6-1.8,2.7-2.3c0.9-0.3,1-0.7,2.1-1.5
		c1.1-0.9,1.5-0.7,2.2-1.6c0.7-0.9,0.7-1.1,0.7-1.3c-0.1-0.5-1.6,0.3-1.9,0.4c-2,0.8-3,1.4-3.9,1.1c-0.4-0.1,0.4-1.1,0.6-1.4
		c0.2-0.3,1.5-1.1,2.1-1.3c0.7-0.2,0.9-0.6,1.7-0.7c0.7-0.1-0.9-0.2-1.1-0.5c-0.4-0.6,0.7-0.8,1.1-1.2c0.3-0.3-0.3-0.2-0.1-0.9
		c0.1-0.3,1.3-1,1.8-1.2c0.5-0.1,0.8-0.2,1.1-0.5c0.1-0.1,0.2-0.6,0.1-0.7c-0.5-0.4-1.8-0.3-1.2-1.2c0.3-0.4,1-0.7,2.2-0.7
		c0.8,0,0.3-0.2,0-0.6c-0.2-0.2-0.1-0.5,0-0.6c0.4-0.5,1.6-0.5,2.5-0.8c0.6-0.2-0.9,0-0.5-0.5c0.1-0.2,1.2-0.4,2.4-0.5
		c1.2-0.2,2.8-0.2,2.6-0.3c-0.4-0.1-3.9-0.2-5.4-0.1s-1.5-0.7-0.5-1.6c1.1-1,2.8-1.3,4.1-1.5c0.8-0.1,1.8-0.4,2.6-0.4
		c0.4-0.2,1.1-0.1,1.7-0.3c-1.1-0.1-2.7,0-2.7-0.7c0.4-0.6-2.7-0.3-3.6-0.3c-2.4-0.2-3.7,0.1-4.5-0.8c-0.3-0.3,0.8-1.3,2.2-2.6
		c1.1-1.1,2.4-1.3,3.1-1.4c0.6-0.1,1.3-0.2,2.4-0.2c0.5,0-1.8-0.2-2.1-0.5c-0.7-0.7,2.6-1.5,3.7-1.4s5.5,0,6.1-0.3s-1.5-0.2-1.5-1.3
		c0-1.2,1.3-1.7,1.7-2c0.2-0.2,2.8-0.9,3.3-1.6c0.5-0.6-2.9-0.4-3.1-0.4c-1-0.1-1.9-0.6-2.7-1.7c-0.9-1.4,6.5-3,8.1-3
		c1,0-0.6-0.6-2.3-0.8c-0.8-0.1-1.4-0.5-1.4-0.6c0.2-1.9,3.2-2.1,3.2-2.1s0.9-0.1,1.7-0.2c-0.8,0.1-1.2,0-2-0.2
		c-0.7-0.1-0.8-0.3-1.4-0.6c-0.6-0.2,0.5-1.6,0.9-1.8c0.6-0.3,1.3-0.9,3.3-0.9c1.8,0,4.7,0.9,5.3,1c0.7,0.1,6.2,2.4,7.2,2.6
		s-0.6-1.1-1.1-1.4c-0.5-0.4-1-1-1-1.3s-0.9-0.9-1.2-1.2s-0.7-0.9-1.2-1.4s-0.6-0.8-1-1.7c-0.1-0.3-1.7-3.8-1.6-5.7
		c0-1.1,0-2,0.9-2.9c0.5-0.5,1.7-0.1,3.2,1.1c1.3,1,2,2,2.3,2.4c0.4,0.7,1.1,1.5,1.6,2.2c6,8,6,8,6,8s-2.5-4-5.1-10
		c0,0-0.1-1.4-0.1-2.2c0-0.3,0.1-0.6,0.2-0.9c0.1-0.5,0.4-0.8,0.5-1c0,0,0.7-0.8,0.9-1c0.4-0.5,1.3-0.3,2.8,0.9
		c1.1,0.8,1.8,1.9,2,2.4c2.1,4.4,3.8,8.4,3.8,8.4s-1.2-5.2-3.3-9.9c-1.1-2.4-2.5-7-3.6-10.8c-0.3-0.8-0.3-1.7-0.3-2s0.2-2.5,0.2-3
		s0.8-3.2,0.9-4.3c0.1-1.2,2.4-0.2,2.8,0.1s0.9,0.3,1.4,1.7s1.2,2.7,1.3,3.4c0.2,0.7,0.3,1.9,0.9,3s0.4-0.8,0.2-1.1
		c-0.2-0.4-0.5-2-0.6-2.7c-0.1-0.8-0.4-2-0.5-2.4s-0.8-3.3-0.8-4.2s-0.4-2.4-0.4-3s-0.4-3.2-0.4-4s0.3-3.6,1.9-3.9
		c0.6-0.1,1.8,0,1.8,0.2c-0.1-0.2,0-0.2,0.2-0.2c0.2-0.3,0.4-0.8,0.4-0.8s0.3-0.1,0.7-0.4s0-0.9-0.3-2c-0.2-0.6,0.3-0.8,0.4-1.2
		s-0.3-1.1-0.3-1.5s0.1-0.6,0-0.9s0.2-0.7,0.3-1.1c0.1-0.4,0.3,0.3,0.3-0.3c0-0.2,0-0.5-0.1-0.9c0,0-0.1,0-0.1-0.1l0,0l0,0
		c-0.1-0.7-0.2-1.6-0.2-1.8c0-0.8,0.4-1.9,1.1-2.6c0.5-0.6,1.1-0.3,1.5,0.1c0.8,0.8,2,10.5,2,10c0-0.7-1.2-9-0.7-11.3
		c0.4-1.9,1.4-2.5,1.4-2.5s1.2-1.2,2.2-1.2c0.2,0,0.3,0,0.4,0.1c0.1,0,0.2,0,0.3,0.2l0,0c0.4,0.4,0.5,1.2,0.5,1.8
		c0.2,0.7,0.3,1.3,0.3,1.3l0,0c0.2,0.6,0.5,1.3,0.6,2c0.2,1.2,2.4,9.5,2.8,11.8s1,12.4,1.5,12.9c0.4,0.4,0.1-4.5,0.1-5.3
		s0-3.5,0-4.3s0-2.4,0.4-6.1s2-6.2,2.3-6.4c1-0.4,1,0.3,1.1,0.5v0.1c0,0.3,0.4,1.9,0.5,2.2c0.7,3.3,1.1,6.1,1.2,7.3v-0.1
		c0-0.7-0.1-1.6-0.1-1.6s0.1-1.4-0.2-6.9c-0.4-6.2-1.2-16.6-1.4-18.4c-0.4-3.3,0.3-5.7,1.2-7.6s2.4-4.3,3.7-4.3s3,2.3,4.1,4.3
		c1,2,2.4,8.9,2.4,10.2c0,0.5,0,1.4,0,2.3c0.1,1.3,0.1,2.3,0.1,2.7c0,0,0.4,0.5,1,1.8s1.9,6.7,2.1,9.8c0.2,3,1.7,12,2.2,14.6
		c0.5,2.6,0.3,7.3,0.1,9.5c-0.2,2.2-1.7,11.4-2.4,13.4c-0.7,1.9-1.9,6.5-2.1,6.7s0.2,0.8,0.2,1.3s-0.5,1.2-0.9,1.6s-1.4,1.2-0.9,1.5
		c0.5,0.2,0.6,0.1,0.2,0.8c-0.4,0.8-1.4,2.9-2.3,3.2c-0.9,0.4-1.9,1.8-2.6,3.2c-0.1,0.1-0.1,0.2-0.1,0.3l0,0c0,0-0.1,1.2,0.1,2.4
		c0,0,0,0,0,0.1c0.2,1.2,1.6,3.1,1.2,3.8c-0.4,0.7-0.7,2.1-1.7,2.8c-0.2,0.2-0.4,0.4-0.5,0.5c0,0-0.1,0-0.1,0.1
		c-0.9,0.7-1.8,1.7-2.1,2.2l0,0c-0.4,0.6-3.4,5.8-3.4,5.8c-1.2,2.1-3.6,6.1-4.1,6.9c-0.4,0.6-1.4,1.2-2.1,1.7
		c-0.1,0.1-0.2,0.2-0.3,0.3c-0.1,0.1-0.2,0.2-0.3,0.3c-0.2,0.3-0.5,0.9-0.8,1.5l0,0c-0.2,0.4-0.3,0.8-0.4,1.3c0,0.3-0.1,0.7-0.2,1.1
		c-0.2,0.9-0.6,0.8-1,1.2c0,0.3,0.5,0.5,0.9,0.6l0,0c0.2,0,0.3,0,0.5,0.1c1,0,3,0,3.9,0.2c0,0,0,0,0.1,0h0.1
		c0.5,0.1,1.6,0.4,2.7,0.7l0,0c0.8,0,1.9,0.3,2.7,0.6c0.3,0.1,0.5,0.1,0.7,0.1c0.1,0,0.2,0,0.3,0c0.7,0.1,1.8-0.9,2.8-0.9
		c0.1,0,0.2,0,0.4,0c1.2-0.4,2.8-0.8,4.6-1.1c8.8-1.3,15,2.1,16.7,3.2c0,0,0.1,0,0.1,0.1c0.6,0.4,1.9,1.2,2.1,1.6
		c0.5,0.4,0.8,0.8,0.8,1c0.8,0.4,1.8,0.9,2.2,1.1c0.6,0.3,3.2,1.9,3.7,2.4c0.1,0.1,0.3,0.2,0.5,0.2c0.5,0.1,1.1,0.1,2,0.3
		c0.4,0.1,0.9,0.2,1.4,0.3c2.1,0.6,5.4,2,6.7,2.7c0.6,0.3,1.2,0.6,1.6,0.9c0.1,0,0.1,0,0.2,0.1c2.8,1.4,8.6,6.3,10,8.3
		c0.1,0,0.1,0.1,0.2,0.1c0.7,0.3,1,1.1,0.3,1.3c-0.2,0-0.4,0-0.6,0c-0.5-0.1-1.2-0.5-1.6-0.6l0,0c-0.5,0-3.5-0.4-4.2-0.4
		c-0.4,0-0.9-0.1-1.5-0.2c-0.2,0-1.1-0.2-1.3-0.2c-0.8,0-3.9-0.7-5.3-0.7c-1.5,0-7.3-0.7-8-0.7s-0.5,0.1-0.9,0.9
		c-0.4,0.8-1.4,1.6-2.8,1.9c-1.1,0.2-1.6,0.2-2.3,0.3c-0.2,0.1-0.2,0.1-0.4,0.2c-0.3,0.1-0.7,0.6-1.4,1.8s-0.4,1.8-0.4,1.8
		s0.4,2.5,1.5,2.9c0.1,0,0.1,0,0.1,0.1c0.4,0.1,0.8,0.5,1.3,0.8c0.5,0,0.8,0.4,0.7,0.4c0,0,0,0,0.1,0l0,0c0,0,0,0,0.1,0
		c0.3,0.1,0.9,0.4,1.5,0.6l0,0c0,0,3.2,1,3.4,1c1.3,0.2,5.6,1.1,5.6,1.1s1.7,0.3,2.2,0.3c0.9,0,1.5,0.5,1.9,0.8
		c0.2,0.1,0.4,0.3,0.6,0.5c0.5,0.1,1.7,0.3,2.5,0.4c1,0.2,3.5,1.4,3.8,1.4s2.2,1.2,2.2,1.2s2.1,0.9,3.6,1.5c1.5,0.7,0.7,0.9,0.6,1.1
		c-0.1,0.2-1.2,1-2.1,1s-1.8-1.1-2.4-1.1s-1-0.1-2.3-0.1s-1.7-0.3-1.9-0.3c0,0-2,0.9-2.6,0.7c-0.3,0.1-1.6-0.3-1.9-0.3
		c0,0-0.1-0.1-0.2-0.1l0,0c0,0.1,0.2,0.2,0.1,0.2c0,0-0.1-0.1-0.2-0.1l0,0l0,0l0,0c-0.1,0.1,0,0.3,0.2,0.3c0.4,0,3.5,1.1,4.4,1.1
		s1.9,1.3,2.4,1.5s2.4,1,3.2,1c0.8,0.1,2.9,1.3,4,1.8s5.3,1.3,6.4,1.5c1.1,0.1,10,0.3,10.6,0.2c0.7-0.1,2.7-0.3,3-0.3
		c2.5-0.3,5.1-0.7,7.3-1.1c4.2-0.6,7.5-1.2,8.9-1.6c0.4-0.1,10.9-4.3,12.8-5.2c0.2-0.1,2.5-1.2,3.5-1.7l0.1-0.1
		c0.5-0.4,1.2-0.5,1.9-0.5c0.4,0,0.9-0.1,1.5-0.1c0.1,0,0.2-0.1,0.3-0.1c1.5-0.3,2.6-0.9,2.8,0c0.7,2.6-1.8,7-6.2,10.6
		c-4.8,4-17.3,7.9-21.1,9.1c-0.5,0.3-2.1,0.6-2.3,0.6c-1.7,0.4-3.6,0.9-4.7,1.1c-0.1,0-0.1,0-0.2,0c-1.2,0.3-2.4,0.5-3.6,0.8
		c-0.3,0.1-0.6,0.1-0.9,0.2c-1,0.2-3.1,0.7-4.6,0.7c-0.5,0-1,0-1.6-0.1l0,0c0,0,0,0-0.1,0c-0.3,0-1.4-0.2-1.7-0.3
		c-0.1,0-0.6-0.1-0.8-0.1c-1.4,0-3-0.4-4.2-0.3s-1.4,0.3-1.4,0.3s-0.4,0.6,2,1.4c0.8,0.3,3.9,0.7,4.4,0.7c2.2,0,4.6,0,5.1,0
		c1.5,0,5.4-0.4,6.3-0.5s3.1,0.2,3.6,0.7c0.9,1.1,0.3,0.2,1.5,0.6s8.2,0.3,10.2,0.1l0,0c2.2-0.2,4.8-0.4,5.6-0.5
		c2.7-0.6,6.6-1.4,8.3-1.8c0.3-0.2,0.6-0.3,0.8-0.3c0.5-0.1,1.1-0.2,1.5-0.2c0.1,0,1.6-0.7,1.9-0.7c0.2,0,0.7-0.1,1.3-0.2
		c1.4-0.5,5.2-1.3,5.8-1.5c0.6-0.2,1.8,0,1.8,0.1c0,0,0.1,0.2,0.1,0.3C515,186.7,514.1,189.3,513.2,190.3z M391.6,44.2L391.6,44.2
		L391.6,44.2L391.6,44.2z M391.1,42.4C391.2,42.5,391.2,42.4,391.1,42.4C391.2,42.4,391.1,42.4,391.1,42.4z M413.2,138.2
		c0,0.8,0.7,1.5,1.5,1.5s1.5-0.7,1.5-1.5s-0.7-1.5-1.5-1.5S413.2,137.4,413.2,138.2z"/>
</g>
</svg>
