<?xml version="1.0" encoding="utf-8"?>
<!-- Generator: Adobe Illustrator 25.2.0, SVG Export Plug-In . SVG Version: 6.00 Build 0)  -->
<svg version="1.1" id="Layer_1" xmlns="http://www.w3.org/2000/svg" xmlns:xlink="http://www.w3.org/1999/xlink" x="0px" y="0px"
	 viewBox="0 0 534.9 150.7" style="enable-background:new 0 0 534.9 150.7;" xml:space="preserve">
<g id="text_final_copy">
	<g>
		<g>
			<g id="Layer_2_3_">
				<path d="M170,7.1L90.8,144.2h158.3L170,7.1z M170,33.5l30.4,52.6h-60.7L170,33.5z M132,99.3h75.9l18.3,31.8H113.7L132,99.3z"/>
			</g>
			<g>
				<polygon points="415.3,7.1 328.4,7.1 264.4,117.5 200.5,7.1 185.4,7.1 264.4,144.2 335.9,20.2 407.7,20.2 				"/>
				<polygon points="328.4,144.2 407.7,144.2 415.4,131 336.1,131 				"/>
				<polygon points="328.5,81.5 407.7,81.5 415.3,68.4 336.2,68.4 				"/>
			</g>
		</g>
		<path d="M510.4,7v114.4L444.3,7h-1.8h-13.2v137.2h13.2V30l65.7,114.2h2.2h13.2V7C523.6,7,511.5,7,510.4,7z"/>
		<path d="M51.1,88.6H18.5v55.6H4.1V6.9h40.5C51,7,57.1,7.9,62.8,9.7c5.7,1.7,10.6,4.3,14.9,7.7c4.3,3.4,7.6,7.7,10,12.9
			c2.4,5.1,3.7,11.2,3.7,18.2c0,4.5-0.7,8.6-2,12.3s-3,7.1-5.4,10.2c-2.3,3-5,5.7-8.1,8.1c-3.2,2.4-6.6,4.3-10.4,6l33.8,58.2
			l-0.1,1.2H82.8L51.1,88.6z M18.4,74.3h28.5c3.9-0.1,7.6-0.7,11.1-1.8c3.5-1.2,6.5-2.8,9.1-5.1c2.6-2.2,4.7-4.9,6.2-8.1
			s2.3-6.8,2.3-11c0-4.4-0.7-8.3-2.2-11.6c-1.4-3.3-3.5-6.1-6.1-8.3s-5.7-3.9-9.2-5.1c-3.6-1.2-7.5-1.8-11.7-1.8h-28L18.4,74.3z"/>
	</g>
</g>
</svg>
