<?xml version="1.0" encoding="utf-8"?>
<!-- Generator: Adobe Illustrator 25.2.3, SVG Export Plug-In . SVG Version: 6.00 Build 0)  -->
<svg version="1.1" id="LOGO_NEW" xmlns="http://www.w3.org/2000/svg" xmlns:xlink="http://www.w3.org/1999/xlink" x="0px" y="0px"
	 viewBox="0 0 493.2 118.4" style="enable-background:new 0 0 493.2 118.4;" xml:space="preserve">
<style type="text/css">
	.st0{fill-rule:evenodd;clip-rule:evenodd;fill:#FFFFFF;}
	.st1{fill-rule:evenodd;clip-rule:evenodd;fill:#4295D1;}
</style>
<g>
	<g>
		<g>
			<path class="st0" d="M73.9,51.1c6.4-12.6,4.4-25.8-1.9-35.4C61-1,42.8,0,42.8,0H0l7.3,12.8c0,0,28,0,34.4,0
				c11.8,0,21.7,9,21.7,22.3c0,13.8-11.5,22.1-21.2,22c-4.5,0-9.3,0-9.3,0l35.4,61.2h16.4L55.4,67.5C55.4,67.5,67.4,63.8,73.9,51.1z
				 M273.4,0l-51.9,89.9L169.6,0h-16.4l68.3,118.4L289.8,0H273.4z M374.7,0h-68.3L299,12.8h68.2L374.7,0z M268.6,65.7h68.2l7.3-12.8
				h-68.2L268.6,65.7z M238,118.4h68.3l7.3-12.8h-68.3L238,118.4z M476.5,0L427,86.1L391.2,0l-68.3,118.4h16.5l49.6-86.2l35.8,86.1
				L493.2,0H476.5z"/>
		</g>
	</g>
</g>
<g>
	<g>
		<g>
			<path class="st1" d="M136.6,0L68.3,118.4h136.5L136.6,0z M136.6,28.4l22.5,39.1h-45.1L136.6,28.4z M106.7,80.3h59.8l14.5,25.2
				H92.2L106.7,80.3z"/>
		</g>
	</g>
</g>
</svg>
