<?xml version="1.0" encoding="utf-8"?>
<!-- Generator: Adobe Illustrator 24.1.2, SVG Export Plug-In . SVG Version: 6.00 Build 0)  -->
<svg version="1.1" id="Layer_1" xmlns="http://www.w3.org/2000/svg" xmlns:xlink="http://www.w3.org/1999/xlink" x="0px" y="0px"
	 viewBox="0 0 500 500" style="enable-background:new 0 0 500 500;" xml:space="preserve">
<g>
	<path d="M56.1,168.2h387.7v18.7H56.1V168.2z"/>
	<path d="M56.1,362.7h387.7v18.7H56.1V362.7z"/>
	<path d="M90.3,199h51.4v151.5H90.3V199z"/>
	<path d="M179.5,199h51.4v151.5h-51.4V199z"/>
	<path d="M268.7,199h51.4v151.5h-51.4V199z"/>
	<path d="M357.9,199h51.4v151.5h-51.4V199z"/>
	<path d="M33.5,398.2h433v30.9h-433V398.2z"/>
	<path d="M250,70.9L56.1,149.5h387.7L250,70.9z M250,132.2c-11.8,0-21.4-8.7-21.4-19.4s9.6-19.4,21.4-19.4
		c11.8,0,21.4,8.7,21.4,19.4C271.4,123.5,261.8,132.2,250,132.2z"/>
</g>
</svg>
