<?xml version="1.0" encoding="utf-8"?>
<!DOCTYPE svg PUBLIC "-//W3C//DTD SVG 1.1//EN" "http://www.w3.org/Graphics/SVG/1.1/DTD/svg11.dtd">
<svg version="1.1" id="Layer_1" xmlns="http://www.w3.org/2000/svg" x="0px" y="0px"
     width="780px" height="500px" viewBox="-215 -75 780 500" enable-background="new -215 -75 780 500" xml:space="preserve">
<g>
	<path d="M-0.844,93.165h351.687v18.704H-0.844V93.165z"/>
	<path d="M-0.844,287.701h351.687v18.704H-0.844V287.701z"/>
	<path d="M30.154,124.029h46.629v151.512H30.154V124.029z"/>
	<path d="M111.055,124.029h46.628v151.512h-46.628V124.029z"/>
	<path d="M191.954,124.029h46.629v151.512h-46.629V124.029z"/>
	<path d="M272.854,124.029h46.63v151.512h-46.63V124.029z"/>
	<path d="M-21.389,323.238h392.777v30.862H-21.389V323.238z"/>
	<path d="M174.998-4.101L-0.844,74.462h351.687L174.998-4.101z M174.998,57.158c-10.717,0-19.403-8.689-19.403-19.408
		s8.687-19.406,19.403-19.406c10.719,0,19.405,8.689,19.405,19.406C194.403,48.47,185.717,57.158,174.998,57.158z"/>
</g>
</svg>
