<?xml version="1.0" encoding="utf-8"?>
<!-- Generator: Adobe Illustrator 26.0.3, SVG Export Plug-In . SVG Version: 6.00 Build 0)  -->
<svg version="1.1" id="Layer_1" xmlns="http://www.w3.org/2000/svg" xmlns:xlink="http://www.w3.org/1999/xlink" x="0px" y="0px"
	 viewBox="0 0 765 765" style="enable-background:new 0 0 765 765;" xml:space="preserve">
<style type="text/css">
	.st0{fill-rule:evenodd;clip-rule:evenodd;stroke:#000000;stroke-miterlimit:10;}
</style>
<path class="st0" d="M0,0c60,0,120,0,180,0c0,4,0,8,0,12c-56,0-112,0-168,0c0,56,0,112,0,168c-4,0-8,0-12,0C0,120,0,60,0,0z"/>
<path class="st0" d="M585,0c60,0,120,0,180,0c0,60,0,120,0,180c-4,0-8,0-12,0c0-56,0-112,0-168c-56,0-112,0-168,0C585,8,585,4,585,0
	z"/>
<path class="st0" d="M0,585c4,0,8,0,12,0c0,56,0,112,0,168c56,0,112,0,168,0c0,4,0,8,0,12c-60,0-120,0-180,0C0,705,0,645,0,585z"/>
<path class="st0" d="M753,585c4,0,8,0,12,0c0,60,0,120,0,180c-60,0-120,0-180,0c0-4,0-8,0-12c56,0,112,0,168,0
	C753,697,753,641,753,585z"/>
</svg>
