<?xml version="1.0" encoding="utf-8"?>
<!-- Generator: Adobe Illustrator 27.9.6, SVG Export Plug-In . SVG Version: 9.03 Build 54986)  -->
<svg version="1.1" id="Layer_1" xmlns="http://www.w3.org/2000/svg" xmlns:xlink="http://www.w3.org/1999/xlink" x="0px" y="0px"
	 viewBox="0 0 512 512" style="enable-background:new 0 0 512 512;" xml:space="preserve">
<style type="text/css">
	.st0{fill:#00FF00;stroke:#000000;stroke-width:32;stroke-linecap:round;stroke-linejoin:round;}
</style>
<path class="st0" d="M262.3,192.3c-35.2-3.5-66.5,22.2-70,57.4s22.2,66.5,57.4,70c35.2,3.5,66.5-22.2,70-57.4
	c0.4-4.2,0.4-8.4,0-12.6C316.6,219.4,292.6,195.4,262.3,192.3z M416.4,256c0,7-0.6,13.9-1.5,20.8l45.2,35.5
	c4.1,3.4,5.1,9.2,2.4,13.8l-42.8,74c-2.7,4.5-8.2,6.5-13.1,4.6l-44.9-18.1c-5-2-10.7-1.3-15.2,1.8c-6.9,4.7-14.1,8.9-21.5,12.5
	c-4.8,2.3-8.1,6.9-8.8,12.1l-6.7,47.9c-0.9,5.2-5.4,9.1-10.7,9.2h-85.5c-5.2-0.1-9.6-3.8-10.7-8.9l-6.7-47.8
	c-0.8-5.3-4.1-9.9-9-12.2c-7.5-3.6-14.7-7.8-21.5-12.6c-4.4-3.1-10.1-3.7-15.1-1.7l-44.9,18.1c-4.9,1.9-10.5-0.1-13.1-4.6l-42.8-74
	c-2.7-4.6-1.6-10.4,2.5-13.8l38.2-30c4.3-3.4,6.5-8.7,6-14.1c-0.4-4.2-0.6-8.3-0.6-12.5s0.2-8.3,0.6-12.4c0.5-5.4-1.8-10.6-6.1-13.9
	l-38.2-30c-4-3.4-5-9.1-2.4-13.7l42.8-74c2.7-4.5,8.2-6.5,13.1-4.6l44.9,18.1c5,2,10.7,1.3,15.2-1.8c6.9-4.7,14.1-8.9,21.5-12.5
	c4.8-2.3,8.1-6.9,8.8-12.1l6.7-47.9c0.9-5.2,5.4-9.1,10.7-9.2h85.5c5.2,0.1,9.6,3.8,10.7,8.9l6.7,47.8c0.8,5.3,4.1,9.9,9,12.2
	c7.5,3.6,14.7,7.8,21.5,12.6c4.4,3.1,10.1,3.7,15.1,1.7l44.9-18.1c4.9-1.9,10.5,0.1,13.1,4.6l42.8,74c2.7,4.6,1.6,10.4-2.5,13.8
	l-38.2,30c-4.3,3.4-6.5,8.7-6,14.1C416.2,247.7,416.4,251.8,416.4,256z"/>
</svg>
