<?xml version="1.0" encoding="utf-8"?>
<!-- Generator: Adobe Illustrator 27.9.6, SVG Export Plug-In . SVG Version: 9.03 Build 54986)  -->
<svg version="1.1" id="Layer_1" xmlns="http://www.w3.org/2000/svg" xmlns:xlink="http://www.w3.org/1999/xlink" x="0px" y="0px"
	 viewBox="0 0 512 512" style="enable-background:new 0 0 512 512;" xml:space="preserve">
<style type="text/css">
	.st0{fill:#FFFFFF;}
</style>
<path class="st0" d="M480,249.5c-0.3-5.5-4.6-10.1-10.1-10.7l-27.6-4.5c-2.6-0.4-4.5-2.5-4.8-5c-0.5-3.4-1.1-6.9-1.8-10.3
	c-0.5-2.5,0.6-5,2.8-6.3l24.5-13.6c5-2.6,7.4-8.5,5.4-13.8l-4.3-11.7c-1.9-5.3-7.6-8.3-13.1-7l-27.5,5.4c-2.5,0.5-5.1-0.8-6.3-3
	c-1.6-3-3.3-6.1-5.2-9.1c-1.4-2.2-1.2-5,0.5-7l18.3-21.2c3.8-4.1,4-10.5,0.4-14.8l-8-9.6c-3.6-4.4-9.9-5.3-14.6-2.2l-24.1,14.5
	c-2.2,1.3-5,1-6.9-0.7c-2.7-2.3-5.4-4.6-7.9-6.7c-2-1.6-2.8-4.3-1.9-6.7l10-26.3c2.2-5.2,0.3-11.2-4.6-14.1l-10.9-6.3
	c-4.9-2.8-11.1-1.5-14.5,3L330.3,84c-1.3,2-3.8,2.8-6,1.9c-0.7-0.3-6.2-2.5-10.5-4c-2.4-0.8-4.1-3.1-4-5.6l0.4-28.1
	c0.3-5.7-3.6-10.7-9.2-11.7l-12.3-2.2c-5.6-1-11,2.3-12.7,7.7l-9.2,26.7c-0.9,2.4-3.2,4-5.8,3.9h-10.5c-2.6,0.1-4.9-1.5-5.7-4
	l-9.1-26.6c-1.7-5.4-7.1-8.8-12.7-7.8l-12.4,2.2c-5.5,1-9.5,6-9.2,11.6l0.4,28.2c0,2.6-1.7,4.9-4.2,5.7c-2.5,1-7.8,3-10.3,3.9
	c-2.2,0.8-4.5-0.1-6.4-2.3L163.5,62c-3.3-4.6-9.6-5.9-14.5-3.1l-10.8,6.3c-5,2.8-7,9-4.7,14.2l10,26.2c0.9,2.4,0.2,5.1-1.8,6.7
	c-2.6,2.2-5.3,4.3-8,6.7c-1.9,1.7-4.7,2-6.8,0.7L103.1,105c-4.7-3.1-11-2.2-14.7,2.2l-8,9.6c-3.7,4.3-3.5,10.7,0.4,14.8l18.4,21.1
	c1.7,2,1.9,4.8,0.5,6.9c-1.8,2.9-3.6,6-5.2,9.1c-1.2,2.3-3.8,3.5-6.3,3l-27.5-5.3c-5.5-1.3-11.1,1.7-13.1,7l-4.3,11.7
	c-2,5.3,0.3,11.3,5.4,13.8l24.5,13.6c2.3,1.3,3.4,3.9,2.9,6.4l-0.3,1.4c-0.6,3-1.1,5.8-1.6,8.9c-0.4,2.5-2.3,4.5-4.8,5l-27.7,4.5
	c-5.6,0.7-9.8,5.4-9.9,11.1v12.5c0,5.7,4.2,10.4,9.9,11l27.7,4.5c2.6,0.4,4.5,2.5,4.8,5c0.5,3.4,1.1,6.9,1.8,10.3
	c0.5,2.5-0.6,5-2.8,6.3l-24.5,13.6c-5,2.6-7.4,8.5-5.4,13.8l4.3,11.7c1.9,5.3,7.6,8.3,13.1,7l27.5-5.3c2.5-0.5,5.1,0.8,6.3,3
	c1.6,3,3.3,6.1,5.2,9.1c1.4,2.2,1.2,5-0.5,7L81,380.4c-3.9,4.1-4.1,10.5-0.5,14.8l8,9.6c3.6,4.4,9.9,5.3,14.6,2.2l24.1-14.5
	c2.2-1.3,5-1,6.9,0.7c2.7,2.3,5.4,4.6,7.9,6.7c2,1.6,2.8,4.3,1.9,6.7l-10,26.3c-2.2,5.2-0.3,11.2,4.6,14.1l10.9,6.3
	c4.9,2.8,11.1,1.5,14.5-3l17.8-21.9c1.5-1.9,3.9-2.7,5.6-2c3.7,1.6,6.3,2.4,10.7,3.9c2.4,0.8,4.1,3.1,4,5.6l-0.4,28.1
	c-0.3,5.7,3.6,10.7,9.2,11.7l12.3,2.2c5.6,1,11-2.3,12.7-7.7l9.2-26.7c0.9-2.4,3.2-4,5.8-3.9h10.5c2.6-0.1,4.9,1.5,5.7,4l9.1,26.6
	c1.5,4.7,5.8,8,10.8,8c0.6,0,1.3-0.1,1.9-0.2l12.4-2.2c5.5-1,9.5-6,9.2-11.6l-0.4-28.2c0-2.5,1.6-4.8,4-5.6c4.1-1.4,7-2.5,9.6-3.5
	l0.6-0.2c3.3-1.2,5,0.2,5.9,1.4l18,22.2c3.3,4.6,9.6,5.9,14.5,3l10.8-6.3c4.9-2.8,6.9-8.9,4.6-14.1l-10-26.2
	c-0.9-2.4-0.2-5.1,1.8-6.7c2.6-2.2,5.3-4.3,8-6.7c1.9-1.7,4.7-2,6.9-0.7l24.1,14.4c4.7,3.1,11,2.2,14.7-2.2l8-9.6
	c3.7-4.3,3.5-10.7-0.4-14.8l-18.4-21.2c-1.7-2-1.9-4.8-0.5-6.9c1.8-2.9,3.6-6,5.2-9.1c1.2-2.3,3.8-3.5,6.3-3l27.4,5.4
	c5.5,1.3,11.1-1.7,13.1-7l4.3-11.7c2-5.3-0.3-11.2-5.4-13.8l-24.6-13.6c-2.2-1.3-3.4-3.8-2.8-6.3l0.3-1.4c0.6-3,1.1-5.8,1.6-8.9
	c0.4-2.5,2.3-4.5,4.8-5l27.7-4.5c5.6-0.7,9.8-5.4,9.9-11.1V249.5z M175.8,350.7c-4.7,8.1-15.1,11-23.2,6.3c-1.6-0.9-3-2.1-4.2-3.4
	c-50.3-55.6-50.1-140.3,0.5-195.6c6.3-7,17.1-7.6,24-1.3c1.4,1.2,2.5,2.7,3.4,4.2l49.2,86.5c3,5.3,3,11.7,0,17L175.8,350.7z
	 M256,401.5c-10.2,0-20.5-1.1-30.5-3.2c-9.2-2.1-15-11.2-12.9-20.3c0.4-1.7,1-3.3,1.9-4.8L264,287c3-5.3,8.7-8.5,14.8-8.5H378
	c9.4,0,17,7.6,17,17c0,1.7-0.3,3.5-0.8,5.1C375.4,359,320.6,401.5,256,401.5z M264.1,225l-49-86.3c-4.7-8.2-1.9-18.6,6.3-23.2
	c1.5-0.9,3.1-1.5,4.8-1.9c9.8-2.1,19.8-3.1,29.8-3.1c64.6,0,119.4,42.5,138.2,101c2.8,9-2.2,18.5-11.1,21.3
	c-1.7,0.5-3.4,0.8-5.1,0.8h-99.1C272.8,233.6,267.1,230.3,264.1,225L264.1,225z"/>
</svg>
