<?xml version="1.0" encoding="utf-8"?>
<!-- Generator: Adobe Illustrator 24.2.1, SVG Export Plug-In . SVG Version: 6.00 Build 0)  -->
<svg version="1.1" id="Layer_1" xmlns="http://www.w3.org/2000/svg" xmlns:xlink="http://www.w3.org/1999/xlink" x="0px" y="0px"
	 viewBox="0 0 512 512" style="enable-background:new 0 0 512 512;" xml:space="preserve">
<g>
	<path d="M256,480c-2,0-4.1-0.4-6-1.2c-10.8-4.4-67.6-29-121.1-85.7c-31.2-33.1-55.3-71-71.6-112.5C37.2,229.4,29,172.5,32.9,111.4
		c0.5-7.3,5.9-13.4,13.1-14.7c86.5-15.6,122.6-26.8,203.4-63.2c4.2-1.9,9-1.9,13.2,0C343.4,69.9,379.5,81.2,466,96.7
		c7.2,1.3,12.7,7.4,13.1,14.7c3.9,61.1-4.4,118-24.4,169.2c-16.3,41.5-40.4,79.4-71.6,112.5c-53.5,56.7-110.2,81.4-121.1,85.7
		C260.1,479.6,258,480,256,480z M64.3,125.9c-1.8,51.7,5.9,99.7,22.9,143.1c14.8,37.7,36.7,72.1,65.1,102.2
		c42.2,44.8,87.3,67.9,103.8,75.4c16.5-7.5,61.5-30.6,103.8-75.4c28.4-30.1,50.3-64.5,65.1-102.2c17-43.3,24.7-91.4,22.9-143.1
		C369.2,111.2,331.3,99.2,256,65.5C180.7,99.2,142.8,111.2,64.3,125.9z"/>
</g>
<polygon points="351.8,218 284,218 284,150.2 228,150.2 228,218 160.2,218 160.2,274 228,274 228,341.8 284,341.8 284,274 
	351.8,274 "/>
</svg>
