<?xml version="1.0" encoding="utf-8"?>
<!-- Generator: Adobe Illustrator 26.0.3, SVG Export Plug-In . SVG Version: 6.00 Build 0)  -->
<svg version="1.1" id="Layer_1" xmlns="http://www.w3.org/2000/svg" xmlns:xlink="http://www.w3.org/1999/xlink" x="0px" y="0px"
	 viewBox="0 0 211 211" style="enable-background:new 0 0 211 211;" xml:space="preserve">
<style type="text/css">
	.st0{fill:#CA1932;}
	.st1{fill:#FFFFFF;}
</style>
<g>
	<g>
		<path class="st0" d="M0,0h211v211H0V0z"/>
		<g>
			<path class="st1" d="M17.9,66.5v-4.3h15.6v4.3h-4.4l5.5,19.8l6.7-24h7l6.8,24.3l5.4-20h-4.6v-4.2h40.7v11h-3.5
				c-0.9-3.3-1.2-6.8-5.9-6.8h-7.7v10.1h9.6c0.9,1.3,0.8,3.6,0,4.8h-9.6v10.3h8.8c3.7,0,4.5-3.5,5.3-7.2h3.5v11.6H68.2v-4.3h4.1
				V66.5h-6.5l-8.4,29.4h-6.7l-6.8-24.2l-6.9,24.2h-6.8l-8.4-29.4L17.9,66.5L17.9,66.5z"/>
			<path class="st1" d="M100.5,66.5v-4.2h15.8v4.2h-4.6v25.1h7.1c3.7,0,4.5-3.5,5.3-7.2h3.5v11.6h-27.2v-4.3h4.1V66.5L100.5,66.5
				L100.5,66.5z"/>
			<path class="st1" d="M130.7,66.5v-4.2h15.8v4.2H142v25.1h7.1c3.7,0,4.5-3.5,5.3-7.2h3.5v11.6h-27.2v-4.3h4.1V66.5L130.7,66.5
				L130.7,66.5z"/>
			<path class="st1" d="M23.2,113v4.2h4.1v25.2h-4.1v4.2h16.2v-4.2h-4.9v-9.7h9.9c0.8-1.2,0.9-3.4,0-4.8h-9.9v-10.7h8.3
				c4.6,0,5,3.5,5.9,6.8h3.5v-11H23.2z M62.5,113l-11.7,29.4h-3.4v4.2h12.8v-4.2h-4.1l2.2-5.9h12.3l2.2,5.9H69v4.2h30.2v-4.2h-4.5
				v-10.1h2.9c5.3,0,6.8,2.4,7.1,7.4c0.4,4.9,2.1,7.4,7.8,7.4c1.6,0,3.5-0.2,3.5-0.2c0.4-1.1,0.8-2.5,0-4c-3.8,0.4-3.9-2.3-4.1-5.2
				c-0.2-4.7-2.9-6.9-6.9-7.2c5.2-0.1,9-3.7,9-8.3c0-6-5.2-9.1-11.2-9.1H83.3v4.3h4.1v25.1h-6.5L68.9,113H62.5z M94.6,117.3h5
				c4.8,0,7.1,1.6,7.1,5.4c0,3.8-3.3,5.3-6.3,5.3h-5.7L94.6,117.3L94.6,117.3z M64.5,119.9l4.7,12.5h-9.3L64.5,119.9z"/>
			<path class="st1" d="M161.1,93.7v-9.4h3.6c1.2,5.3,3.5,8.2,9.8,8.2c4.2,0,6.9-1.4,6.9-4.8c0-8.6-20.3-1.9-20.3-16
				c0-6.3,5.4-10.3,13.5-10.3c7,0,12.2,3,12.2,3v8.4h-3.6c-0.9-5.1-3.6-7-8.4-7c-4.1,0-6.6,1.8-6.6,4.6c0,8.2,20.4,1.6,20.4,16.3
				c0,4.7-3.1,10.3-13.7,10.3C165.9,96.8,161.1,93.7,161.1,93.7L161.1,93.7z"/>
			<path class="st1" d="M135.7,147.7c-11.3,0-17.7-7.7-17.7-17.7c0-9.7,6-18,17.9-18c7,0,12.6,3,12.6,3v8.6h-3.6
				c-1.4-3.8-3.4-7.1-8.9-7.1c-7.5,0-10,6.3-10,13.5c0,7.6,3.1,13.3,10.5,13.3c3,0,5.6-1.2,5.6-1.2v-8.3h-5.7
				c-0.8-1.8-0.6-3.6,0-4.7h12.9V144C149.2,144,143.1,147.7,135.7,147.7L135.7,147.7z"/>
			<path class="st1" d="M171.9,112c-10.1,0-17.9,6.8-17.9,18c0,10.6,7.7,17.7,17.8,17.7c10.8,0,17.9-7.7,17.9-17.8
				C189.8,119,181.9,112,171.9,112z M171.8,116.5c6.3,0,10,4.7,10,13.3c0,8.5-3.5,13.4-9.9,13.4c-6.6,0-9.9-5.1-9.9-13.2
				C162,122.1,164.9,116.5,171.8,116.5z"/>
		</g>
	</g>
</g>
</svg>
